<svg width="70" height="80" viewBox="0 0 70 80" fill="none" xmlns="http://www.w3.org/2000/svg">
<g id="Group 570">
<ellipse id="Ellipse 2" cx="19.5" cy="75.5" rx="18.5" ry="4.5" fill="#183B59" fill-opacity="0.5"/>
<g id="Group 530">
<path id="Vector" fill-rule="evenodd" clip-rule="evenodd" d="M19.7711 75.0418C19.6851 75.4292 18.523 75.6013 17.5762 75.5583C16.6293 75.5152 16.4141 75.4722 16.328 75.257L9.95825 45.3018L11.0342 45.0866L13.2723 44.6132L19.7711 75.0418Z" fill="#184872"/>
<path id="Vector_2" fill-rule="evenodd" clip-rule="evenodd" d="M17.5762 75.5583C16.9736 75.5583 16.4141 75.4722 16.328 75.257L9.95825 45.3019L11.0342 45.0867L17.5762 75.5583Z" fill="#0C2031"/>
<path id="Vector_3" fill-rule="evenodd" clip-rule="evenodd" d="M4.4063 10.9997C7.03168 10.4402 9.05451 10.9137 9.26971 11.9466L16.0268 43.6233C16.242 44.6563 14.5635 45.9044 11.9381 46.4639C9.31275 47.0234 6.9456 46.636 6.73041 45.6031L0.0163217 13.9264C-0.198873 12.8504 1.73788 11.5592 4.4063 10.9997Z" fill="#0C2031"/>
<path id="Vector_4" fill-rule="evenodd" clip-rule="evenodd" d="M9.44189 12.5922L62.3368 1.35902C62.5521 1.30898 62.7774 1.3238 62.9842 1.40163C63.1911 1.47946 63.3703 1.61681 63.4992 1.79635C63.6281 1.97589 63.7009 2.18957 63.7085 2.41046C63.7162 2.63135 63.6582 2.84955 63.5419 3.03753L54.5898 18.6177C54.4408 18.8531 54.3889 19.1372 54.4451 19.4101C54.5013 19.6831 54.6611 19.9236 54.8911 20.081L69.3092 30.3673C69.4917 30.4926 69.6329 30.6693 69.715 30.875C69.797 31.0806 69.8162 31.306 69.7701 31.5226C69.7241 31.7392 69.6148 31.9372 69.4561 32.0916C69.2974 32.2461 69.0965 32.3499 68.8788 32.3901L16.0269 43.6233L9.44189 12.5922Z" fill="#183B59"/>
<path id="Vector_5" fill-rule="evenodd" clip-rule="evenodd" d="M4.4063 10.9998C6.42913 10.5694 8.32285 10.6985 9.14059 11.301L62.0355 0.0248075C62.1853 -0.00665905 62.3399 -0.0081998 62.4903 0.0202367C62.6407 0.0486732 62.784 0.106528 62.912 0.190512C63.0399 0.274496 63.1501 0.382958 63.236 0.509627C63.322 0.636295 63.382 0.77869 63.4128 0.928642L63.671 2.17676C63.5996 1.89313 63.42 1.64873 63.1706 1.49589C62.9212 1.34305 62.6219 1.29394 62.3368 1.35903L9.44187 12.5922C8.88236 13.496 7.24687 14.3568 5.181 14.7872C3.11513 15.2176 0.231517 14.9594 0.0163217 13.9264C-0.198873 12.8935 1.73788 11.5593 4.4063 10.9998ZM54.5467 18.7037C54.5467 18.7468 54.5898 18.7468 54.6328 18.7898L69.0078 29.0331C69.2676 29.2016 69.4525 29.4636 69.5243 29.7648L69.7825 31.0129C69.7062 30.7484 69.5384 30.5196 69.3091 30.3673L54.8911 20.081C54.6763 19.9323 54.5229 19.7106 54.4595 19.4572C54.3962 19.2038 54.4272 18.936 54.5467 18.7037Z" fill="#183B59"/>
<path id="Vector_6" fill-rule="evenodd" clip-rule="evenodd" d="M4.40635 11.215C6.60134 10.7846 8.53809 11.0859 8.71024 11.9036C8.8824 12.7213 7.24692 13.7973 5.05193 14.2707C2.85694 14.7442 0.920187 14.4429 0.748031 13.5821C0.575875 12.7213 2.21136 11.6884 4.40635 11.215Z" fill="#0C2031"/>
<path id="Vector_7" fill-rule="evenodd" clip-rule="evenodd" d="M54.4607 18.8759C54.4007 19.0967 54.4097 19.3306 54.4867 19.546C54.5636 19.7615 54.7048 19.9482 54.8911 20.081L69.3092 30.3673C69.5346 30.5172 69.6981 30.7437 69.7693 31.0048C69.8405 31.266 69.8147 31.5441 69.6965 31.7876C69.7555 31.5561 69.7416 31.3121 69.6569 31.0888C69.5722 30.8654 69.4207 30.6736 69.2231 30.5395L54.8481 20.2962C54.6295 20.1406 54.4714 19.9141 54.4008 19.6552C54.3302 19.3963 54.3514 19.121 54.4607 18.8759Z" fill="#183B59"/>
<path id="Vector_8" fill-rule="evenodd" clip-rule="evenodd" d="M7.63426 12.5061C6.88655 13.1415 5.97815 13.5585 5.00888 13.7112C4.07691 13.965 3.09216 13.9501 2.1683 13.6682C1.99987 13.6405 1.84527 13.5581 1.72853 13.4335C1.61178 13.309 1.53943 13.1494 1.52272 12.9795C1.48518 12.5901 1.51429 12.1971 1.6088 11.8175C1.95311 10.7846 2.94301 10.0959 4.19114 9.79465C5.43927 9.49338 7.41907 10.0099 7.93554 11.6023C7.99317 11.765 7.99483 11.9423 7.94025 12.106C7.88567 12.2697 7.77798 12.4105 7.63426 12.5061Z" fill="#184872"/>
<path id="Vector_9" fill-rule="evenodd" clip-rule="evenodd" d="M7.63426 12.5061C6.88655 13.1415 5.97815 13.5585 5.00888 13.7112C4.07691 13.965 3.09216 13.9501 2.1683 13.6682C1.99987 13.6405 1.84527 13.5581 1.72853 13.4335C1.61178 13.309 1.53943 13.1494 1.52272 12.9796C1.48518 12.5901 1.51429 12.1972 1.6088 11.8175C4.10506 13.5821 7.63426 12.5061 7.63426 12.5061Z" fill="#0C2031"/>
<path id="Vector_10" opacity="0.5" d="M5.05185 11.0859C5.90756 11.0859 6.60125 10.8546 6.60125 10.5694C6.60125 10.2842 5.90756 10.0529 5.05185 10.0529C4.19613 10.0529 3.50244 10.2842 3.50244 10.5694C3.50244 10.8546 4.19613 11.0859 5.05185 11.0859Z" fill="#184872"/>
</g>
</g>
</svg>
