<svg width="63" height="72" viewBox="0 0 63 72" fill="none" xmlns="http://www.w3.org/2000/svg">
<g id="Group 577">
<ellipse id="Ellipse 2" cx="18.5" cy="67.5" rx="18.5" ry="4.5" fill="#183B59" fill-opacity="0.5"/>
<path id="Vector" d="M46.9534 10.5857L23.6901 60.5475H23.6299L18.5071 67.9002C18.4469 68.0207 18.266 68.0207 18.1455 67.9604H18.0852C18.025 67.9001 17.9647 67.8399 18.025 67.7194L20.3754 59.0408L43.699 9.07898L45.0851 9.80216L46.9534 10.5857Z" fill="#436A8D"/>
<path id="Vector_2" d="M46.9536 10.5857L23.6904 60.5476H23.6301L18.5074 67.9002C18.4471 68.0207 18.2662 68.0207 18.1457 67.9604H18.0854L22.1837 59.0409L45.0854 9.74194L46.9536 10.5857Z" fill="#0C2031"/>
<g id="Group 572">
<path id="Vector_3" d="M40.7841 0.17179C44.9037 0.130455 48.9431 1.31214 52.3909 3.56728C55.8387 5.82243 58.54 9.04967 60.153 12.8406C61.766 16.6316 62.2181 20.8158 61.4523 24.8638C60.6864 28.9118 58.7369 32.6417 55.8504 35.5813C52.964 38.521 49.2704 40.5383 45.237 41.378C41.2037 42.2177 37.0119 41.8421 33.1921 40.2986C29.3723 38.7551 26.0963 36.1132 23.7785 32.7072C21.4608 29.3012 20.2055 25.2841 20.1715 21.1644C20.1261 15.6487 22.2711 10.3403 26.1356 6.40454C30.0002 2.46874 35.2685 0.227134 40.7841 0.17179Z" fill="#4A9CFF"/>
<g id="Group" style="mix-blend-mode:multiply">
<path id="Vector_4" opacity="0.5" d="M56.2953 41.8771C54.1748 44.3728 51.3616 46.1833 48.2117 47.0796C45.0619 47.976 41.717 47.9179 38.6002 46.9126C35.4834 45.9074 32.7348 44.0002 30.7023 41.4324C28.6697 38.8646 27.4445 35.7516 27.1817 32.4873C26.9188 29.223 27.6302 25.954 29.2258 23.0941C30.8213 20.2342 33.2294 17.9118 36.1452 16.4209C39.061 14.9299 42.3535 14.3374 45.6062 14.7183C48.8589 15.0991 51.9255 16.4362 54.418 18.5604C57.7561 21.4053 59.8287 25.4586 60.1807 29.8304C60.5327 34.2021 59.1352 38.5349 56.2953 41.8771Z" fill="url(#paint0_linear_71_60)"/>
<path id="Vector_5" opacity="0.509804" d="M56.3294 41.4648C54.2501 43.9743 51.4734 45.811 48.3503 46.7424C45.2272 47.6739 41.8981 47.6584 38.7838 46.6978C35.6696 45.7372 32.9101 43.8747 30.8544 41.3458C28.7987 38.8169 27.539 35.7352 27.2347 32.4905C26.9304 29.2457 27.5951 25.9835 29.1448 23.1165C30.6944 20.2495 33.0595 17.9064 35.9408 16.3835C38.8221 14.8606 42.0903 14.2263 45.3321 14.5608C48.5739 14.8954 51.6438 16.1837 54.1534 18.2629C57.5101 21.0568 59.6235 25.0664 60.0313 29.4146C60.4391 33.7628 59.1081 38.0955 56.3294 41.4648Z" fill="url(#paint1_linear_71_60)"/>
<path id="Vector_6" opacity="0.519608" d="M56.3634 41.0526C54.3254 43.5751 51.5854 45.4369 48.4897 46.4027C45.3939 47.3686 42.0814 47.3952 38.9705 46.4791C35.8597 45.563 33.0902 43.7453 31.012 41.2558C28.9339 38.7663 27.6402 35.7167 27.2946 32.4923C26.949 29.2678 27.5669 26.0133 29.0702 23.1399C30.5736 20.2665 32.8949 17.9032 35.7409 16.3486C38.5869 14.794 41.8299 14.1179 45.06 14.4057C48.2901 14.6935 51.3624 15.9323 53.8888 17.9655C57.2649 20.7081 59.4197 24.6743 59.8832 28.9992C60.3468 33.324 59.0816 37.6568 56.3634 41.0526Z" fill="url(#paint2_linear_71_60)"/>
<path id="Vector_7" opacity="0.529412" d="M56.36 40.6408C54.3625 43.1779 51.6577 45.0658 48.5874 46.0658C45.5171 47.0658 42.2192 47.133 39.1107 46.2589C36.0022 45.3848 33.2227 43.6087 31.1235 41.155C29.0244 38.7014 27.6999 35.6805 27.3174 32.4742C26.935 29.2678 27.5118 26.0201 28.975 23.1416C30.4382 20.2631 32.722 17.883 35.5377 16.3023C38.3534 14.7216 41.5745 14.0113 44.7939 14.2611C48.0132 14.5109 51.0863 15.7096 53.6244 17.7057C55.3146 19.0287 56.7267 20.6726 57.7795 22.543C58.8324 24.4134 59.5053 26.4734 59.7595 28.6047C60.0137 30.7359 59.8442 32.8964 59.2608 34.962C58.6774 37.0275 57.6916 38.9575 56.36 40.6408Z" fill="url(#paint3_linear_71_60)"/>
<path id="Vector_8" opacity="0.539216" d="M56.394 40.2285C54.4377 42.7766 51.7702 44.6878 48.7284 45.7208C45.6865 46.7538 42.4068 46.8622 39.3034 46.0324C36.2 45.2025 33.412 43.4716 31.2917 41.0583C29.1715 38.645 27.8139 35.6574 27.3905 32.473C26.9671 29.2885 27.4968 26.05 28.9128 23.1665C30.3288 20.283 32.5676 17.8837 35.3464 16.2718C38.1251 14.6598 41.3192 13.9074 44.5253 14.1097C47.7314 14.312 50.8057 15.4598 53.3598 17.4082C55.0602 18.7053 56.4878 20.3252 57.561 22.1751C58.6341 24.0251 59.3316 26.0686 59.6135 28.1885C59.8954 30.3085 59.7561 32.4633 59.2036 34.5293C58.6511 36.5954 57.6964 38.5321 56.394 40.2285Z" fill="url(#paint4_linear_71_60)"/>
<path id="Vector_9" opacity="0.54902" d="M56.4281 39.8163C54.5159 42.3926 51.8824 44.3438 48.8608 45.4228C45.8392 46.5019 42.5655 46.6604 39.4538 45.8782C36.3422 45.096 33.5325 43.4083 31.3804 41.0287C29.2282 38.6491 27.8304 35.6846 27.3637 32.5102C26.897 29.3359 27.3825 26.0945 28.7587 23.1962C30.1349 20.2978 32.3399 17.8729 35.0948 16.2282C37.8497 14.5836 41.0305 13.7931 44.2348 13.9569C47.4391 14.1207 50.5227 15.2313 53.0956 17.1482C56.5401 19.7147 58.8257 23.5431 59.4505 27.7929C60.0753 32.0428 58.9883 36.367 56.4281 39.8163Z" fill="url(#paint5_linear_71_60)"/>
<path id="Vector_10" opacity="0.558824" d="M56.4622 39.4042C54.591 41.9894 51.9955 43.962 49.0036 45.0726C46.0117 46.1831 42.7578 46.3819 39.653 45.6437C36.5482 44.9054 33.7319 43.2634 31.56 40.9251C29.3882 38.5867 27.9582 35.657 27.4509 32.5063C26.9436 29.3555 27.3817 26.125 28.7099 23.2232C30.038 20.3213 32.1966 17.8783 34.9127 16.2028C37.6289 14.5274 40.7808 13.6947 43.9701 13.8101C47.1594 13.9255 50.2429 14.9837 52.8309 16.851C56.2976 19.3644 58.6264 23.1497 59.3071 27.3772C59.9877 31.6047 58.9647 35.9296 56.4622 39.4042Z" fill="url(#paint6_linear_71_60)"/>
<path id="Vector_11" opacity="0.568627" d="M56.4962 38.9916C54.6659 41.5977 52.104 43.6026 49.1344 44.7528C46.1647 45.903 42.9207 46.1469 39.8125 45.4536C36.7043 44.7603 33.8714 43.161 31.672 40.8579C29.4726 38.5548 28.0055 35.6513 27.4561 32.5144C26.9067 29.3776 27.2997 26.1482 28.5854 23.2347C29.8712 20.3212 31.9919 17.8543 34.6795 16.146C37.3671 14.4376 40.5009 13.5645 43.6847 13.637C46.8684 13.7095 49.9592 14.7243 52.5663 16.5532C54.3021 17.7649 55.7813 19.3076 56.919 21.0928C58.0567 22.878 58.8303 24.8704 59.1955 26.9555C59.5607 29.0406 59.5103 31.1774 59.047 33.2429C58.5838 35.3085 57.7169 37.2621 56.4962 38.9916Z" fill="url(#paint7_linear_71_60)"/>
<path id="Vector_12" opacity="0.578431" d="M56.5303 38.5797C54.7445 41.1978 52.2226 43.2278 49.2834 44.4131C46.3442 45.5984 43.1196 45.8858 40.0171 45.2389C36.9146 44.5921 34.0735 43.04 31.8529 40.7789C29.6322 38.5178 28.1317 35.6492 27.541 32.5355C26.9502 29.4219 27.2958 26.203 28.5339 23.2856C29.7721 20.3683 31.8473 17.8835 34.4973 16.1452C37.1472 14.407 40.253 13.4933 43.4221 13.5197C46.5912 13.5461 49.6814 14.5114 52.302 16.2935C55.8124 18.6927 58.2285 22.3855 59.0211 26.5629C59.8137 30.7403 58.918 35.0615 56.5303 38.5797Z" fill="url(#paint8_linear_71_60)"/>
<path id="Vector_13" opacity="0.588235" d="M56.5643 38.1674C54.8194 40.8042 52.3319 42.8646 49.4163 44.088C46.5006 45.3114 43.2878 45.6431 40.1837 45.041C37.0796 44.4389 34.2237 42.93 31.977 40.7052C29.7302 38.4804 28.1935 35.6395 27.5609 32.5415C26.9284 29.4435 27.2284 26.2275 28.4232 23.3C29.618 20.3725 31.6538 17.8649 34.2733 16.0942C36.8929 14.3234 39.9786 13.369 43.1405 13.3515C46.3024 13.3341 49.3984 14.2544 52.0374 15.9961C55.564 18.3473 58.0186 21.9967 58.8665 26.1495C59.7144 30.3023 58.8869 34.6219 56.5643 38.1674Z" fill="url(#paint9_linear_71_60)"/>
<path id="Vector_14" opacity="0.598039" d="M56.5984 37.755C54.8942 40.4094 52.4415 42.4991 49.55 43.7599C46.6586 45.0207 43.4583 45.3961 40.3536 44.8386C37.2489 44.2811 34.3791 42.8158 32.107 40.6277C29.8349 38.4397 28.2623 35.6273 27.5882 32.5458C26.914 29.4643 27.1684 26.2521 28.3193 23.3152C29.4702 20.3783 31.4659 17.8485 34.0542 16.0455C36.6424 14.2425 39.7071 13.2472 42.8608 13.1854C46.0146 13.1236 49.1159 13.9982 51.7728 15.6985C53.539 16.8288 55.0651 18.2963 56.2638 20.017C57.4624 21.7376 58.3101 23.6777 58.7583 25.7263C59.2065 27.7748 59.2464 29.8917 58.8758 31.9557C58.5052 34.0196 57.7313 35.9903 56.5984 37.755Z" fill="url(#paint10_linear_71_60)"/>
<path id="Vector_15" opacity="0.607843" d="M56.6325 37.3428C54.9732 40.0189 52.5575 42.1427 49.691 43.4456C46.8244 44.7484 43.6358 45.1718 40.5286 44.662C37.4214 44.1522 34.5352 42.7323 32.2352 40.5818C29.9352 38.4314 28.3247 35.647 27.6075 32.5811C26.8902 29.5151 27.0986 26.3053 28.206 23.3577C29.3135 20.4101 31.2703 17.8573 33.829 16.0222C36.3877 14.187 39.4332 13.152 42.5802 13.0481C45.7273 12.9443 48.8344 13.7762 51.5085 15.4386C55.0907 17.6655 57.6424 21.2233 58.6032 25.3304C59.5639 29.4375 58.8551 33.758 56.6325 37.3428Z" fill="url(#paint11_linear_71_60)"/>
<path id="Vector_16" opacity="0.617647" d="M56.6665 36.9304C55.048 39.6219 52.6677 41.773 49.8266 43.1116C46.9855 44.4503 43.8113 44.9163 40.7053 44.4509C37.5994 43.9855 34.7012 42.6094 32.3773 40.4968C30.0534 38.3842 28.4082 35.6298 27.6497 32.5822C26.8913 29.5345 27.0536 26.3303 28.1163 23.3749C29.1789 20.4195 31.0941 17.8455 33.6196 15.9786C36.1451 14.1117 39.1676 13.0357 42.3047 12.8866C45.4418 12.7375 48.5526 13.522 51.2438 15.1409C54.8444 17.3185 57.4362 20.8332 58.4523 24.9165C59.4685 28.9997 58.8264 33.3192 56.6665 36.9304Z" fill="url(#paint12_linear_71_60)"/>
<path id="Vector_17" opacity="0.627451" d="M56.7006 36.518C55.127 39.2289 52.7847 41.4121 49.9699 42.7912C47.1552 44.1704 43.9945 44.6835 40.888 44.2656C37.7816 43.8477 34.8689 42.5177 32.5186 40.4438C30.1683 38.3699 28.4861 35.6454 27.6849 32.615C26.8836 29.5847 26.9994 26.3848 28.0175 23.4203C29.0356 20.4557 30.9102 17.8599 33.4042 15.9612C35.8982 14.0626 38.8994 12.9465 42.028 12.7541C45.1565 12.5618 48.2718 13.302 50.9796 14.8809C54.5967 17.0015 57.2283 20.4666 58.3001 24.5202C59.3719 28.5738 58.7969 32.8868 56.7006 36.518Z" fill="url(#paint13_linear_71_60)"/>
<path id="Vector_18" opacity="0.637255" d="M56.6971 36.1062C55.1641 38.8303 52.8577 41.0385 50.0696 42.4518C47.2815 43.865 44.1369 44.4197 41.0335 44.0457C37.9302 43.6717 35.0074 42.3858 32.6349 40.3506C30.2623 38.3155 28.5466 35.6225 27.7046 32.6122C26.8627 29.6019 26.9323 26.4095 27.9047 23.4388C28.8772 20.4681 30.7087 17.8525 33.1677 15.9227C35.6268 13.9929 38.6028 12.8357 41.7195 12.5974C44.8363 12.3591 47.9537 13.0504 50.6775 14.5838C52.4894 15.5983 54.0831 16.9606 55.3671 18.5927C56.651 20.2248 57.5999 22.0944 58.1592 24.0943C58.7186 26.0941 58.8773 28.1847 58.6264 30.2461C58.3755 32.3074 57.7199 34.2989 56.6971 36.1062Z" fill="url(#paint14_linear_71_60)"/>
<path id="Vector_19" opacity="0.647059" d="M56.7312 35.6939C55.2384 38.4301 52.9681 40.6624 50.2071 42.1088C47.4461 43.5552 44.3184 44.1507 41.219 43.8203C38.1197 43.4898 35.1879 42.2481 32.7939 40.252C30.4 38.256 28.6514 35.5952 27.7691 32.6057C26.8868 29.6163 26.9104 26.4325 27.8368 23.4564C28.7633 20.4804 30.551 17.8457 32.9742 15.8853C35.3974 13.9249 38.3473 12.7267 41.4512 12.4421C44.555 12.1575 47.6736 12.7993 50.4129 14.2864C52.235 15.2755 53.8441 16.6144 55.1481 18.2262C56.4521 19.838 57.4254 21.6912 58.0123 23.6797C58.5992 25.6681 58.7881 27.7528 58.5683 29.8144C58.3485 31.876 57.7242 33.8739 56.7312 35.6939Z" fill="url(#paint15_linear_71_60)"/>
<path id="Vector_20" opacity="0.656863" d="M56.7653 35.2818C55.3172 38.0339 53.0857 40.295 50.3529 41.7792C47.6201 43.2635 44.5086 43.9044 41.4117 43.6209C38.3148 43.3373 35.3714 42.1421 32.9536 40.1863C30.5357 38.2304 28.7519 35.6018 27.8276 32.6324C26.9033 29.6631 26.8799 26.4864 27.7604 23.5038C28.641 20.5212 30.3859 17.8666 32.7747 15.8754C35.1635 13.8842 38.0889 12.6458 41.1814 12.3167C44.2738 11.9876 47.3943 12.5826 50.1487 14.0265C53.8398 15.9727 56.6089 19.3027 57.8491 23.2869C59.0894 27.2711 58.6996 31.5844 56.7653 35.2818Z" fill="url(#paint16_linear_71_60)"/>
<path id="Vector_21" opacity="0.666667" d="M56.7994 34.8696C55.3927 37.6444 53.1948 39.9397 50.4836 41.4653C47.7723 42.9909 44.6696 43.6783 41.5677 43.4404C38.4658 43.2026 35.5041 42.0503 33.0572 40.1292C30.6102 38.2081 28.7879 35.6045 27.8207 32.6477C26.8535 29.6908 26.7848 26.5136 27.6234 23.5178C28.4619 20.5219 30.17 17.8421 32.5317 15.817C34.8934 13.792 37.8025 12.5128 40.8912 12.1411C43.9799 11.7695 47.1095 12.3221 49.8841 13.7292C51.7296 14.6595 53.3732 15.9453 54.7204 17.5127C56.0676 19.08 57.0919 20.8981 57.7345 22.8625C58.3771 24.8268 58.6252 26.8988 58.4648 28.9593C58.3043 31.0199 57.7384 33.0284 56.7994 34.8696Z" fill="url(#paint17_linear_71_60)"/>
<path id="Vector_22" opacity="0.676471" d="M56.8334 34.4575C55.4661 37.2411 53.3047 39.5571 50.6221 41.113C47.9394 42.669 44.8559 43.3952 41.7608 43.1998C38.6657 43.0045 35.698 41.8964 33.2322 40.0155C30.7665 38.1346 28.9134 35.5652 27.9069 32.6319C26.9005 29.6985 26.7858 26.5327 27.5774 23.5342C28.369 20.5357 30.0313 17.839 32.3545 15.7846C34.6777 13.7302 37.5576 12.4103 40.6304 11.9916C43.7032 11.5728 46.8312 12.074 49.6194 13.4318C51.4761 14.336 53.136 15.5978 54.504 17.1448C55.872 18.6918 56.9212 20.4937 57.5914 22.447C58.2616 24.4004 58.5396 26.4668 58.4096 28.5278C58.2795 30.5888 57.7439 32.6039 56.8334 34.4575Z" fill="url(#paint18_linear_71_60)"/>
<path id="Vector_23" opacity="0.686275" d="M56.8674 34.0451C55.5464 36.8539 53.4221 39.2079 50.7631 40.8092C48.1042 42.4105 45.03 43.1872 41.9295 43.0412C38.829 42.8951 35.8415 41.8328 33.3449 39.9887C30.8482 38.1445 28.9545 35.6013 27.9034 32.6808C26.8523 29.7602 26.691 26.5936 27.4398 23.5813C28.1887 20.5691 29.8141 17.8466 32.1104 15.7582C34.4067 13.6699 37.2708 12.3095 40.3404 11.8491C43.41 11.3887 46.5471 11.849 49.3551 13.1717C53.1183 14.9446 56.0236 18.1391 57.4323 22.0533C58.841 25.9674 58.6378 30.2808 56.8674 34.0451Z" fill="url(#paint19_linear_71_60)"/>
<path id="Vector_24" opacity="0.696078" d="M56.9015 33.6327C55.6193 36.4481 53.5316 38.8204 50.9021 40.4501C48.2726 42.0799 45.2191 42.8939 42.1273 42.7896C39.0355 42.6852 36.0439 41.6671 33.5302 39.8638C31.0166 38.0604 29.0937 35.5528 28.0042 32.6573C26.9147 29.7619 26.7075 26.6086 27.4089 23.5956C28.1102 20.5825 29.6886 17.8448 31.9447 15.7281C34.2008 13.6115 37.0335 12.2107 40.0851 11.7028C43.1367 11.1948 46.2704 11.6024 49.0905 12.8742C52.8707 14.6006 55.8141 17.7528 57.2776 21.6424C58.7412 25.5319 58.606 29.8426 56.9015 33.6327Z" fill="url(#paint20_linear_71_60)"/>
<path id="Vector_25" opacity="0.705882" d="M56.9355 33.2205C55.694 36.0541 53.6408 38.4562 51.0351 40.1237C48.4294 41.7912 45.388 42.6493 42.295 42.5895C39.2019 42.5298 36.196 41.5549 33.6566 39.788C31.1172 38.0211 29.1583 35.5415 28.0271 32.6621C26.896 29.7827 26.6434 26.6327 27.3012 23.6098C27.9589 20.587 29.4976 17.8268 31.723 15.6778C33.9483 13.5288 36.7605 12.0873 39.8045 11.5354C42.8484 10.9835 45.9877 11.3458 48.8259 12.5767C50.7164 13.3967 52.4264 14.5817 53.8578 16.064C55.2893 17.5463 56.414 19.2967 57.1675 21.2146C57.9209 23.1326 58.2883 25.1804 58.2485 27.2407C58.2087 29.3009 57.7625 31.3331 56.9355 33.2205Z" fill="url(#paint21_linear_71_60)"/>
<path id="Vector_26" opacity="0.715686" d="M56.9696 32.8085C55.7741 35.6638 53.7589 38.1005 51.1788 39.8106C48.5987 41.5208 45.5695 42.4277 42.4741 42.4166C39.3787 42.4055 36.3561 41.4769 33.7883 39.7483C31.2205 38.0197 29.2228 35.5687 28.0478 32.7049C26.8728 29.8412 26.5731 26.6934 27.1867 23.6594C27.8003 20.6255 29.2996 17.8415 31.4952 15.6594C33.6907 13.4774 36.4838 11.9952 39.5215 11.4003C42.5592 10.8054 45.7051 11.1244 48.5615 12.317C52.3886 13.9257 55.4223 16.9854 56.9982 20.8261C58.5741 24.6668 58.5638 28.9754 56.9696 32.8085Z" fill="url(#paint22_linear_71_60)"/>
<path id="Vector_27" opacity="0.72549" d="M57.0037 32.396C55.8485 35.2671 53.8681 37.7314 51.3129 39.4775C48.7577 41.2236 45.7422 42.1731 42.6475 42.2061C39.5529 42.239 36.5179 41.3539 33.9261 39.6626C31.3342 37.9712 29.3019 35.5496 28.0859 32.7037C26.8699 29.8577 26.5247 26.7152 27.094 23.6732C27.6633 20.6312 29.1216 17.8261 31.2845 15.6126C33.4474 13.399 36.2179 11.8762 39.2459 11.2367C42.274 10.5971 45.4237 10.8694 48.297 12.0193C50.2078 12.784 51.9491 13.918 53.4212 15.3564C54.8933 16.7948 56.0673 18.5094 56.876 20.402C57.6847 22.2947 58.1123 24.3282 58.1342 26.3863C58.1561 28.4444 57.7719 30.4865 57.0037 32.396Z" fill="url(#paint23_linear_71_60)"/>
<path id="Vector_28" opacity="0.735294" d="M57.0377 31.9839C55.9282 34.8743 53.9865 37.3708 51.4582 39.1577C48.9298 40.9446 45.9283 41.9417 42.8333 42.0227C39.7383 42.1038 36.6888 41.2653 34.0703 39.6133C31.4519 37.9612 29.3821 35.5698 28.1228 32.7414C26.8634 29.9131 26.4711 26.7748 26.9953 23.7234C27.5195 20.6721 28.9368 17.8447 31.0679 15.5988C33.199 13.3529 35.9483 11.7894 38.968 11.106C41.9877 10.4226 45.1422 10.65 48.0327 11.7594C49.9519 12.4961 51.7073 13.6036 53.1986 15.0186C54.6898 16.4337 55.8877 18.1286 56.7239 20.0066C57.5601 21.8846 58.0182 23.9089 58.0721 25.964C58.1259 28.0191 57.7744 30.0646 57.0377 31.9839Z" fill="url(#paint24_linear_71_60)"/>
<path id="Vector_29" opacity="0.745098" d="M57.0718 31.5717C56.002 34.4759 54.0954 36.9978 51.5928 38.8187C49.0902 40.6396 46.1041 41.6778 43.0117 41.8022C39.9192 41.9265 36.8593 41.1314 34.2186 39.5173C31.5779 37.9032 29.475 35.5426 28.1754 32.7337C26.8759 29.9248 26.4382 26.7938 26.9175 23.7362C27.3968 20.6786 28.7718 17.8317 30.8685 15.5553C32.9653 13.2788 35.6898 11.675 38.6978 10.9465C41.7057 10.218 44.8621 10.3974 47.7681 11.4621C49.7005 12.1702 51.4744 13.2523 52.9881 14.6465C54.5019 16.0408 55.7258 17.7199 56.59 19.5877C57.4541 21.4555 57.9415 23.4754 58.0242 25.5317C58.1068 27.5881 57.7832 29.6406 57.0718 31.5717Z" fill="url(#paint25_linear_71_60)"/>
<path id="Vector_30" opacity="0.754902" d="M57.0684 31.1597C56.0352 34.0766 54.1607 36.6218 51.6816 38.4738C49.2026 40.3259 46.2302 41.4016 43.1401 41.5652C40.0499 41.7288 36.9806 40.9728 34.3199 39.3928C31.6592 37.8128 29.5265 35.4797 28.1911 32.6882C26.8557 29.8967 26.3777 26.772 26.8173 23.7089C27.257 20.6459 28.5946 17.7818 30.6612 15.4786C32.7278 13.1753 35.4307 11.5363 38.4284 10.7684C41.4261 10.0006 44.5841 10.1384 47.5035 11.1646C49.4489 11.8431 51.2408 12.8998 52.7759 14.274C54.3111 15.6481 55.5592 17.3124 56.4483 19.171C57.3374 21.0296 57.8499 23.0458 57.9563 25.1034C58.0627 27.1609 57.761 29.2192 57.0684 31.1597Z" fill="url(#paint26_linear_71_60)"/>
<path id="Vector_31" opacity="0.764706" d="M57.1025 30.7473C56.1142 33.6801 54.2787 36.2541 51.828 38.1442C49.3774 40.0342 46.4214 41.1554 43.3338 41.3661C40.2461 41.5768 37.1653 40.8675 34.4806 39.3279C31.7959 37.7883 29.6278 35.4875 28.2502 32.7161C26.8727 29.9448 26.3475 26.8273 26.7411 23.7576C27.1346 20.6879 28.4293 17.8037 30.4614 15.4695C32.4935 13.1353 35.1719 11.4559 38.1582 10.6433C41.1445 9.83081 44.3046 9.92169 47.2392 10.9045C49.1909 11.5581 50.9945 12.5902 52.5468 13.9416C54.0992 15.2931 55.3698 16.9374 56.2859 18.7804C57.202 20.6235 57.7457 22.6291 57.8859 24.6826C58.026 26.736 57.7598 28.7969 57.1025 30.7473Z" fill="url(#paint27_linear_71_60)"/>
<path id="Vector_32" opacity="0.77451" d="M57.1366 30.3354C56.1906 33.2912 54.3893 35.9001 51.9606 37.8321C49.5319 39.7642 46.5848 40.9327 43.492 41.1898C40.3992 41.447 37.2995 40.7812 34.5851 39.2768C31.8707 37.7723 29.6633 35.4967 28.2421 32.7378C26.821 29.9788 26.2499 26.8604 26.601 23.7768C26.9522 20.6933 28.2098 17.7831 30.2149 15.4143C32.22 13.0455 34.8825 11.3245 37.8657 10.4688C40.8489 9.61323 44.0188 9.66143 46.9746 10.6074C48.9401 11.2312 50.7629 12.2372 52.3384 13.5675C53.9139 14.8979 55.2111 16.5265 56.1553 18.3596C57.0996 20.1928 57.6724 22.1944 57.8408 24.2496C58.0092 26.3048 57.7698 28.373 57.1366 30.3354Z" fill="url(#paint28_linear_71_60)"/>
<path id="Vector_33" opacity="0.784314" d="M57.1706 29.923C56.2667 32.9007 54.4998 35.5433 52.0936 37.5165C49.6874 39.4898 46.7499 40.7049 43.6529 41.0082C40.5558 41.3115 37.4384 40.6893 34.6951 39.2204C31.9518 37.7515 29.7058 35.5018 28.2414 32.7561C26.7769 30.0104 26.1599 26.892 26.4682 23.7954C26.7766 20.6989 27.9966 17.7634 29.9737 15.3604C31.9509 12.9574 34.5964 11.1949 37.5756 10.2958C40.5547 9.3968 43.7336 9.40165 46.71 10.3098C48.6866 10.9077 50.5258 11.8899 52.122 13.2001C53.7182 14.5103 55.0402 16.1227 56.012 17.9448C56.9838 19.7669 57.5864 21.7629 57.7852 23.8184C57.984 25.8739 57.7752 27.9484 57.1706 29.923Z" fill="url(#paint29_linear_71_60)"/>
<path id="Vector_34" opacity="0.794118" d="M57.2047 29.5106C56.347 32.5002 54.6223 35.1685 52.2484 37.1781C49.8746 39.1877 46.9582 40.4485 43.868 40.8009C40.7778 41.1534 37.6524 40.5818 34.887 39.1583C32.1216 37.7349 29.8403 35.5235 28.3314 32.8038C26.8225 30.0841 26.1539 26.978 26.4099 23.8783C26.666 20.7786 27.8353 17.8244 29.77 15.3891C31.7047 12.9539 34.318 11.1468 37.2795 10.1965C40.241 9.24614 43.4178 9.19514 46.4083 10.0499C48.3955 10.6179 50.2513 11.572 51.8696 12.8577C53.4879 14.1434 54.837 15.7354 55.8396 17.5427C56.8423 19.35 57.479 21.3373 57.7132 23.3908C57.9474 25.4443 57.7746 27.5239 57.2047 29.5106Z" fill="url(#paint30_linear_71_60)"/>
<path id="Vector_35" opacity="0.803922" d="M57.2387 29.0984C56.4225 32.1077 54.7322 34.8073 52.3817 36.8561C50.0312 38.9048 47.126 40.2106 44.0335 40.6084C40.9409 41.0062 37.7998 40.478 35.0074 39.0907C32.215 37.7035 29.8966 35.5194 28.3454 32.8146C26.7942 30.1098 26.0797 27.0058 26.2925 23.895C26.5052 20.7843 27.6356 17.8064 29.5406 15.338C31.4456 12.8696 34.0397 11.0214 36.995 10.0272C39.9503 9.03306 43.134 8.93746 46.1437 9.75254C48.1427 10.2939 50.0154 11.2238 51.655 12.4891C53.2945 13.7545 54.6687 15.3304 55.699 17.1269C56.7293 18.9235 57.3956 20.9054 57.6598 22.9595C57.924 25.0136 57.7809 27.0996 57.2387 29.0984Z" fill="url(#paint31_linear_71_60)"/>
<path id="Vector_36" opacity="0.813725" d="M57.2727 28.6863C56.5039 31.7178 54.8529 34.4531 52.5287 36.5458C50.2046 38.6386 47.3117 39.9946 44.2165 40.4424C41.1212 40.8902 37.9626 40.4095 35.1407 39.0613C32.3187 37.713 29.9603 35.5578 28.3638 32.8684C26.7674 30.179 26.0048 27.0765 26.1726 23.9535C26.3404 20.8305 27.431 17.8275 29.3064 15.3247C31.1818 12.8218 33.7576 10.9317 36.7077 9.89354C39.6579 8.85539 42.8498 8.7159 45.8792 9.49274C47.8887 10.0029 49.7779 10.9045 51.4385 12.1457C53.0992 13.387 54.4987 14.9436 55.557 16.7264C56.6153 18.5092 57.3115 20.4832 57.606 22.5355C57.9004 24.5877 57.7871 26.6779 57.2727 28.6863Z" fill="url(#paint32_linear_71_60)"/>
<path id="Vector_37" opacity="0.823529" d="M57.3068 28.2738C56.574 31.3108 54.9575 34.0624 52.6616 36.1811C50.3656 38.2998 47.4932 39.6905 44.4073 40.1774C41.3214 40.6644 38.1603 40.2259 35.3235 38.9171C32.4867 37.6084 30.1014 35.4883 28.469 32.8246C26.8366 30.1608 26.0303 27.0731 26.1519 23.9513C26.2736 20.8295 27.3178 17.8139 29.1525 15.2853C30.9873 12.7567 33.5303 10.8286 36.4604 9.74462C39.3904 8.66065 42.576 8.46941 45.6147 9.19507C47.6364 9.67786 49.543 10.5547 51.2253 11.7754C52.9076 12.9961 54.3326 14.5367 55.4187 16.3089C56.5048 18.0811 57.2306 20.0502 57.5546 22.1033C57.8786 24.1564 57.7944 26.2533 57.3068 28.2738Z" fill="url(#paint33_linear_71_60)"/>
<path id="Vector_38" opacity="0.833333" d="M57.3408 27.8616C56.6481 30.9151 55.0661 33.6949 52.7945 35.8498C50.5229 38.0047 47.6637 39.4381 44.5779 39.969C41.4922 40.4998 38.3183 40.1044 35.4572 38.8325C32.596 37.5606 30.176 35.4694 28.5026 32.823C26.8293 30.1765 25.9778 27.0936 26.0555 23.9634C26.1333 20.8333 27.137 17.7964 28.9397 15.2364C30.7424 12.6763 33.2633 10.7079 36.1841 9.5797C39.1049 8.45151 42.2945 8.21417 45.35 8.89767C47.3841 9.35266 49.3084 10.2046 51.0126 11.4046C52.7168 12.6047 54.1674 14.1293 55.2814 15.891C56.3953 17.6527 57.1506 19.6169 57.504 21.6711C57.8574 23.7252 57.8019 25.8289 57.3408 27.8616Z" fill="url(#paint34_linear_71_60)"/>
<path id="Vector_39" opacity="0.843137" d="M57.3749 27.4496C56.7285 30.522 55.1859 33.3338 52.9418 35.5297C50.6978 37.7256 47.8531 39.207 44.7674 39.7865C41.6817 40.3661 38.4934 40.0179 35.6055 38.7859C32.7176 37.5539 30.2598 35.4934 28.5427 32.8649C26.8255 30.2364 25.9262 27.1578 25.9583 24.0183C25.9904 20.8788 26.9525 17.8193 28.723 15.2264C30.4935 12.6335 32.9929 10.6237 35.9054 9.45103C38.8178 8.27833 42.0125 7.99535 45.0858 8.63788C47.1285 9.06496 49.067 9.89051 50.7905 11.0673C52.5139 12.2442 53.9885 13.7492 55.1298 15.4963C56.2712 17.2434 57.0569 19.1984 57.4422 21.2495C57.8274 23.3005 57.8045 25.4074 57.3749 27.4496Z" fill="url(#paint35_linear_71_60)"/>
<path id="Vector_40" opacity="0.852941" d="M57.4089 27.0375C56.807 30.1362 55.2994 32.9868 53.0767 35.2284C50.8541 37.47 48.0165 39.0018 44.9229 39.63C41.8294 40.2583 38.619 39.9546 35.6981 38.7576C32.7771 37.5605 30.277 35.5238 28.514 32.9053C26.7511 30.2867 25.8046 27.2041 25.7943 24.0474C25.784 20.8907 26.7105 17.8019 28.4563 15.172C30.2022 12.542 32.6891 10.4891 35.6021 9.27306C38.5152 8.05701 41.7236 7.73249 44.8211 8.34058C46.8766 8.73907 48.8333 9.53923 50.5791 10.6952C52.3248 11.8511 53.8254 13.3402 54.9947 15.077C56.164 16.8138 56.9792 18.7643 57.3935 20.8167C57.8077 22.8691 57.813 24.983 57.4089 27.0375Z" fill="url(#paint36_linear_71_60)"/>
<path id="Vector_41" opacity="0.862745" d="M57.4056 26.6255C56.8356 29.727 55.3591 32.5901 53.1628 34.853C50.9664 37.1159 48.1487 38.6771 45.0655 39.3395C41.9823 40.0018 38.772 39.7356 35.84 38.5743C32.9081 37.4131 30.3861 35.409 28.5925 32.8151C26.799 30.2213 25.8144 27.1541 25.7631 24.001C25.7119 20.8479 26.5962 17.7503 28.3045 15.0995C30.0127 12.4488 32.4683 10.3637 35.3609 9.10778C38.2535 7.85184 41.4535 7.48135 44.5566 8.0431C46.6239 8.4123 48.5978 9.18699 50.3644 10.3225C52.131 11.458 53.6554 12.9319 54.8498 14.6592C56.0442 16.3866 56.8849 18.3332 57.3236 20.3869C57.7622 22.4407 57.7901 24.5609 57.4056 26.6255Z" fill="url(#paint37_linear_71_60)"/>
<path id="Vector_42" opacity="0.872549" d="M57.4396 26.2132C56.9146 29.3306 55.4775 32.2225 53.3097 34.5234C51.1419 36.8244 48.3407 38.4312 45.2601 39.1409C42.1795 39.8505 38.9576 39.6311 36.0016 38.5105C33.0456 37.3898 30.4881 35.4181 28.6522 32.8445C26.8163 30.271 25.7844 27.211 25.6869 24.0512C25.5894 20.8914 26.4306 17.7736 28.1043 15.0917C29.778 12.4098 32.209 10.2841 35.0903 8.98326C37.9715 7.68242 41.1737 7.26476 44.2922 7.78306C46.3666 8.12783 48.3526 8.87835 50.1366 9.99166C51.9206 11.105 53.4674 12.5592 54.6886 14.2711C55.9099 15.983 56.7814 17.919 57.2535 19.9682C57.7255 22.0173 57.7888 24.1395 57.4396 26.2132Z" fill="url(#paint38_linear_71_60)"/>
<path id="Vector_43" opacity="0.882353" d="M57.4737 25.801C56.9922 28.9418 55.5901 31.8694 53.4447 34.2133C51.2994 36.5573 48.5071 38.2125 45.4211 38.9696C42.335 39.7267 39.0938 39.5516 36.1072 38.4666C33.1207 37.3816 30.5229 35.4353 28.6425 32.8739C26.7621 30.3125 25.6834 27.251 25.5429 24.0766C25.4024 20.9021 26.2064 17.7573 27.8532 15.0398C29.5 12.3223 31.9157 10.1541 34.7947 8.80951C37.6737 7.4649 40.8868 7.0042 44.0277 7.48569C46.1174 7.79601 48.125 8.51734 49.9343 9.608C51.7437 10.6987 53.319 12.137 54.5692 13.84C55.8194 15.543 56.7198 17.4769 57.2184 19.5299C57.7169 21.5828 57.8037 23.7143 57.4737 25.801Z" fill="url(#paint39_linear_71_60)"/>
<path id="Vector_44" opacity="0.892157" d="M57.5077 25.3886C57.0704 28.5432 55.7074 31.4972 53.5913 33.8773C51.4751 36.2573 48.7008 37.9565 45.619 38.7599C42.5373 39.5632 39.2865 39.4348 36.2777 38.3908C33.2689 37.3467 30.6373 35.434 28.7155 32.8944C26.7938 30.3548 25.6682 27.3024 25.4811 24.1232C25.294 20.9439 26.0538 17.7806 27.6644 15.0331C29.2751 12.2856 31.6642 10.0774 34.5298 8.68772C37.3953 7.29801 40.6086 6.78916 43.7633 7.22555C45.8606 7.51067 47.8808 8.20738 49.708 9.27566C51.5352 10.3439 53.1333 11.7627 54.4104 13.4505C55.6876 15.1383 56.6187 17.0618 57.1502 19.1105C57.6818 21.1592 57.8032 23.2928 57.5077 25.3886Z" fill="url(#paint40_linear_71_60)"/>
<path id="Vector_45" opacity="0.901961" d="M57.5418 24.9762C57.147 28.1523 55.8191 31.1399 53.7261 33.5611C51.633 35.9824 48.8689 37.7284 45.7833 38.5783C42.6978 39.4283 39.4294 39.3439 36.3918 38.336C33.3542 37.3281 30.6837 35.4418 28.7183 32.9159C26.7529 30.3899 25.5809 27.3378 25.3505 24.1456C25.1201 20.9534 25.8416 17.7646 27.4239 14.9826C29.0061 12.2006 31.378 9.95038 34.2393 8.51664C37.1007 7.08289 40.3231 6.53005 43.4987 6.92804C45.6074 7.18734 47.6442 7.86039 49.4921 8.90859C51.3401 9.95678 52.963 11.3595 54.2677 13.0363C55.5724 14.7131 56.5332 16.6309 57.095 18.6799C57.6569 20.7288 57.8087 22.8685 57.5418 24.9762Z" fill="url(#paint41_linear_71_60)"/>
<path id="Vector_46" opacity="0.911765" d="M57.5759 24.564C57.2234 27.7606 55.9305 30.7807 53.8608 33.2422C51.7912 35.7037 49.0378 37.4959 45.9492 38.392C42.8606 39.2881 39.5756 39.2477 36.5099 38.2761C33.4442 37.3044 30.7357 35.4451 28.7271 32.9335C26.7186 30.422 25.5002 27.3709 25.2263 24.1667C24.9524 20.9624 25.6352 17.7489 27.1884 14.9328C28.7416 12.1168 31.0952 9.82475 33.9515 8.34688C36.8078 6.86901 40.0383 6.27171 43.2342 6.63057C45.3545 6.8637 47.408 7.51286 49.277 8.54089C51.146 9.56891 52.7938 10.9556 54.1261 12.6215C55.4583 14.2874 56.4488 16.1997 57.0408 18.249C57.6328 20.2983 57.8146 22.4443 57.5759 24.564Z" fill="url(#paint42_linear_71_60)"/>
<path id="Vector_47" opacity="0.921569" d="M57.6099 24.1518C57.3 27.3592 56.0459 30.4027 54.0061 32.8973C51.9663 35.3918 49.2325 37.2254 46.1505 38.1662C43.0685 39.1069 39.7768 39.1124 36.6916 38.1821C33.6064 37.2519 30.8665 35.4275 28.8183 32.9398C26.7701 30.4522 25.5056 27.413 25.1849 24.2066C24.8641 21.0002 25.5015 17.7708 27.0163 14.9267C28.5312 12.0826 30.8555 9.75163 33.6952 8.22865C36.535 6.70567 39.7626 6.05907 42.9699 6.37064C47.2687 6.78826 51.2258 8.89592 53.9711 12.2303C56.7165 15.5646 58.0253 19.8527 57.6099 24.1518Z" fill="url(#paint43_linear_71_60)"/>
<path id="Vector_48" opacity="0.931373" d="M57.644 23.7397C57.3754 26.9659 56.1559 30.0399 54.1399 32.5729C52.1239 35.1059 49.402 36.9842 46.3184 37.97C43.2348 38.9558 39.9281 39.0049 36.8165 38.1111C33.705 37.2173 30.9285 35.4208 28.8381 32.9488C26.7478 30.4768 25.4376 27.4404 25.0732 24.2236C24.7088 21.0068 25.3066 17.7542 26.7911 14.8773C28.2755 12.0003 30.5799 9.62828 33.4126 8.06117C36.2454 6.49405 39.4793 5.80229 42.7053 6.07339C47.0283 6.43668 51.0303 8.50159 53.8315 11.8143C56.6327 15.127 58.004 19.4164 57.644 23.7397Z" fill="url(#paint44_linear_71_60)"/>
<path id="Vector_49" opacity="0.941176" d="M57.6781 23.3274C57.4509 26.5701 56.2675 29.6726 54.2775 32.2429C52.2875 34.8132 49.5802 36.7359 46.4978 37.768C43.4154 38.8001 40.0962 38.8953 36.9597 38.0415C33.8232 37.1877 31.0102 35.4233 28.8762 32.9713C26.7421 30.5193 25.3829 27.4896 24.9702 24.2653C24.5576 21.041 25.11 17.7667 26.5577 14.8563C28.0053 11.9458 30.2833 9.52983 33.1037 7.91365C35.9241 6.29748 39.1602 5.55366 42.4032 5.77619C44.5592 5.92413 46.6648 6.49565 48.5997 7.45807C50.5345 8.42049 52.2607 9.75492 53.6794 11.385C55.098 13.0151 56.1814 14.9089 56.8676 16.9581C57.5537 19.0073 57.8291 21.1717 57.6781 23.3274Z" fill="url(#paint45_linear_71_60)"/>
<path id="Vector_50" opacity="0.95098" d="M57.7121 22.915C57.5323 26.1768 56.3892 29.3121 54.4273 31.9242C52.4655 34.5363 49.773 36.5079 46.6905 37.5897C43.608 38.6714 40.274 38.8147 37.11 38.0014C33.9461 37.1881 31.0944 35.4548 28.9157 33.0206C26.737 30.5865 25.3291 27.5609 24.8701 24.3265C24.4111 21.0921 24.9216 17.7942 26.337 14.85C27.7525 11.9058 30.0093 9.44748 32.8221 7.78602C35.6348 6.12456 38.8771 5.33459 42.1389 5.51602C44.3053 5.63158 46.4276 6.17382 48.384 7.11163C50.3404 8.04944 52.0923 9.36437 53.5392 10.9809C54.9862 12.5975 56.0996 14.4839 56.8157 16.5318C57.5318 18.5798 57.8364 20.749 57.7121 22.915Z" fill="url(#paint46_linear_71_60)"/>
<path id="Vector_51" opacity="0.960784" d="M57.7461 22.5027C57.606 25.7808 56.497 28.9436 54.5594 31.5914C52.6218 34.2392 49.9426 36.2531 46.8605 37.3783C43.7785 38.5035 40.432 38.6896 37.2442 37.913C34.0564 37.1364 31.1704 35.432 28.9512 33.0153C26.732 30.5987 25.2792 27.5782 24.7765 24.3359C24.2738 21.0936 24.7437 17.7751 26.127 14.7999C27.5102 11.8247 29.7445 9.32641 32.5475 7.62097C35.3505 5.91554 38.5962 5.07951 41.8743 5.21861C44.0514 5.31099 46.1891 5.83138 48.1651 6.75006C50.1411 7.66873 51.9168 8.9677 53.3907 10.5728C54.8646 12.1778 56.0079 14.0575 56.7552 16.1045C57.5025 18.1515 57.8392 20.3256 57.7461 22.5027Z" fill="url(#paint47_linear_71_60)"/>
<path id="Vector_52" opacity="0.970588" d="M57.7802 22.0907C57.6865 25.3861 56.6175 28.5796 54.7085 31.2673C52.7994 33.9551 50.1362 36.0162 47.0555 37.19C43.9749 38.3638 40.6153 38.5976 37.4018 37.8617C34.1883 37.1259 31.2652 35.4535 29.0024 33.056C26.7395 30.6586 25.2385 27.6439 24.6893 24.3933C24.1401 21.1426 24.5674 17.8022 25.917 14.7944C27.2666 11.7866 29.478 9.24671 32.2714 7.49596C35.0648 5.74521 38.3147 4.86229 41.61 4.95888C46.0221 5.09809 50.1998 6.97827 53.2298 10.1885C56.2598 13.3987 57.8958 17.6779 57.7802 22.0907Z" fill="url(#paint48_linear_71_60)"/>
<path id="Vector_53" opacity="0.980392" d="M57.7768 21.6787C57.7214 24.9903 56.6849 28.2109 54.7985 30.9332C52.9121 33.6555 50.2606 35.7571 47.1794 36.972C44.0983 38.1869 40.726 38.4605 37.4893 37.7582C34.2526 37.0559 31.297 35.4092 28.9964 33.0266C26.6958 30.644 25.1537 27.6325 24.5652 24.3732C23.9767 21.1139 24.3683 17.7533 25.6903 14.7166C27.0124 11.6799 29.2055 9.10357 31.9922 7.31367C34.7789 5.52378 38.0339 4.60074 41.3454 4.66135C45.7798 4.74252 50.0008 6.58015 53.0816 9.77075C56.1623 12.9614 57.851 17.2441 57.7768 21.6787Z" fill="url(#paint49_linear_71_60)"/>
<path id="Vector_54" opacity="0.990196" d="M57.8109 21.2664C57.7936 24.5919 56.7905 27.8376 54.9286 30.5931C53.0666 33.3486 50.4295 35.4901 47.3505 36.7468C44.2715 38.0035 40.889 38.3191 37.6308 37.6535C34.3725 36.9879 31.3847 35.3711 29.0452 33.0076C26.7058 30.644 25.1197 27.6398 24.4876 24.3749C23.8555 21.1099 24.2057 17.7309 25.4939 14.6649C26.7822 11.599 28.9506 8.98392 31.725 7.15035C34.4994 5.31677 37.7553 4.34706 41.0808 4.36381C43.2906 4.37001 45.4774 4.81268 47.5157 5.66644C49.5539 6.52019 51.4034 7.76819 52.958 9.33877C54.5125 10.9093 55.7415 12.7715 56.5743 14.8184C57.4071 16.8653 57.8274 19.0566 57.8109 21.2664Z" fill="url(#paint50_linear_71_60)"/>
<path id="Vector_55" d="M40.8165 4.10377C44.1569 4.07626 47.4305 5.03992 50.2232 6.87287C53.0159 8.70583 55.2024 11.3258 56.5061 14.4014C57.8099 17.477 58.1723 20.8701 57.5476 24.1517C56.9229 27.4333 55.3391 30.4559 52.9965 32.8374C50.654 35.2189 47.6578 36.8522 44.387 37.5309C41.1161 38.2095 37.7175 37.903 34.6208 36.6501C31.5242 35.3972 28.8686 33.2542 26.9899 30.492C25.1112 27.7299 24.0937 24.4726 24.0662 21.1322C24.0293 16.6529 25.7734 12.3424 28.9147 9.1489C32.056 5.95545 36.3372 4.14065 40.8165 4.10377Z" fill="#ACB1BC"/>
</g>
<path id="Vector_56" d="M40.7841 0.17179C44.9037 0.130455 48.9431 1.31214 52.3909 3.56728C55.8387 5.82243 58.54 9.04967 60.153 12.8406C61.766 16.6316 62.2181 20.8158 61.4523 24.8638C60.6864 28.9118 58.7369 32.6417 55.8504 35.5813C52.964 38.521 49.2704 40.5383 45.237 41.378C41.2037 42.2177 37.0119 41.8421 33.1921 40.2986C29.3723 38.7551 26.0963 36.1132 23.7785 32.7072C21.4608 29.3012 20.2055 25.2841 20.1715 21.1644C20.1261 15.6487 22.2711 10.3403 26.1356 6.40454C30.0002 2.46874 35.2685 0.227134 40.7841 0.17179Z" fill="#183B59"/>
<path id="Vector_57" d="M40.8165 4.10377C44.1569 4.07626 47.4305 5.03992 50.2232 6.87287C53.0159 8.70583 55.2024 11.3258 56.5061 14.4014C57.8099 17.477 58.1723 20.8701 57.5476 24.1517C56.9229 27.4333 55.3391 30.4559 52.9965 32.8374C50.654 35.2189 47.6578 36.8522 44.387 37.5309C41.1161 38.2095 37.7175 37.903 34.6208 36.6501C31.5242 35.3972 28.8686 33.2542 26.9899 30.492C25.1112 27.7299 24.0937 24.4726 24.0662 21.1322C24.0293 16.6529 25.7734 12.3424 28.9147 9.1489C32.056 5.95545 36.3372 4.14065 40.8165 4.10377Z" fill="url(#paint51_linear_71_60)"/>
<path id="Vector_58" d="M40.8303 5.78904C43.8389 5.75686 46.7895 6.61802 49.3084 8.26354C51.8274 9.90905 53.8015 12.2649 54.9809 15.0329C56.1603 17.801 56.4919 20.8567 55.9338 23.8132C55.3757 26.7698 53.9529 29.4943 51.8456 31.6419C49.7383 33.7895 47.0412 35.2636 44.0957 35.8776C41.1502 36.4916 38.0888 36.2179 35.299 35.0911C32.5091 33.9644 30.1163 32.0352 28.4234 29.5479C26.7304 27.0605 25.8136 24.1268 25.7888 21.1181C25.7674 19.1233 26.1398 17.1438 26.8846 15.2932C27.6294 13.4425 28.732 11.7569 30.1292 10.3329C31.5265 8.90901 33.1909 7.7747 35.0271 6.99499C36.8634 6.21528 38.8354 5.80547 40.8303 5.78904Z" fill="url(#paint52_linear_71_60)"/>
</g>
</g>
<defs>
<linearGradient id="paint0_linear_71_60" x1="29.0293" y1="15.9254" x2="54.343" y2="37.5453" gradientUnits="userSpaceOnUse">
<stop stop-color="#183B59"/>
<stop offset="1" stop-color="white" stop-opacity="0"/>
</linearGradient>
<linearGradient id="paint1_linear_71_60" x1="30.5788" y1="18.601" x2="55.9975" y2="39.6502" gradientUnits="userSpaceOnUse">
<stop stop-color="#1B3D5B"/>
<stop offset="1" stop-color="#FDFDFE" stop-opacity="0.02"/>
</linearGradient>
<linearGradient id="paint2_linear_71_60" x1="27.7642" y1="19.5938" x2="53.517" y2="40.0594" gradientUnits="userSpaceOnUse">
<stop stop-color="#1E405D"/>
<stop offset="1" stop-color="#FCFCFC" stop-opacity="0.04"/>
</linearGradient>
<linearGradient id="paint3_linear_71_60" x1="32.0239" y1="19.2217" x2="57.8432" y2="39.2435" gradientUnits="userSpaceOnUse">
<stop stop-color="#21425F"/>
<stop offset="1" stop-color="#FAFAFB" stop-opacity="0.06"/>
</linearGradient>
<linearGradient id="paint4_linear_71_60" x1="29.0668" y1="16.0822" x2="55.3335" y2="35.6317" gradientUnits="userSpaceOnUse">
<stop stop-color="#244461"/>
<stop offset="1" stop-color="#F8F9FA" stop-opacity="0.08"/>
</linearGradient>
<linearGradient id="paint5_linear_71_60" x1="30.8724" y1="21.2898" x2="57.2465" y2="40.0524" gradientUnits="userSpaceOnUse">
<stop stop-color="#274763"/>
<stop offset="1" stop-color="#F7F7F8" stop-opacity="0.1"/>
</linearGradient>
<linearGradient id="paint6_linear_71_60" x1="27.3735" y1="20.0196" x2="54.2259" y2="38.132" gradientUnits="userSpaceOnUse">
<stop stop-color="#294965"/>
<stop offset="1" stop-color="#F5F6F7" stop-opacity="0.12"/>
</linearGradient>
<linearGradient id="paint7_linear_71_60" x1="31.9332" y1="20.1455" x2="58.9039" y2="37.67" gradientUnits="userSpaceOnUse">
<stop stop-color="#2C4B67"/>
<stop offset="1" stop-color="#F4F4F6" stop-opacity="0.14"/>
</linearGradient>
<linearGradient id="paint8_linear_71_60" x1="29.161" y1="21.253" x2="56.5676" y2="37.9349" gradientUnits="userSpaceOnUse">
<stop stop-color="#2F4E69"/>
<stop offset="1" stop-color="#F2F3F4" stop-opacity="0.16"/>
</linearGradient>
<linearGradient id="paint9_linear_71_60" x1="29.847" y1="21.4606" x2="57.578" y2="37.3604" gradientUnits="userSpaceOnUse">
<stop stop-color="#32506A"/>
<stop offset="1" stop-color="#F0F1F3" stop-opacity="0.18"/>
</linearGradient>
<linearGradient id="paint10_linear_71_60" x1="26.8475" y1="20.8701" x2="55.1025" y2="35.8562" gradientUnits="userSpaceOnUse">
<stop stop-color="#35526C"/>
<stop offset="1" stop-color="#EFF0F2" stop-opacity="0.2"/>
</linearGradient>
<linearGradient id="paint11_linear_71_60" x1="30.2991" y1="24.5649" x2="58.6884" y2="38.5515" gradientUnits="userSpaceOnUse">
<stop stop-color="#38546E"/>
<stop offset="1" stop-color="#EDEEF1" stop-opacity="0.22"/>
</linearGradient>
<linearGradient id="paint12_linear_71_60" x1="29.2243" y1="17.7897" x2="58.2731" y2="31.0225" gradientUnits="userSpaceOnUse">
<stop stop-color="#3B5770"/>
<stop offset="1" stop-color="#EBEDEF" stop-opacity="0.24"/>
</linearGradient>
<linearGradient id="paint13_linear_71_60" x1="27.9909" y1="22.0839" x2="57.3717" y2="33.9713" gradientUnits="userSpaceOnUse">
<stop stop-color="#3E5972"/>
<stop offset="1" stop-color="#EAEBEE" stop-opacity="0.25"/>
</linearGradient>
<linearGradient id="paint14_linear_71_60" x1="29.6811" y1="26.2542" x2="59.2482" y2="36.799" gradientUnits="userSpaceOnUse">
<stop stop-color="#415B74"/>
<stop offset="1" stop-color="#E8EAED" stop-opacity="0.27"/>
</linearGradient>
<linearGradient id="paint15_linear_71_60" x1="27.3132" y1="22.9515" x2="57.5104" y2="32.1999" gradientUnits="userSpaceOnUse">
<stop stop-color="#445E76"/>
<stop offset="1" stop-color="#E7E8EB" stop-opacity="0.29"/>
</linearGradient>
<linearGradient id="paint16_linear_71_60" x1="25.8125" y1="20.5511" x2="56.5632" y2="28.3483" gradientUnits="userSpaceOnUse">
<stop stop-color="#466078"/>
<stop offset="1" stop-color="#E5E7EA" stop-opacity="0.31"/>
</linearGradient>
<linearGradient id="paint17_linear_71_60" x1="29.3888" y1="28.4261" x2="59.99" y2="34.4454" gradientUnits="userSpaceOnUse">
<stop stop-color="#49627A"/>
<stop offset="1" stop-color="#E3E5E9" stop-opacity="0.33"/>
</linearGradient>
<linearGradient id="paint18_linear_71_60" x1="25.7024" y1="25.0852" x2="56.8898" y2="29.2788" gradientUnits="userSpaceOnUse">
<stop stop-color="#4C657C"/>
<stop offset="1" stop-color="#E2E3E7" stop-opacity="0.35"/>
</linearGradient>
<linearGradient id="paint19_linear_71_60" x1="24.5575" y1="22.4025" x2="56.1365" y2="24.6817" gradientUnits="userSpaceOnUse">
<stop stop-color="#4F677E"/>
<stop offset="1" stop-color="#E0E2E6" stop-opacity="0.37"/>
</linearGradient>
<linearGradient id="paint20_linear_71_60" x1="26.9251" y1="26.256" x2="58.3207" y2="26.4358" gradientUnits="userSpaceOnUse">
<stop stop-color="#526980"/>
<stop offset="1" stop-color="#DEE0E5" stop-opacity="0.39"/>
</linearGradient>
<linearGradient id="paint21_linear_71_60" x1="24.6066" y1="23.6012" x2="56.1984" y2="21.4631" gradientUnits="userSpaceOnUse">
<stop stop-color="#556C82"/>
<stop offset="1" stop-color="#DDDFE3" stop-opacity="0.41"/>
</linearGradient>
<linearGradient id="paint22_linear_71_60" x1="25.7728" y1="29.0317" x2="56.7884" y2="24.4433" gradientUnits="userSpaceOnUse">
<stop stop-color="#586E84"/>
<stop offset="1" stop-color="#DBDDE2" stop-opacity="0.43"/>
</linearGradient>
<linearGradient id="paint23_linear_71_60" x1="29.5173" y1="34.3056" x2="59.6987" y2="27.4088" gradientUnits="userSpaceOnUse">
<stop stop-color="#5B7086"/>
<stop offset="1" stop-color="#DADCE1" stop-opacity="0.45"/>
</linearGradient>
<linearGradient id="paint24_linear_71_60" x1="26.8587" y1="29.975" x2="56.7812" y2="20.4417" gradientUnits="userSpaceOnUse">
<stop stop-color="#5E7388"/>
<stop offset="1" stop-color="#D8DADF" stop-opacity="0.47"/>
</linearGradient>
<linearGradient id="paint25_linear_71_60" x1="25.8442" y1="28.4181" x2="55.0638" y2="16.272" gradientUnits="userSpaceOnUse">
<stop stop-color="#61758A"/>
<stop offset="1" stop-color="#D6D9DE" stop-opacity="0.49"/>
</linearGradient>
<linearGradient id="paint26_linear_71_60" x1="26.565" y1="29.5175" x2="54.6544" y2="14.9127" gradientUnits="userSpaceOnUse">
<stop stop-color="#63778B"/>
<stop offset="1" stop-color="#D5D7DD" stop-opacity="0.51"/>
</linearGradient>
<linearGradient id="paint27_linear_71_60" x1="28.3887" y1="33.1427" x2="54.9526" y2="16.3031" gradientUnits="userSpaceOnUse">
<stop stop-color="#66798D"/>
<stop offset="1" stop-color="#D3D6DC" stop-opacity="0.53"/>
</linearGradient>
<linearGradient id="paint28_linear_71_60" x1="31.1568" y1="38.8427" x2="55.8863" y2="20.0912" gradientUnits="userSpaceOnUse">
<stop stop-color="#697C8F"/>
<stop offset="1" stop-color="#D1D4DA" stop-opacity="0.55"/>
</linearGradient>
<linearGradient id="paint29_linear_71_60" x1="31.4654" y1="38.5623" x2="54.7036" y2="17.8055" gradientUnits="userSpaceOnUse">
<stop stop-color="#6C7E91"/>
<stop offset="1" stop-color="#D0D3D9" stop-opacity="0.57"/>
</linearGradient>
<linearGradient id="paint30_linear_71_60" x1="29.8134" y1="36.8473" x2="51.5347" y2="14.0527" gradientUnits="userSpaceOnUse">
<stop stop-color="#6F8093"/>
<stop offset="1" stop-color="#CED1D8" stop-opacity="0.59"/>
</linearGradient>
<linearGradient id="paint31_linear_71_60" x1="33.738" y1="35.0643" x2="54.1254" y2="10.8787" gradientUnits="userSpaceOnUse">
<stop stop-color="#728395"/>
<stop offset="1" stop-color="#CDD0D6" stop-opacity="0.61"/>
</linearGradient>
<linearGradient id="paint32_linear_71_60" x1="34.1167" y1="39.5378" x2="52.4938" y2="14.1626" gradientUnits="userSpaceOnUse">
<stop stop-color="#758597"/>
<stop offset="1" stop-color="#CBCED5" stop-opacity="0.63"/>
</linearGradient>
<linearGradient id="paint33_linear_71_60" x1="32.6728" y1="34.8706" x2="49.7404" y2="7.83408" gradientUnits="userSpaceOnUse">
<stop stop-color="#788799"/>
<stop offset="1" stop-color="#C9CDD4" stop-opacity="0.65"/>
</linearGradient>
<linearGradient id="paint34_linear_71_60" x1="34.903" y1="40.4709" x2="50.0637" y2="12.9259" gradientUnits="userSpaceOnUse">
<stop stop-color="#7B8A9B"/>
<stop offset="1" stop-color="#C8CBD2" stop-opacity="0.67"/>
</linearGradient>
<linearGradient id="paint35_linear_71_60" x1="36.2261" y1="37.6765" x2="50.2184" y2="9.10614" gradientUnits="userSpaceOnUse">
<stop stop-color="#7E8C9D"/>
<stop offset="1" stop-color="#C6C9D1" stop-opacity="0.69"/>
</linearGradient>
<linearGradient id="paint36_linear_71_60" x1="35.3897" y1="38.3437" x2="47.8166" y2="8.96549" gradientUnits="userSpaceOnUse">
<stop stop-color="#808E9F"/>
<stop offset="1" stop-color="#C4C8D0" stop-opacity="0.71"/>
</linearGradient>
<linearGradient id="paint37_linear_71_60" x1="36.5467" y1="40.2534" x2="47.5711" y2="10.4955" gradientUnits="userSpaceOnUse">
<stop stop-color="#8391A1"/>
<stop offset="1" stop-color="#C3C6CE" stop-opacity="0.73"/>
</linearGradient>
<linearGradient id="paint38_linear_71_60" x1="36.5769" y1="38.6121" x2="46.4479" y2="8.10235" gradientUnits="userSpaceOnUse">
<stop stop-color="#8693A3"/>
<stop offset="1" stop-color="#C1C5CD" stop-opacity="0.75"/>
</linearGradient>
<linearGradient id="paint39_linear_71_60" x1="36.7932" y1="37.4999" x2="45.5591" y2="6.37306" gradientUnits="userSpaceOnUse">
<stop stop-color="#8995A5"/>
<stop offset="1" stop-color="#C0C3CC" stop-opacity="0.76"/>
</linearGradient>
<linearGradient id="paint40_linear_71_60" x1="37.8624" y1="39.8844" x2="45.4744" y2="8.72545" gradientUnits="userSpaceOnUse">
<stop stop-color="#8C98A7"/>
<stop offset="1" stop-color="#BEC2CA" stop-opacity="0.78"/>
</linearGradient>
<linearGradient id="paint41_linear_71_60" x1="38.1592" y1="37.421" x2="44.9138" y2="5.55477" gradientUnits="userSpaceOnUse">
<stop stop-color="#8F9AA9"/>
<stop offset="1" stop-color="#BCC0C9" stop-opacity="0.8"/>
</linearGradient>
<linearGradient id="paint42_linear_71_60" x1="38.6776" y1="38.8489" x2="44.4394" y2="6.91606" gradientUnits="userSpaceOnUse">
<stop stop-color="#929CAB"/>
<stop offset="1" stop-color="#BBBFC8" stop-opacity="0.82"/>
</linearGradient>
<linearGradient id="paint43_linear_71_60" x1="38.9766" y1="38.6419" x2="43.8674" y2="6.40974" gradientUnits="userSpaceOnUse">
<stop stop-color="#959EAC"/>
<stop offset="1" stop-color="#B9BDC7" stop-opacity="0.84"/>
</linearGradient>
<linearGradient id="paint44_linear_71_60" x1="39.1847" y1="38.5854" x2="43.2463" y2="6.1075" gradientUnits="userSpaceOnUse">
<stop stop-color="#98A1AE"/>
<stop offset="1" stop-color="#B7BCC5" stop-opacity="0.86"/>
</linearGradient>
<linearGradient id="paint45_linear_71_60" x1="39.6203" y1="38.5556" x2="42.956" y2="5.87617" gradientUnits="userSpaceOnUse">
<stop stop-color="#9BA3B0"/>
<stop offset="1" stop-color="#B6BAC4" stop-opacity="0.88"/>
</linearGradient>
<linearGradient id="paint46_linear_71_60" x1="40.0101" y1="38.6213" x2="42.6694" y2="5.77028" gradientUnits="userSpaceOnUse">
<stop stop-color="#9DA5B2"/>
<stop offset="1" stop-color="#B4B9C3" stop-opacity="0.9"/>
</linearGradient>
<linearGradient id="paint47_linear_71_60" x1="40.297" y1="38.3633" x2="42.3049" y2="5.28199" gradientUnits="userSpaceOnUse">
<stop stop-color="#A0A8B4"/>
<stop offset="1" stop-color="#B3B7C1" stop-opacity="0.92"/>
</linearGradient>
<linearGradient id="paint48_linear_71_60" x1="40.2674" y1="38.7262" x2="41.6145" y2="5.5912" gradientUnits="userSpaceOnUse">
<stop stop-color="#A3AAB6"/>
<stop offset="1" stop-color="#B1B6C0" stop-opacity="0.94"/>
</linearGradient>
<linearGradient id="paint49_linear_71_60" x1="40.8966" y1="37.5438" x2="41.6926" y2="3.91721" gradientUnits="userSpaceOnUse">
<stop stop-color="#A6ACB8"/>
<stop offset="1" stop-color="#AFB4BF" stop-opacity="0.96"/>
</linearGradient>
<linearGradient id="paint50_linear_71_60" x1="41.0526" y1="37.7944" x2="41.3045" y2="4.09166" gradientUnits="userSpaceOnUse">
<stop stop-color="#A9AFBA"/>
<stop offset="1" stop-color="#AEB3BD" stop-opacity="0.98"/>
</linearGradient>
<linearGradient id="paint51_linear_71_60" x1="41.0984" y1="37.8825" x2="40.8202" y2="4.0925" gradientUnits="userSpaceOnUse">
<stop stop-color="#DCDDDE"/>
<stop offset="1" stop-color="white"/>
</linearGradient>
<linearGradient id="paint52_linear_71_60" x1="41.0842" y1="36.1674" x2="40.8342" y2="5.80774" gradientUnits="userSpaceOnUse">
<stop stop-color="white"/>
<stop offset="1" stop-color="#DCDDDE"/>
</linearGradient>
</defs>
</svg>
