<svg width="69" height="79" viewBox="0 0 69 79" fill="none" xmlns="http://www.w3.org/2000/svg">
<ellipse cx="19.5" cy="74.5" rx="18.5" ry="4.5" fill="#3F8CFF"/>
<path fill-rule="evenodd" clip-rule="evenodd" d="M9.85547 44.78L13.1347 44.0728L19.5325 74.1648C19.4039 74.7756 16.414 74.8721 16.1568 74.3577L9.85547 44.78Z" fill="url(#paint0_linear_2_485)"/>
<path fill-rule="evenodd" clip-rule="evenodd" d="M4.35779 10.8622C6.9619 10.3157 8.95518 10.7658 9.18023 11.7946L15.8352 43.1083C16.0602 44.1371 14.4206 45.3909 11.8165 45.9374C9.21238 46.484 6.89761 46.0982 6.67256 45.0694L0.0175913 13.7557C-0.207456 12.7269 1.75367 11.4088 4.35779 10.8622Z" fill="url(#paint1_linear_2_485)"/>
<path fill-rule="evenodd" clip-rule="evenodd" d="M9.34106 12.4697L61.6163 1.34594C61.8289 1.30394 62.0491 1.32421 62.2504 1.40431C62.4517 1.48441 62.6256 1.62093 62.7513 1.79748C62.8769 1.97402 62.9488 2.18308 62.9585 2.39954C62.9682 2.61601 62.9152 2.83066 62.8058 3.01772L53.9647 18.3852C53.8248 18.6276 53.7802 18.9134 53.8397 19.1868C53.8991 19.4602 54.0583 19.7017 54.2862 19.8641L68.4963 29.9912C68.6769 30.1171 68.8166 30.2932 68.8981 30.4977C68.9796 30.7022 68.9993 30.9261 68.9548 31.1417C68.9103 31.3573 68.8036 31.5551 68.6478 31.7106C68.492 31.8661 68.294 31.9725 68.0784 32.0167L15.8353 43.1083L9.34106 12.4697Z" fill="url(#paint2_linear_2_485)"/>
<path fill-rule="evenodd" clip-rule="evenodd" d="M4.35779 10.8622C6.38321 10.4443 8.21574 10.5729 9.05163 11.1516L61.3269 0.0278222C61.4726 -0.0052014 61.6235 -0.00886708 61.7706 0.0170396C61.9178 0.0429463 62.0583 0.0979044 62.184 0.17871C62.3097 0.259515 62.4181 0.364547 62.5027 0.487677C62.5874 0.610806 62.6467 0.749568 62.6772 0.89586L62.9344 2.14969C62.8658 1.86852 62.6885 1.626 62.4414 1.47533C62.1944 1.32466 61.8976 1.27813 61.6162 1.34595L9.34097 12.4697C8.82658 13.3056 7.18695 14.2058 5.16153 14.6237C2.52526 15.2024 0.242639 14.7845 0.0175913 13.7557C-0.207456 12.7269 1.75367 11.4088 4.35779 10.8622ZM53.9003 18.4817L53.9968 18.546L68.239 28.6731C68.47 28.8602 68.6291 29.1215 68.6891 29.4126L68.9463 30.6342C68.8734 30.3752 68.7147 30.1485 68.4962 29.9912L54.2861 19.8641C54.0709 19.7147 53.9146 19.4948 53.8442 19.2424C53.7738 18.99 53.7936 18.721 53.9003 18.4817Z" fill="#0C6ED6"/>
<path fill-rule="evenodd" clip-rule="evenodd" d="M4.39003 11.0873C6.54405 10.6372 8.47303 10.9265 8.63378 11.7624C8.79453 12.5983 7.18705 13.6271 5.03302 14.1093C2.879 14.5916 0.950018 14.2701 0.757121 13.4342C0.564223 12.5983 2.20386 11.5695 4.39003 11.0873Z" fill="#0A346B"/>
<path fill-rule="evenodd" clip-rule="evenodd" d="M9.34106 12.4697L61.6163 1.34594C61.8208 1.30254 62.0334 1.31698 62.2302 1.38763C62.4269 1.45828 62.6001 1.58235 62.7303 1.74593C62.8605 1.90951 62.9426 2.10612 62.9673 2.31373C62.992 2.52133 62.9583 2.73171 62.8701 2.92127C62.92 2.73301 62.9202 2.53503 62.8707 2.34668C62.8211 2.15834 62.7235 1.98608 62.5874 1.84675C62.4513 1.70743 62.2814 1.60582 62.0943 1.55184C61.9072 1.49787 61.7092 1.49339 61.5199 1.53884L9.53396 12.5983L16.0282 43.0761H15.8353L9.34106 12.4697ZM53.8361 18.6424C53.7702 18.8674 53.7784 19.1076 53.8594 19.3276C53.9405 19.5476 54.0901 19.7357 54.2862 19.8641L68.4963 29.9912C68.7245 30.1373 68.8903 30.3629 68.9616 30.6242C69.0329 30.8856 69.0045 31.1641 68.8821 31.4058C68.943 31.1806 68.9323 30.9421 68.8517 30.7233C68.7711 30.5044 68.6244 30.316 68.432 30.1841L54.1898 20.057C53.9775 19.8975 53.8265 19.67 53.7622 19.4124C53.6978 19.1549 53.7239 18.883 53.8361 18.6424Z" fill="#6299E1"/>
<path fill-rule="evenodd" clip-rule="evenodd" d="M4.64703 14.045C3.29675 14.3344 2.58945 14.2379 1.81786 14.0129C1.65532 13.9846 1.5069 13.9028 1.39621 13.7805C1.28552 13.6581 1.21893 13.5023 1.20702 13.3378C1.01412 11.6981 2.17151 10.5729 3.84329 10.2192C5.51507 9.8656 7.0261 10.4121 7.54049 11.9875C7.58878 12.1492 7.58698 12.3217 7.53533 12.4824C7.48369 12.6431 7.38461 12.7844 7.25114 12.8877C6.6403 13.4021 6.02946 13.7557 4.64703 14.045Z" fill="url(#paint3_radial_2_485)"/>
<defs>
<linearGradient id="paint0_linear_2_485" x1="12.1327" y1="60.0065" x2="15.4335" y2="59.3087" gradientUnits="userSpaceOnUse">
<stop stop-color="#808285"/>
<stop offset="0.24" stop-color="white"/>
<stop offset="0.47" stop-color="#808285"/>
<stop offset="0.74" stop-color="#E7E7E7"/>
<stop offset="1" stop-color="#58595B"/>
</linearGradient>
<linearGradient id="paint1_linear_2_485" x1="4.73822" y1="29.1574" x2="13.8516" y2="27.2203" gradientUnits="userSpaceOnUse">
<stop stop-color="#3F8CFF"/>
<stop offset="0.5" stop-color="#60B9A6"/>
<stop offset="1" stop-color="#183B59"/>
</linearGradient>
<linearGradient id="paint2_linear_2_485" x1="13.9187" y1="27.5462" x2="66.9693" y2="16.2699" gradientUnits="userSpaceOnUse">
<stop stop-color="#3F8CFF"/>
<stop offset="1" stop-color="#60B9A6"/>
</linearGradient>
<radialGradient id="paint3_radial_2_485" cx="0" cy="0" r="1" gradientUnits="userSpaceOnUse" gradientTransform="translate(5.10424 11.3278) rotate(-12) scale(4.16312 4.16311)">
<stop offset="0.02" stop-color="white"/>
<stop offset="0.54" stop-color="#808285"/>
<stop offset="0.75" stop-color="#231F20"/>
<stop offset="0.98" stop-color="#231F20"/>
</radialGradient>
</defs>
</svg>
