<svg width="49" height="44" viewBox="0 0 49 44" fill="none" xmlns="http://www.w3.org/2000/svg">
<path d="M49 21.6931C49.0077 25.9442 47.7541 30.102 45.3978 33.6404C43.0416 37.1788 39.6887 39.9386 35.7634 41.5708C31.8381 43.2029 27.5169 43.6339 23.3465 42.8092C19.1762 41.9846 15.3442 39.9413 12.3355 36.9381C9.3268 33.9348 7.27666 30.1065 6.44449 25.9376C5.61233 21.7688 6.03555 17.4467 7.66061 13.5185C9.28566 9.59026 12.0395 6.23238 15.5736 3.86979C19.1078 1.50721 23.2633 0.246101 27.5144 0.246094C33.2061 0.246085 38.6652 2.50445 42.6934 6.52543C46.7216 10.5464 48.9898 16.0014 49 21.6931Z" fill="#4A9CFF"/>
<g style="mix-blend-mode:multiply">
<path opacity="0.5" d="M5.87409 37.3437C3.32793 35.1347 1.49402 32.2204 0.604324 28.9691C-0.285373 25.7179 -0.190891 22.2758 0.875798 19.0782C1.94249 15.8807 3.93347 13.0713 6.59695 11.0053C9.26043 8.93941 12.4768 7.70976 15.8392 7.4719C19.2015 7.23405 22.5589 7.99867 25.4867 9.66907C28.4145 11.3395 30.7812 13.8406 32.2874 16.8562C33.7936 19.8717 34.3717 23.2662 33.9485 26.6104C33.5254 29.9545 32.12 33.098 29.9102 35.6434C26.9422 39.0464 22.7473 41.1357 18.2431 41.4544C13.7388 41.773 9.29161 40.295 5.87409 37.3437Z" fill="url(#paint0_linear_2_423)"/>
<path opacity="0.509804" d="M6.29918 37.3822C3.7249 35.2145 1.85179 32.3317 0.917053 29.0987C-0.0176837 25.8658 0.0280191 22.4281 1.04833 19.2212C2.06865 16.0142 4.01769 13.1821 6.64865 11.0836C9.27962 8.98508 12.4741 7.71452 15.8277 7.4328C19.1813 7.15108 22.543 7.87086 25.4872 9.50103C28.4314 11.1312 30.8257 13.5984 32.3667 16.5902C33.9078 19.582 34.5263 22.9639 34.144 26.3075C33.7618 29.6511 32.3959 32.806 30.2193 35.3728C27.3094 38.8044 23.158 40.9428 18.6744 41.3195C14.1909 41.6961 9.74084 40.2803 6.29918 37.3822Z" fill="url(#paint1_linear_2_423)"/>
<path opacity="0.519608" d="M6.72414 37.4209C4.13604 35.2958 2.23648 32.4507 1.26586 29.2457C0.295237 26.0406 0.297167 22.6197 1.2714 19.4157C2.24564 16.2118 4.14839 13.3689 6.73889 11.2467C9.32938 9.12452 12.4912 7.81847 15.8242 7.49383C19.1572 7.16918 22.5116 7.84053 25.4629 9.42292C28.4143 11.0053 30.8299 13.4276 32.4041 16.3834C33.9783 19.3391 34.6403 22.6953 34.3064 26.0274C33.9725 29.3595 32.6577 32.5177 30.5284 35.1023C27.6771 38.5632 23.5689 40.7512 19.1059 41.1859C14.6429 41.6206 10.1897 40.2665 6.72414 37.4209Z" fill="url(#paint2_linear_2_423)"/>
<path opacity="0.529412" d="M7.14948 37.4595C4.5403 35.3841 2.60552 32.5811 1.59006 29.4055C0.574605 26.23 0.524118 22.8245 1.44499 19.6202C2.36585 16.4159 4.21669 13.5569 6.76319 11.405C9.3097 9.25306 12.4374 7.90502 15.7504 7.5315C19.0634 7.15798 22.4127 7.77576 25.3744 9.30665C28.3362 10.8375 30.7771 13.2127 32.3883 16.1315C33.9996 19.0503 34.7086 22.3815 34.4257 25.7035C34.1428 29.0254 32.8807 32.1888 30.7991 34.7931C28.0075 38.2696 23.9544 40.501 19.5239 41.0005C15.0934 41.5 10.6451 40.2271 7.14948 37.4595Z" fill="url(#paint3_linear_2_423)"/>
<path opacity="0.539216" d="M7.57419 37.4982C4.95342 35.4652 2.99432 32.7008 1.9446 29.5544C0.894869 26.4081 0.801661 23.0211 1.67675 19.8218C2.55185 16.6225 4.35594 13.7545 6.86092 11.5805C9.36591 9.40643 12.4593 8.02397 15.7499 7.60791C19.0406 7.19185 22.3807 7.76089 25.3479 9.24303C28.3152 10.7252 30.7764 13.0539 32.4202 15.9347C34.0641 18.8155 34.8168 22.1191 34.5832 25.4277C34.3496 28.7363 33.1402 31.9014 31.1079 34.5226C28.3759 38.0297 24.3659 40.3118 19.9554 40.8695C15.5449 41.4271 11.0931 40.2149 7.57419 37.4982Z" fill="url(#paint4_linear_2_423)"/>
<path opacity="0.54902" d="M7.99952 37.5368C5.35492 35.5457 3.36035 32.8149 2.26818 29.6899C1.17602 26.5649 1.03535 23.1861 1.86397 19.9812C2.69258 16.7762 4.45324 13.889 6.92318 11.6849C9.39312 9.48087 12.4613 8.05896 15.7396 7.59914C19.0179 7.13932 22.3589 7.66224 25.3399 9.10173C28.3209 10.5412 30.8079 12.8326 32.4863 15.6859C34.1646 18.5393 34.9589 21.8264 34.7687 25.1312C34.5784 28.4361 33.4121 31.6103 31.4173 34.2522C28.7456 37.7905 24.7788 40.1239 20.388 40.7398C15.9973 41.3556 11.5416 40.2037 7.99952 37.5368Z" fill="url(#paint5_linear_2_423)"/>
<path opacity="0.558824" d="M8.42446 37.5369C5.76731 35.5878 3.74806 32.8943 2.62224 29.7972C1.49642 26.7002 1.31465 23.3388 2.09991 20.1383C2.88516 16.9379 4.60218 14.0424 7.03364 11.8181C9.4651 9.5939 12.5017 8.14093 15.7592 7.6431C19.0168 7.14527 22.3488 7.62495 25.3336 9.02146C28.3184 10.418 30.8218 12.6685 32.5271 15.4883C34.2324 18.3081 35.0629 21.5704 34.9135 24.8624C34.764 28.1543 33.6414 31.328 31.6877 33.9817C30.3957 35.7452 28.7683 37.2364 26.899 38.3699C25.0296 39.5034 22.9549 40.2568 20.7939 40.5871C18.6328 40.9173 16.4278 40.8179 14.3052 40.2945C12.1827 39.7711 10.1842 38.834 8.42446 37.5369Z" fill="url(#paint6_linear_2_423)"/>
<path opacity="0.568627" d="M8.84969 37.5755C6.18409 35.6686 4.14349 33.0144 2.98575 29.9483C1.82802 26.8822 1.6051 23.5417 2.34516 20.3489C3.08521 17.1561 4.75503 14.2543 7.14363 12.0102C9.53223 9.76607 12.5324 8.28031 15.7651 7.74063C18.9978 7.20094 22.3179 7.63156 25.306 8.97809C28.294 10.3246 30.8159 12.5266 32.5529 15.3059C34.29 18.0851 35.1643 21.3169 35.0653 24.5928C34.9664 27.8687 33.8986 31.0418 31.997 33.7112C30.7322 35.4865 29.1298 36.995 27.2813 38.1503C25.4329 39.3055 23.3748 40.085 21.2248 40.4439C19.0748 40.8028 16.8751 40.7342 14.7516 40.242C12.6281 39.7498 10.6226 38.8437 8.84969 37.5755Z" fill="url(#paint7_linear_2_423)"/>
<path opacity="0.578431" d="M9.27466 37.6141C6.58288 35.7531 4.50369 33.1354 3.30019 30.0922C2.0967 27.0491 1.82302 23.7173 2.51377 20.5186C3.20451 17.3199 4.82864 14.3979 7.18062 12.1226C9.53261 9.84721 12.5067 8.32073 15.7266 7.73628C18.9465 7.15184 22.2673 7.5357 25.2689 8.83931C28.2705 10.1429 30.818 12.3077 32.5888 15.0596C34.3597 17.8115 35.2744 21.0269 35.2172 24.2989C35.16 27.5709 34.1334 30.7523 32.2674 33.4406C29.7692 37.0398 25.945 39.5006 21.6342 40.2831C17.3235 41.0655 12.8784 40.1057 9.27466 37.6141Z" fill="url(#paint8_linear_2_423)"/>
<path opacity="0.588235" d="M9.69972 37.6528C6.98836 35.8339 4.87756 33.2515 3.63445 30.2324C2.39133 27.2134 2.07179 23.8935 2.71627 20.6927C3.36075 17.492 4.94027 14.5545 7.25494 12.2518C9.5696 9.94918 12.5154 8.38497 15.7194 7.75715C18.9234 7.12934 22.2416 7.46617 25.2542 8.72498C28.2667 9.98379 30.838 12.108 32.6428 14.8288C34.4476 17.5496 35.4046 20.7446 35.3928 24.0095C35.381 27.2744 34.4009 30.4625 32.5765 33.1701C30.1344 36.7946 26.3541 39.3022 22.0652 40.1426C17.7763 40.983 13.3291 40.0876 9.69972 37.6528Z" fill="url(#paint9_linear_2_423)"/>
<path opacity="0.598039" d="M10.1249 37.6914C7.39504 35.9146 5.25366 33.3679 3.97172 30.3736C2.68977 27.3794 2.32488 24.0721 2.92323 20.8704C3.52157 17.6687 5.05626 14.7164 7.33307 12.3872C9.60988 10.058 12.5265 8.45662 15.7137 7.78562C18.901 7.11461 22.2157 7.40419 25.2383 8.6177C28.261 9.83122 30.8557 11.9141 32.6941 14.6028C34.5326 17.2915 35.5321 20.4652 35.5662 23.7221C35.6003 26.9791 34.6674 30.173 32.8857 32.8996C30.5002 36.5502 26.7637 39.105 22.4964 40.0034C18.2291 40.9018 13.7797 40.0703 10.1249 37.6914Z" fill="url(#paint10_linear_2_423)"/>
<path opacity="0.607843" d="M10.5498 37.73C7.81058 35.9989 5.64618 33.4944 4.33028 30.5332C3.01438 27.572 2.60609 24.2871 3.157 21.0939C3.70791 17.9007 5.19328 14.9425 7.42533 12.5934C9.65737 10.2443 12.5358 8.60982 15.6968 7.89658C18.8577 7.18334 22.1592 7.42339 25.1837 8.58638C28.2082 9.74936 30.8199 11.7831 32.6887 14.4303C34.5575 17.0776 35.5993 20.2195 35.6825 23.4588C35.7657 26.6982 34.8865 29.8895 33.1561 32.6291C30.8282 36.2957 27.1427 38.8909 22.9061 39.8468C18.6695 40.8028 14.2266 40.0417 10.5498 37.73Z" fill="url(#paint11_linear_2_423)"/>
<path opacity="0.617647" d="M10.9752 37.7687C8.20646 36.0802 6.00104 33.608 4.63826 30.6653C3.27547 27.7226 2.81661 24.4416 3.31976 21.2379C3.82291 18.0342 5.26545 15.0518 7.4647 12.6685C9.66396 10.2852 12.521 8.60814 15.6741 7.84968C18.8271 7.09122 22.1343 7.28549 25.1768 8.40789C28.2194 9.53028 30.8604 11.5303 32.7655 14.1547C34.6707 16.7791 35.7541 19.9098 35.8787 23.1504C36.0033 26.391 35.1635 29.5957 33.4655 32.3586C31.1954 36.0526 27.5537 38.6962 23.3381 39.7103C19.1226 40.7243 14.6769 40.0261 10.9752 37.7687Z" fill="url(#paint12_linear_2_423)"/>
<path opacity="0.627451" d="M11.4002 37.8074C8.61637 36.1607 6.38362 33.7253 4.98451 30.8092C3.5854 27.8931 3.08283 24.6275 3.54039 21.4257C3.99795 18.2239 5.3951 15.2298 7.55498 12.8224C9.71485 10.4149 12.5404 8.7023 15.674 7.90131C18.8076 7.10033 22.1083 7.24696 25.1585 8.32265C28.2088 9.39834 30.8713 11.3547 32.8092 13.9442C34.7471 16.5337 35.8732 19.6399 36.0451 22.8697C36.2169 26.0995 35.4268 29.3076 33.7746 32.0881C31.563 35.8102 27.9649 38.5029 23.7702 39.5751C19.5755 40.6474 15.1267 40.0116 11.4002 37.8074Z" fill="url(#paint13_linear_2_423)"/>
<path opacity="0.637255" d="M11.8252 37.846C9.02221 36.2457 6.75717 33.8495 5.31689 30.961C3.87661 28.0725 3.32589 24.8216 3.73446 21.6199C4.14303 18.4182 5.49253 15.4098 7.61204 12.9756C9.73155 10.5413 12.5258 8.79081 15.6408 7.94568C18.7559 7.10056 22.0516 7.19882 25.1108 8.22805C28.17 9.25728 30.8549 11.1712 32.8256 13.7274C34.7963 16.2835 35.9642 19.367 36.1813 22.5874C36.3983 25.8077 35.6549 29.0201 34.0451 31.8176C31.8927 35.558 28.3455 38.2927 24.1807 39.4227C20.0158 40.5526 15.5728 39.9857 11.8252 37.846Z" fill="url(#paint14_linear_2_423)"/>
<path opacity="0.647059" d="M12.2503 37.8847C9.43451 36.3259 7.14438 33.9669 5.6696 31.1062C4.19482 28.2455 3.60168 25.0117 3.96521 21.8138C4.32873 18.616 5.63259 15.5978 7.71184 13.1412C9.79108 10.6845 12.5523 8.89975 15.6461 8.01271C18.7399 7.12568 22.0273 7.17624 25.0923 8.15795C28.1574 9.13967 30.8624 11.0085 32.8651 13.5279C34.8679 16.0473 36.0784 19.1041 36.3434 22.3116C36.6085 25.5191 35.9162 28.7332 34.3542 31.5472C32.2617 35.3169 28.7583 38.1018 24.6137 39.2901C20.4691 40.4784 16.0224 39.9729 12.2503 37.8847Z" fill="url(#paint15_linear_2_423)"/>
<path opacity="0.656863" d="M12.6754 37.9233C9.84804 36.4056 7.53399 34.0839 6.02569 31.2515C4.51739 28.4192 3.88256 25.2032 4.20143 22.0101C4.52031 18.8171 5.77856 15.7902 7.81718 13.312C9.85581 10.8338 12.5833 9.01557 15.655 8.08705C18.7267 7.15853 22.0047 7.1614 25.0747 8.0953C28.1448 9.02921 30.8691 10.8522 32.9034 13.334C34.9377 15.8157 36.1906 18.8448 36.5039 22.0384C36.8172 25.2321 36.1767 28.4469 34.6634 31.2766C33.6574 33.158 32.2902 34.8225 30.6402 36.175C28.9902 37.5275 27.0897 38.5414 25.0475 39.1588C23.0053 39.7761 20.8614 39.9847 18.7385 39.7727C16.6155 39.5607 14.5552 38.9323 12.6754 37.9233Z" fill="url(#paint16_linear_2_423)"/>
<path opacity="0.666667" d="M13.1003 37.9619C10.2441 36.4919 7.8883 34.2074 6.3313 31.3976C4.77429 28.5878 4.0861 25.3792 4.35385 22.1781C4.6216 18.9769 5.83326 15.9272 7.8354 13.4152C9.83753 10.9031 12.5401 9.04168 15.6008 8.06657C18.6616 7.09146 21.9429 7.04656 25.0292 7.93753C28.1154 8.82851 30.8679 10.6153 32.9381 13.0716C35.0082 15.528 36.3029 18.5434 36.6581 21.736C37.0134 24.9286 36.4133 28.1548 34.9337 31.0061C32.9555 34.8186 29.5467 37.6915 25.4542 38.9953C21.3617 40.2991 16.9193 39.9274 13.1003 37.9619Z" fill="url(#paint17_linear_2_423)"/>
<path opacity="0.676471" d="M13.4871 37.9619C10.6274 36.5241 8.25802 34.271 6.67829 31.4872C5.09856 28.7034 4.37934 25.5139 4.6115 22.3215C4.84366 19.1292 6.01677 16.0773 7.98264 13.5513C9.94851 11.0254 12.6189 9.1388 15.6565 8.12986C18.6941 7.12092 21.9626 7.03492 25.0491 7.88273C28.1355 8.73053 30.9015 10.4741 32.9975 12.8932C35.0934 15.3122 36.4254 18.2982 36.8251 21.4739C37.2248 24.6497 36.6743 27.8726 35.2432 30.7356C34.295 32.6439 32.9785 34.3458 31.3697 35.7431C29.7609 37.1404 27.8916 38.2056 25.8693 38.8773C23.847 39.549 21.7118 39.8139 19.5867 39.6568C17.4616 39.4997 15.3886 38.9237 13.4871 37.9619Z" fill="url(#paint18_linear_2_423)"/>
<path opacity="0.686275" d="M13.9118 38.0006C11.038 36.6115 8.64016 34.4022 7.02098 31.6515C5.4018 28.9008 4.63386 25.732 4.81411 22.5452C4.99437 19.3584 6.11472 16.2965 8.03376 13.7459C9.9528 11.1953 12.5845 9.27051 15.5966 8.21439C18.6087 7.15827 21.8662 7.01822 24.9578 7.81192C28.0494 8.60562 30.8366 10.2975 32.9675 12.6739C35.0983 15.0504 36.4774 18.0049 36.9305 21.1644C37.3836 24.324 36.8905 27.547 35.5134 30.4265C34.5957 32.3452 33.3082 34.0638 31.7247 35.4837C30.1412 36.9036 28.2929 37.9967 26.2858 38.7005C24.2787 39.4042 22.1525 39.7046 20.029 39.5845C17.9055 39.4644 15.8267 38.9261 13.9118 38.0006Z" fill="url(#paint19_linear_2_423)"/>
<path opacity="0.696078" d="M14.337 38.0392C11.4429 36.6922 9.01284 34.518 7.35358 31.7909C5.69432 29.0639 4.88028 25.9063 5.01423 22.7169C5.14819 19.5276 6.22414 16.4494 8.10623 13.8711C9.98832 11.2928 12.5922 9.32996 15.589 8.23041C18.5858 7.13085 21.8412 6.94391 24.9442 7.69317C28.0472 8.44242 30.8586 10.0943 33.0235 12.4402C35.1884 14.7861 36.6096 17.7208 37.1078 20.8739C37.606 24.0269 37.1588 27.2569 35.8226 30.156C34.9367 32.0905 33.6763 33.8304 32.1144 35.2753C30.5525 36.7202 28.7199 37.8414 26.7224 38.5743C24.7248 39.3072 22.6019 39.6373 20.4761 39.5455C18.3504 39.4536 16.2639 38.9417 14.337 38.0392Z" fill="url(#paint20_linear_2_423)"/>
<path opacity="0.705882" d="M14.7621 38.0779C11.8489 36.7728 9.38768 34.6338 7.68926 31.931C5.99083 29.2281 5.13133 26.0826 5.21927 22.8917C5.3072 19.7007 6.33864 16.6074 8.18334 14.0022C10.028 11.397 12.6033 9.39679 15.5839 8.25412C18.5646 7.11145 21.8169 6.87756 24.9304 7.58197C28.0439 8.28638 30.8789 9.89749 33.0773 12.2119C35.2758 14.5263 36.7393 17.4403 37.2829 20.5858C37.8265 23.7314 37.426 26.9674 36.1318 29.8855C35.2697 31.8292 34.0324 33.5836 32.4907 35.048C30.9491 36.5124 29.1335 37.6581 27.1481 38.4192C25.1627 39.1803 23.0465 39.542 20.9211 39.4834C18.7956 39.4248 16.7025 38.9472 14.7621 38.0779Z" fill="url(#paint21_linear_2_423)"/>
<path opacity="0.715686" d="M15.187 38.1164C12.2511 36.8586 9.75394 34.7586 8.01127 32.0819C6.2686 29.4051 5.35865 26.2718 5.39639 23.078C5.43414 19.8841 6.41789 16.7732 8.22333 14.1384C10.0288 11.5036 12.5748 9.46314 15.5397 8.27504C18.5045 7.08695 21.7551 6.80451 24.8804 7.46343C28.0057 8.12235 30.8656 9.69305 33.0984 11.977C35.3312 14.2609 36.8368 17.1555 37.4249 20.295C38.0129 23.4344 37.657 26.6777 36.4022 29.6149C35.5682 31.5669 34.3578 33.3353 32.84 34.8191C31.3222 36.303 29.5269 37.4731 27.5566 38.2626C25.5863 39.0522 23.4797 39.4457 21.3572 39.4206C19.2348 39.3955 17.1381 38.9523 15.187 38.1164Z" fill="url(#paint22_linear_2_423)"/>
<path opacity="0.72549" d="M15.612 38.1551C12.6592 36.9388 10.1333 34.8745 8.35334 32.2231C6.57339 29.5717 5.6193 26.4522 5.61162 23.2587C5.60394 20.0653 6.54301 16.9412 8.31018 14.2813C10.0774 11.6214 12.5933 9.54492 15.5402 8.31437C18.487 7.08382 21.7325 6.75437 24.8665 7.36766C28.0005 7.98094 30.8824 9.50944 33.1481 11.76C35.4137 14.0106 36.9614 16.8822 37.5956 20.012C38.2298 23.1419 37.922 26.3895 36.7112 29.3445C35.9059 31.3097 34.721 33.0967 33.2243 34.6035C31.7276 36.1102 29.9485 37.307 27.9887 38.1253C26.029 38.9437 23.9271 39.3676 21.8033 39.3727C19.6796 39.3778 17.5756 38.964 15.612 38.1551Z" fill="url(#paint23_linear_2_423)"/>
<path opacity="0.735294" d="M16.0374 38.1938C13.069 37.0186 10.5154 34.9901 8.69919 32.3645C6.88294 29.7389 5.88547 26.6339 5.83277 23.4418C5.78007 20.2497 6.67449 17.1135 8.40307 14.4294C10.1317 11.7452 12.6169 9.63354 15.5449 8.36097C18.4729 7.0884 21.7123 6.71204 24.854 7.27941C27.9958 7.84678 30.899 9.33244 33.1969 11.5487C35.4948 13.7651 37.0845 16.6126 37.765 19.7318C38.4456 22.851 38.1866 26.1019 37.0207 29.074C36.2445 31.0527 35.0854 32.8587 33.6098 34.3886C32.1343 35.9185 30.3714 37.1421 28.422 37.9893C26.4727 38.8366 24.3753 39.2907 22.2501 39.3258C20.1249 39.3609 18.0137 38.9762 16.0374 38.1938Z" fill="url(#paint24_linear_2_423)"/>
<path opacity="0.745098" d="M16.4624 38.2324C13.4749 37.1039 10.8889 35.1151 9.03134 32.5174C7.17374 29.9197 6.12786 26.8297 6.02583 23.6378C5.9238 20.4459 6.7702 17.2953 8.4581 14.5843C10.146 11.8733 12.5997 9.72345 15.509 8.40643C18.4183 7.08941 21.6527 6.66433 24.8035 7.18491C27.9544 7.70549 30.8802 9.14838 33.2112 11.3312C35.5423 13.5141 37.174 16.3389 37.9002 19.4488C38.6264 22.5587 38.4144 25.814 37.2911 28.8035C36.5441 30.7913 35.4125 32.6124 33.961 34.1625C32.5094 35.7126 30.7665 36.9613 28.8319 37.837C26.8973 38.7128 24.809 39.1985 22.6865 39.2663C20.564 39.3342 18.4489 38.9829 16.4624 38.2324Z" fill="url(#paint25_linear_2_423)"/>
<path opacity="0.754902" d="M16.8875 38.271C13.8866 37.1829 11.2753 35.2301 9.38345 32.6591C7.49158 30.088 6.40388 27.0141 6.25768 23.8254C6.11148 20.6367 6.91335 17.4761 8.56203 14.7428C10.2107 12.0094 12.6323 9.82584 15.521 8.4677C18.4098 7.10957 21.6361 6.63777 24.7928 7.11189C27.9495 7.58601 30.8949 8.9848 33.2572 11.1316C35.6195 13.2784 37.2927 16.0771 38.0657 19.1741C38.8387 22.2712 38.6767 25.5279 37.6002 28.5329C36.8831 30.5349 35.7777 32.3755 34.3476 33.9492C32.9174 35.5229 31.1906 36.7987 29.2662 37.7035C27.3418 38.6082 25.2577 39.1241 23.1334 39.2215C21.0092 39.3189 18.8866 38.9959 16.8875 38.271Z" fill="url(#paint26_linear_2_423)"/>
<path opacity="0.764706" d="M17.3125 38.3097C14.2821 37.2714 11.6279 35.3575 9.68549 32.8102C7.74312 30.2629 6.59999 27.1967 6.40074 23.9995C6.2015 20.8024 6.95508 17.618 8.56615 14.8492C10.1772 12.0805 12.5733 9.85182 15.4514 8.44526C18.3294 7.0387 21.56 6.51745 24.7344 6.94746C27.9087 7.37746 30.8842 8.73939 33.2843 10.8609C35.6845 12.9825 37.4013 15.7683 38.2177 18.8659C39.0342 21.9634 38.9134 25.2336 37.8707 28.2625C36.4743 32.3191 33.525 35.6558 29.6704 37.5396C25.8158 39.4234 21.3712 39.7004 17.3125 38.3097Z" fill="url(#paint27_linear_2_423)"/>
<path opacity="0.77451" d="M17.7375 38.3483C14.6959 37.3497 12.0187 35.4718 10.044 32.9521C8.06939 30.4323 6.88603 27.3837 6.64348 24.1916C6.40092 20.9995 7.11006 17.8071 8.68128 15.0179C10.2525 12.2287 12.6153 9.96787 15.471 8.52111C18.3268 7.07434 21.5473 6.50659 24.7256 6.8896C27.9039 7.27261 30.8974 8.5892 33.3277 10.673C35.758 12.7567 37.516 15.5142 38.3796 18.5968C39.2433 21.6794 39.1737 24.9489 38.1798 27.992C36.8364 32.072 33.9304 35.453 30.0986 37.3943C26.2668 39.3355 21.8218 39.6786 17.7375 38.3483Z" fill="url(#paint28_linear_2_423)"/>
<path opacity="0.784314" d="M18.1628 38.3483C15.1108 37.3863 12.4123 35.5415 10.408 33.0468C8.40376 30.5522 7.18366 27.5195 6.90181 24.3319C6.61995 21.1443 7.28897 17.9446 8.82439 15.137C10.3598 12.3293 12.6928 10.0396 15.5286 8.55696C18.3645 7.07433 21.5761 6.46527 24.7579 6.8067C27.9397 7.14813 30.949 8.42474 33.4057 10.4753C35.8625 12.5259 37.6565 15.2584 38.5613 18.3279C39.466 21.3974 39.4409 24.6662 38.4892 27.7214C37.8554 29.7559 36.8263 31.6452 35.4609 33.2811C34.0954 34.917 32.4205 36.2674 30.5321 37.2546C28.6438 38.2419 26.5791 38.8467 24.4565 39.0344C22.3339 39.2221 20.1952 38.9889 18.1628 38.3483Z" fill="url(#paint29_linear_2_423)"/>
<path opacity="0.794118" d="M18.5877 38.387C15.5098 37.4742 12.7716 35.6691 10.7197 33.2C8.66773 30.7308 7.39416 27.7086 7.06006 24.5156C6.72596 21.3226 7.34634 18.1021 8.84273 15.2617C10.3391 12.4213 12.6443 10.0885 15.4667 8.5584C18.289 7.02826 21.5018 6.36953 24.6986 6.66555C27.8954 6.96158 30.9326 8.19905 33.426 10.2214C35.9194 12.2438 37.757 14.9602 38.7064 18.0271C39.6558 21.094 39.6742 24.3735 38.7595 27.4509C38.157 29.4959 37.1565 31.4018 35.8155 33.0592C34.4745 34.7165 32.8194 36.0928 30.9452 37.1089C29.071 38.125 27.0145 38.7609 24.8939 38.9803C22.7733 39.1996 20.6302 38.998 18.5877 38.387Z" fill="url(#paint30_linear_2_423)"/>
<path opacity="0.803922" d="M19.0128 38.4256C15.9141 37.5555 13.1432 35.7858 11.0505 33.3404C8.95789 30.8951 7.63759 27.884 7.25668 24.6881C6.87577 21.4922 7.45137 18.2551 8.91065 15.3864C10.3699 12.5177 12.6473 10.1463 15.4546 8.57222C18.262 6.99816 21.4732 6.29216 24.6819 6.54355C27.8906 6.79494 30.9526 7.99243 33.4805 9.9845C36.0085 11.9766 37.8888 14.6737 38.8835 17.7347C39.8782 20.7956 39.9426 24.0828 39.0686 27.1804C38.4934 29.2377 37.5178 31.1612 36.1976 32.8406C34.8774 34.5201 33.2387 35.9223 31.3755 36.9671C29.5122 38.0118 27.461 38.6784 25.3395 38.9287C23.218 39.179 21.068 39.008 19.0128 38.4256Z" fill="url(#paint31_linear_2_423)"/>
<path opacity="0.813725" d="M19.438 38.4643C16.3322 37.6318 13.5428 35.8978 11.422 33.481C9.30112 31.0643 7.94398 28.0733 7.5219 24.8857C7.09981 21.6982 7.63174 18.4571 9.0505 15.5717C10.4693 12.6862 12.7112 10.2859 15.4933 8.67382C18.2753 7.06175 21.4727 6.31021 24.6816 6.51411C27.8905 6.71801 30.967 7.8682 33.5226 9.81944C36.0783 11.7707 37.9984 14.4355 39.0405 17.4773C40.0826 20.5191 40.2001 23.8015 39.3779 26.9099C38.8351 28.9825 37.8873 30.927 36.5892 32.6314C35.2911 34.3358 33.6684 35.7663 31.8146 36.8405C29.9609 37.9146 27.9129 38.6111 25.7887 38.8898C23.6644 39.1685 21.506 39.0239 19.438 38.4643Z" fill="url(#paint32_linear_2_423)"/>
<path opacity="0.823529" d="M19.8631 38.5029C16.7349 37.7189 13.9095 36.025 11.744 33.6354C9.57846 31.2458 8.17004 28.2677 7.69681 25.0778C7.22358 21.8878 7.7068 18.6292 9.08534 15.7138C10.4639 12.7984 12.6759 10.3572 15.4416 8.69885C18.2074 7.04046 21.4028 6.23934 24.6238 6.39677C27.8448 6.5542 30.9469 7.6631 33.5377 9.5833C36.1286 11.5035 38.092 14.1488 39.1796 17.1847C40.2673 20.2206 40.4304 23.5109 39.6484 26.6395C39.1334 28.7205 38.2123 30.6793 36.9378 32.4032C35.6633 34.127 34.0607 35.582 32.2221 36.6845C30.3835 37.7869 28.3451 38.5151 26.2241 38.8272C24.1031 39.1393 21.9413 39.0291 19.8631 38.5029Z" fill="url(#paint33_linear_2_423)"/>
<path opacity="0.833333" d="M20.2881 38.5415C17.1425 37.7989 14.2877 36.1404 12.0844 33.7756C9.88119 31.4108 8.42846 28.446 7.90983 25.2558C7.3912 22.0656 7.82994 18.7933 9.17064 15.8524C10.5113 12.9115 12.6938 10.434 15.4421 8.7332C18.1905 7.03235 21.3814 6.18443 24.6115 6.29663C27.8416 6.40882 30.966 7.47609 33.5897 9.36353C36.2135 11.251 38.2188 13.8739 39.3522 16.9007C40.4856 19.9275 40.6962 23.2224 39.9575 26.369C39.4665 28.4604 38.568 30.4346 37.3134 32.1785C36.0589 33.9225 34.4728 35.402 32.646 36.5325C30.8192 37.6631 28.7875 38.4224 26.667 38.7671C24.5466 39.1119 22.3789 39.0352 20.2881 38.5415Z" fill="url(#paint34_linear_2_423)"/>
<path opacity="0.843137" d="M20.7129 38.5802C17.5482 37.8872 14.66 36.2715 12.4133 33.9374C10.1666 31.6032 8.66228 28.6555 8.09048 25.4666C7.51868 22.2777 7.90507 18.9909 9.20081 16.0216C10.4966 13.0523 12.6435 10.5338 15.3702 8.78431C18.097 7.03486 21.2812 6.13303 24.5204 6.19282C27.7595 6.25261 30.9083 7.27133 33.5686 9.12022C36.229 10.9691 38.2815 13.5652 39.4668 16.5803C40.6521 19.5954 40.9169 22.8942 40.2278 26.0598C39.7698 28.1639 38.9015 30.1571 37.6725 31.9254C36.4436 33.6937 34.8782 35.2024 33.0657 36.3652C31.2533 37.5281 29.2294 38.3222 27.1098 38.7023C24.9902 39.0823 22.8165 39.0409 20.7129 38.5802Z" fill="url(#paint35_linear_2_423)"/>
<path opacity="0.852941" d="M21.1382 38.6188C17.9582 37.9661 15.0429 36.3856 12.7606 34.077C10.4783 31.7683 8.93142 28.835 8.31533 25.6477C7.69923 22.4604 8.04156 19.1619 9.29907 16.169C10.5566 13.1761 12.6729 10.623 15.3806 8.83226C18.0884 7.04148 21.2661 6.09335 24.5124 6.10761C27.7587 6.12188 30.928 7.0979 33.6199 8.91241C36.3118 10.7269 38.4055 13.2985 39.6367 16.3023C40.8679 19.3062 41.1812 22.6075 40.5371 25.7893C40.1085 27.9068 39.2662 29.919 38.0586 31.7105C36.851 33.502 35.3019 35.0376 33.4998 36.2294C31.6978 37.4212 29.6783 38.2457 27.5571 38.6557C25.4359 39.0658 23.2546 39.0532 21.1382 38.6188Z" fill="url(#paint36_linear_2_423)"/>
<path opacity="0.862745" d="M21.5632 38.6575C18.3688 38.0446 15.4275 36.4991 13.1107 34.2161C10.7938 31.9331 9.20523 29.0148 8.5454 25.8298C7.88558 22.6447 8.18408 19.3356 9.40327 16.32C10.6225 13.3044 12.7077 10.7177 15.3957 8.88613C18.0837 7.0546 21.2541 6.06043 24.5067 6.02911C27.7592 5.9978 30.9481 6.93074 33.6709 8.71018C36.3937 10.4896 38.5284 13.0358 39.8054 16.0273C41.0824 19.0188 41.4446 22.3216 40.8462 25.5188C40.4473 27.6499 39.6314 29.6813 38.4453 31.4962C37.2592 33.3111 35.7263 34.8738 33.9346 36.0946C32.1428 37.3154 30.1276 38.1703 28.0045 38.6101C25.8815 39.0499 23.6925 39.066 21.5632 38.6575Z" fill="url(#paint37_linear_2_423)"/>
<path opacity="0.872549" d="M21.9883 38.6961C18.7652 38.1351 15.7808 36.6308 13.4126 34.3735C11.0445 32.1162 9.39902 29.2073 8.68435 26.0147C7.96968 22.8221 8.21792 19.4892 9.39766 16.4377C10.5774 13.3862 12.6356 10.7531 15.3121 8.87149C17.9885 6.9899 21.1628 5.94433 24.4335 5.86704C27.7042 5.78975 30.9244 6.68421 33.6867 8.43728C36.449 10.1903 38.6293 12.7233 39.9518 15.7156C41.2744 18.708 41.6798 22.0254 41.1167 25.2482C40.3621 29.5674 37.9233 33.4103 34.3364 35.932C30.7495 38.4537 26.308 39.4479 21.9883 38.6961Z" fill="url(#paint38_linear_2_423)"/>
<path opacity="0.882353" d="M22.4134 38.7347C19.1778 38.2126 16.1696 36.7431 13.7689 34.5119C11.3681 32.2808 9.6826 29.3881 8.92525 26.1994C8.1679 23.0106 8.37272 19.669 9.51382 16.5966C10.6549 13.5242 12.6811 10.8591 15.3363 8.93778C17.9916 7.01652 21.1567 5.9254 24.4318 5.80229C27.707 5.67919 30.9451 6.52963 33.737 8.24615C36.529 9.96267 38.7496 12.4682 40.1181 15.4463C41.4866 18.4243 41.9417 21.7412 41.4258 24.9777C41.0828 27.1303 40.3185 29.1942 39.1769 31.0511C38.0353 32.9079 36.5387 34.5215 34.7727 35.7993C33.0067 37.0771 31.0061 37.9941 28.8854 38.4978C26.7646 39.0015 24.5653 39.082 22.4134 38.7347Z" fill="url(#paint39_linear_2_423)"/>
<path opacity="0.892157" d="M22.8386 38.7734C19.5795 38.2954 16.5354 36.8618 14.0911 34.6538C11.6468 32.4458 9.91211 29.5626 9.10635 26.3687C8.30059 23.1749 8.45996 19.8138 9.56429 16.7106C10.6686 13.6073 12.6683 10.9011 15.3106 8.93432C17.9528 6.9675 21.1189 5.82831 24.4086 5.66081C27.6982 5.4933 30.9637 6.305 33.792 7.99327C36.6204 9.68153 38.8847 12.1705 40.2985 15.1456C41.7124 18.1206 42.2123 21.4481 41.7351 24.7073C41.423 26.8739 40.686 28.9575 39.5662 30.8384C38.4464 32.7193 36.9661 34.3605 35.2101 35.6676C33.4542 36.9746 31.4574 37.9219 29.3343 38.4549C27.2111 38.9879 25.0036 39.0961 22.8386 38.7734Z" fill="url(#paint40_linear_2_423)"/>
<path opacity="0.901961" d="M23.2637 38.7734C19.9899 38.3392 16.9185 36.9436 14.438 34.7634C11.9575 32.5831 10.1794 29.7162 9.32862 26.5252C8.47784 23.3342 8.59261 19.9625 9.65844 16.8368C10.7243 13.711 12.6933 10.9716 15.3163 8.96516C17.9393 6.95868 21.0985 5.77527 24.3943 5.56464C27.69 5.35401 30.9742 6.12563 33.8313 7.78188C36.6884 9.43813 38.9901 11.9046 40.4452 14.8692C41.9002 17.8339 42.4433 21.1635 42.0057 24.4368C41.7202 26.6104 41.0084 28.7062 39.9111 30.6041C38.8139 32.502 37.3527 34.1647 35.6115 35.4966C33.8702 36.8286 31.8832 37.8037 29.7643 38.366C27.6453 38.9283 25.4362 39.0668 23.2637 38.7734Z" fill="url(#paint41_linear_2_423)"/>
<path opacity="0.911765" d="M23.6887 38.8121C20.4052 38.4149 17.313 37.0535 14.8027 34.8998C12.2925 32.7461 10.4769 29.8968 9.58514 26.7118C8.69344 23.5267 8.76568 20.1489 9.79272 17.0049C10.8198 13.8609 12.7556 11.0918 15.3556 9.04736C17.9556 7.00296 21.1031 5.77498 24.4007 5.51852C27.6982 5.26207 30.9978 5.98864 33.8826 7.60647C36.7675 9.2243 39.1081 11.6608 40.6089 14.6082C42.1097 17.5556 42.7033 20.8817 42.3148 24.1663C42.0562 26.3521 41.3689 28.4655 40.2923 30.3852C39.2157 32.305 37.7709 33.9935 36.0406 35.354C34.3104 36.7144 32.3287 37.7202 30.2092 38.3136C28.0896 38.907 25.8738 39.0764 23.6887 38.8121Z" fill="url(#paint42_linear_2_423)"/>
<path opacity="0.921569" d="M24.1138 38.8507C20.8069 38.5037 17.6772 37.1838 15.1206 35.0578C12.5639 32.9319 10.6952 30.0956 9.75074 26.9075C8.80627 23.7194 8.8285 20.3228 9.81461 17.1474C10.8007 13.9719 12.7064 11.1603 15.2907 9.06801C17.8749 6.97575 21.0216 5.69687 24.3327 5.39316C27.6439 5.08945 30.9707 5.77455 33.8925 7.36178C36.8142 8.94902 39.1996 11.3671 40.7469 14.3102C42.2942 17.2532 42.934 20.5891 42.5852 23.8958C42.1178 28.3279 39.9094 32.393 36.4456 35.1974C32.9818 38.0018 28.5462 39.3158 24.1138 38.8507Z" fill="url(#paint43_linear_2_423)"/>
<path opacity="0.931373" d="M24.5385 38.8893C21.2119 38.5846 18.0504 37.3003 15.4539 35.1986C12.8574 33.0969 10.9426 30.2724 9.9516 27.0822C8.96061 23.8921 8.93803 20.4798 9.88669 17.2768C10.8354 14.0739 12.7126 11.2242 15.2811 9.08833C17.8495 6.95246 20.9938 5.62634 24.316 5.27769C27.6383 4.92905 30.9893 5.57357 33.9452 7.12971C36.9011 8.68584 39.329 11.0837 40.922 14.0199C42.5149 16.9562 43.2012 20.2989 42.8941 23.6252C42.4825 28.0828 40.3178 32.1945 36.8759 35.0568C33.434 37.919 28.9964 39.2975 24.5385 38.8893Z" fill="url(#paint44_linear_2_423)"/>
<path opacity="0.941176" d="M24.9638 38.928C21.6184 38.6653 18.4261 37.4163 15.7906 35.3391C13.1552 33.2618 11.195 30.4496 10.158 27.2581C9.12098 24.0667 9.05379 20.6393 9.9649 17.4097C10.876 14.18 12.7245 11.2932 15.2765 9.11421C17.8286 6.93524 20.9695 5.5621 24.302 5.16846C27.6346 4.77483 31.009 5.37838 33.9984 6.90279C36.9879 8.42719 39.4582 10.8039 41.0967 13.7324C42.7352 16.6609 43.4683 20.0096 43.2034 23.3548C42.8484 27.8381 40.7278 31.997 37.3075 34.9172C33.8873 37.8375 29.4474 39.2801 24.9638 38.928Z" fill="url(#paint45_linear_2_423)"/>
<path opacity="0.95098" d="M25.3889 38.9666C22.0346 38.7459 18.8211 37.5359 16.1543 35.4894C13.4875 33.443 11.4871 30.652 10.406 27.4692C9.32476 24.2863 9.21127 20.8544 10.0798 17.6071C10.9484 14.3597 12.76 11.4427 15.2857 9.22455C17.8115 7.00642 20.9381 5.58672 24.2704 5.14484C27.6027 4.70297 30.9912 5.25874 34.0078 6.74194C37.0244 8.22514 39.5336 10.5692 41.2185 13.478C42.9033 16.3867 43.6882 19.7296 43.4739 23.0843C43.176 27.5864 41.1049 31.7867 37.7146 34.7641C34.3244 37.7414 29.8918 39.2527 25.3889 38.9666Z" fill="url(#paint46_linear_2_423)"/>
<path opacity="0.960784" d="M25.8142 39.0053C22.4315 38.8323 19.1761 37.6598 16.46 35.636C13.7439 33.6123 11.6892 30.8283 10.556 27.6364C9.42269 24.4444 9.26177 20.9881 10.0936 17.7047C10.9254 14.4213 12.7125 11.4584 15.2288 9.19101C17.7451 6.92365 20.8774 5.4537 24.2294 4.96719C27.5814 4.48068 31.0024 4.99949 34.0595 6.45794C37.1165 7.9164 39.6722 10.2489 41.4031 13.1604C43.134 16.0718 43.9624 19.4313 43.7833 22.8137C43.5435 27.3422 41.5168 31.5906 38.1478 34.6262C34.7789 37.6619 30.3431 39.2368 25.8142 39.0053Z" fill="url(#paint47_linear_2_423)"/>
<path opacity="0.970588" d="M26.2391 39.0439C22.8401 38.9113 19.5568 37.7736 16.8045 35.7746C14.0521 33.7757 11.9545 31.0054 10.7768 27.8142C9.59918 24.623 9.39442 21.1541 10.1885 17.8465C10.9825 14.5389 12.7397 11.5411 15.2378 9.23224C17.7359 6.92343 20.8626 5.40736 24.2224 4.8758C27.5822 4.34423 31.0242 4.82105 34.113 6.24595C37.2017 7.67085 39.7986 9.97982 41.5749 12.8808C43.3512 15.7817 44.2273 19.1443 44.0923 22.5433C43.9114 27.0983 41.9292 31.3951 38.5814 34.4893C35.2337 37.5834 30.7943 39.2217 26.2391 39.0439Z" fill="url(#paint48_linear_2_423)"/>
<path opacity="0.980392" d="M26.6641 39.0826C23.2477 38.9973 19.9333 37.9004 17.1404 35.9309C14.3475 33.9613 12.2015 31.2075 10.9742 28.018C9.74682 24.8285 9.49317 21.3465 10.2453 18.0128C10.9975 14.679 12.7216 11.6433 15.1996 9.28978C17.6776 6.93623 20.798 5.37063 24.1661 4.79109C27.5341 4.21154 30.9984 4.64409 34.1205 6.03402C37.2426 7.42394 39.8823 9.70878 41.7055 12.5994C43.5287 15.49 44.4534 18.8564 44.3627 22.2728C44.2413 26.8477 42.3093 31.1874 38.991 34.3391C35.6727 37.4908 31.2392 39.1968 26.6641 39.0826Z" fill="url(#paint49_linear_2_423)"/>
<path opacity="0.990196" d="M27.0891 39.1212C23.6579 39.075 20.3174 38.0125 17.49 36.0679C14.6627 34.1233 12.4754 31.384 11.2048 28.1963C9.93428 25.0087 9.63747 21.5159 10.3519 18.1595C11.0664 14.8032 12.76 11.7341 15.2186 9.34026C17.6773 6.94644 20.7906 5.33541 24.1648 4.7109C27.539 4.0864 31.0227 4.47646 34.1752 5.83175C37.3278 7.18705 40.0077 9.4467 41.876 12.325C43.7444 15.2033 44.7173 18.571 44.6718 22.0023C44.6415 24.2809 44.1627 26.5312 43.2627 28.6247C42.3627 30.7183 41.0591 32.614 39.4263 34.2037C37.7936 35.7934 35.8637 37.0459 33.7469 37.8896C31.63 38.7334 29.3677 39.1518 27.0891 39.1212Z" fill="url(#paint50_linear_2_423)"/>
<path d="M44.9426 21.6931C44.9426 25.14 43.9205 28.5096 42.0055 31.3756C40.0904 34.2416 37.3685 36.4754 34.184 37.7945C30.9994 39.1136 27.4952 39.4587 24.1145 38.7863C20.7337 38.1138 17.6284 36.454 15.191 34.0166C12.7536 31.5792 11.0938 28.4738 10.4213 25.0931C9.74885 21.7124 10.094 18.2082 11.4131 15.0236C12.7321 11.8391 14.966 9.11717 17.832 7.20214C20.698 5.28712 24.0676 4.26498 27.5145 4.26498C29.8032 4.26498 32.0695 4.71578 34.184 5.59162C36.2984 6.46747 38.2197 7.7512 39.838 9.36955C41.4564 10.9879 42.7401 12.9092 43.616 15.0236C44.4918 17.1381 44.9426 19.4044 44.9426 21.6931Z" fill="#ACB1BC"/>
</g>
<path d="M49 21.6931C49.0077 25.9442 47.7541 30.102 45.3978 33.6404C43.0416 37.1788 39.6887 39.9386 35.7634 41.5708C31.8381 43.2029 27.5169 43.6339 23.3465 42.8092C19.1762 41.9846 15.3442 39.9413 12.3355 36.9381C9.3268 33.9348 7.27666 30.1065 6.44449 25.9376C5.61233 21.7688 6.03555 17.4467 7.66061 13.5185C9.28566 9.59026 12.0395 6.23238 15.5736 3.86979C19.1078 1.50721 23.2633 0.246101 27.5144 0.246094C33.2061 0.246085 38.6652 2.50445 42.6934 6.52543C46.7216 10.5464 48.9898 16.0014 49 21.6931Z" fill="url(#paint51_linear_2_423)"/>
<path d="M44.9421 21.6931C44.9421 25.14 43.92 28.5096 42.005 31.3756C40.0899 34.2416 37.3681 36.4754 34.1835 37.7945C30.9989 39.1136 27.4947 39.4587 24.114 38.7863C20.7333 38.1138 17.6279 36.454 15.1905 34.0166C12.7532 31.5792 11.0933 28.4738 10.4208 25.0931C9.74836 21.7124 10.0935 18.2082 11.4126 15.0236C12.7317 11.8391 14.9655 9.11717 17.8315 7.20214C20.6975 5.28712 24.0671 4.26498 27.514 4.26498C29.8027 4.26498 32.069 4.71578 34.1835 5.59162C36.298 6.46747 38.2192 7.7512 39.8376 9.36955C41.4559 10.9879 42.7396 12.9092 43.6155 15.0236C44.4913 17.1381 44.9421 19.4044 44.9421 21.6931Z" fill="url(#paint52_linear_2_423)"/>
<path d="M43.2035 21.6931C43.2111 24.7977 42.2975 27.8349 40.5782 30.42C38.8589 33.0052 36.4112 35.0221 33.5451 36.2155C30.679 37.4089 27.5232 37.7251 24.4773 37.1241C21.4313 36.5231 18.6322 35.0319 16.4342 32.8393C14.2361 30.6467 12.738 27.8512 12.1295 24.8068C11.521 21.7623 11.8294 18.6058 13.0158 15.7367C14.2021 12.8676 16.213 10.415 18.7939 8.68939C21.3748 6.96373 24.4096 6.04258 27.5143 6.04257C31.6686 6.04256 35.6534 7.69023 38.5946 10.6242C41.5357 13.5581 43.1932 17.5388 43.2035 21.6931Z" fill="url(#paint53_linear_2_423)"/>
<defs>
<linearGradient id="paint0_linear_2_423" x1="33.404" y1="11.6617" x2="10.8809" y2="37.5973" gradientUnits="userSpaceOnUse">
<stop stop-color="#183B59"/>
<stop offset="1" stop-color="white" stop-opacity="0"/>
</linearGradient>
<linearGradient id="paint1_linear_2_423" x1="30.095" y1="11.9034" x2="8.15748" y2="37.955" gradientUnits="userSpaceOnUse">
<stop stop-color="#1B3D5B"/>
<stop offset="1" stop-color="#FDFDFE" stop-opacity="0.02"/>
</linearGradient>
<linearGradient id="paint2_linear_2_423" x1="30.4232" y1="8.80274" x2="9.08742" y2="35.2012" gradientUnits="userSpaceOnUse">
<stop stop-color="#1E405D"/>
<stop offset="1" stop-color="#FCFCFC" stop-opacity="0.04"/>
</linearGradient>
<linearGradient id="paint3_linear_2_423" x1="28.6243" y1="13.022" x2="7.74582" y2="39.4929" gradientUnits="userSpaceOnUse">
<stop stop-color="#21425F"/>
<stop offset="1" stop-color="#FAFAFB" stop-opacity="0.06"/>
</linearGradient>
<linearGradient id="paint4_linear_2_423" x1="32.9407" y1="11.843" x2="12.5479" y2="38.7769" gradientUnits="userSpaceOnUse">
<stop stop-color="#244461"/>
<stop offset="1" stop-color="#F8F9FA" stop-opacity="0.08"/>
</linearGradient>
<linearGradient id="paint5_linear_2_423" x1="27.0152" y1="10.9659" x2="7.43319" y2="38.0173" gradientUnits="userSpaceOnUse">
<stop stop-color="#274763"/>
<stop offset="1" stop-color="#F7F7F8" stop-opacity="0.1"/>
</linearGradient>
<linearGradient id="paint6_linear_2_423" x1="29.9128" y1="8.37766" x2="10.9957" y2="35.9308" gradientUnits="userSpaceOnUse">
<stop stop-color="#294965"/>
<stop offset="1" stop-color="#F5F6F7" stop-opacity="0.12"/>
</linearGradient>
<linearGradient id="paint7_linear_2_423" x1="27.2799" y1="12.6607" x2="8.96847" y2="40.3408" gradientUnits="userSpaceOnUse">
<stop stop-color="#2C4B67"/>
<stop offset="1" stop-color="#F4F4F6" stop-opacity="0.14"/>
</linearGradient>
<linearGradient id="paint8_linear_2_423" x1="27.5774" y1="9.54704" x2="10.1317" y2="37.6841" gradientUnits="userSpaceOnUse">
<stop stop-color="#2F4E69"/>
<stop offset="1" stop-color="#F2F3F4" stop-opacity="0.16"/>
</linearGradient>
<linearGradient id="paint9_linear_2_423" x1="26.8594" y1="10.1556" x2="10.2179" y2="38.6341" gradientUnits="userSpaceOnUse">
<stop stop-color="#32506A"/>
<stop offset="1" stop-color="#F0F1F3" stop-opacity="0.18"/>
</linearGradient>
<linearGradient id="paint10_linear_2_423" x1="28.9443" y1="7.78454" x2="13.2412" y2="36.8115" gradientUnits="userSpaceOnUse">
<stop stop-color="#35526C"/>
<stop offset="1" stop-color="#EFF0F2" stop-opacity="0.2"/>
</linearGradient>
<linearGradient id="paint11_linear_2_423" x1="23.3542" y1="9.03617" x2="8.68241" y2="38.2078" gradientUnits="userSpaceOnUse">
<stop stop-color="#38546E"/>
<stop offset="1" stop-color="#EDEEF1" stop-opacity="0.22"/>
</linearGradient>
<linearGradient id="paint12_linear_2_423" x1="30.1401" y1="12.1545" x2="16.2393" y2="42.0155" gradientUnits="userSpaceOnUse">
<stop stop-color="#3B5770"/>
<stop offset="1" stop-color="#EBEDEF" stop-opacity="0.24"/>
</linearGradient>
<linearGradient id="paint13_linear_2_423" x1="26.6564" y1="8.66021" x2="14.1419" y2="38.8729" gradientUnits="userSpaceOnUse">
<stop stop-color="#3E5972"/>
<stop offset="1" stop-color="#EAEBEE" stop-opacity="0.25"/>
</linearGradient>
<linearGradient id="paint14_linear_2_423" x1="21.5049" y1="7.91891" x2="10.3725" y2="38.3396" gradientUnits="userSpaceOnUse">
<stop stop-color="#415B74"/>
<stop offset="1" stop-color="#E8EAED" stop-opacity="0.27"/>
</linearGradient>
<linearGradient id="paint15_linear_2_423" x1="25.8701" y1="8.01592" x2="16.0713" y2="39.0936" gradientUnits="userSpaceOnUse">
<stop stop-color="#445E76"/>
<stop offset="1" stop-color="#E7E8EB" stop-opacity="0.29"/>
</linearGradient>
<linearGradient id="paint16_linear_2_423" x1="28.9164" y1="8.53098" x2="20.6103" y2="40.1921" gradientUnits="userSpaceOnUse">
<stop stop-color="#466078"/>
<stop offset="1" stop-color="#E5E7EA" stop-opacity="0.31"/>
</linearGradient>
<linearGradient id="paint17_linear_2_423" x1="18.9707" y1="7.06935" x2="12.4997" y2="38.5933" gradientUnits="userSpaceOnUse">
<stop stop-color="#49627A"/>
<stop offset="1" stop-color="#E3E5E9" stop-opacity="0.33"/>
</linearGradient>
<linearGradient id="paint18_linear_2_423" x1="24.3958" y1="6.29925" x2="19.8038" y2="38.4436" gradientUnits="userSpaceOnUse">
<stop stop-color="#4C657C"/>
<stop offset="1" stop-color="#E2E3E7" stop-opacity="0.35"/>
</linearGradient>
<linearGradient id="paint19_linear_2_423" x1="27.573" y1="7.65849" x2="24.9528" y2="40.225" gradientUnits="userSpaceOnUse">
<stop stop-color="#4F677E"/>
<stop offset="1" stop-color="#E0E2E6" stop-opacity="0.37"/>
</linearGradient>
<linearGradient id="paint20_linear_2_423" x1="22.1443" y1="7.78402" x2="21.6919" y2="40.1792" gradientUnits="userSpaceOnUse">
<stop stop-color="#526980"/>
<stop offset="1" stop-color="#DEE0E5" stop-opacity="0.39"/>
</linearGradient>
<linearGradient id="paint21_linear_2_423" x1="26.2777" y1="8.29084" x2="28.2154" y2="40.9064" gradientUnits="userSpaceOnUse">
<stop stop-color="#556C82"/>
<stop offset="1" stop-color="#DDDFE3" stop-opacity="0.41"/>
</linearGradient>
<linearGradient id="paint22_linear_2_423" x1="20.3126" y1="6.06901" x2="24.7835" y2="38.1108" gradientUnits="userSpaceOnUse">
<stop stop-color="#586E84"/>
<stop offset="1" stop-color="#DBDDE2" stop-opacity="0.43"/>
</linearGradient>
<linearGradient id="paint23_linear_2_423" x1="12.4454" y1="6.21949" x2="19.3053" y2="37.4201" gradientUnits="userSpaceOnUse">
<stop stop-color="#5B7086"/>
<stop offset="1" stop-color="#DADCE1" stop-opacity="0.45"/>
</linearGradient>
<linearGradient id="paint24_linear_2_423" x1="18.7907" y1="8.07567" x2="28.3736" y2="39.0331" gradientUnits="userSpaceOnUse">
<stop stop-color="#5E7388"/>
<stop offset="1" stop-color="#D8DADF" stop-opacity="0.47"/>
</linearGradient>
<linearGradient id="paint25_linear_2_423" x1="21.3977" y1="9.38728" x2="33.6821" y2="39.6401" gradientUnits="userSpaceOnUse">
<stop stop-color="#61758A"/>
<stop offset="1" stop-color="#D6D9DE" stop-opacity="0.49"/>
</linearGradient>
<linearGradient id="paint26_linear_2_423" x1="20.1473" y1="10.162" x2="34.9783" y2="39.2694" gradientUnits="userSpaceOnUse">
<stop stop-color="#63778B"/>
<stop offset="1" stop-color="#D5D7DD" stop-opacity="0.51"/>
</linearGradient>
<linearGradient id="paint27_linear_2_423" x1="15.5909" y1="9.59857" x2="32.7408" y2="37.1509" gradientUnits="userSpaceOnUse">
<stop stop-color="#66798D"/>
<stop offset="1" stop-color="#D3D6DC" stop-opacity="0.53"/>
</linearGradient>
<linearGradient id="paint28_linear_2_423" x1="8.07089" y1="7.75331" x2="27.2091" y2="33.4291" gradientUnits="userSpaceOnUse">
<stop stop-color="#697C8F"/>
<stop offset="1" stop-color="#D1D4DA" stop-opacity="0.55"/>
</linearGradient>
<linearGradient id="paint29_linear_2_423" x1="8.6187" y1="8.99773" x2="29.8387" y2="33.1519" gradientUnits="userSpaceOnUse">
<stop stop-color="#6C7E91"/>
<stop offset="1" stop-color="#D0D3D9" stop-opacity="0.57"/>
</linearGradient>
<linearGradient id="paint30_linear_2_423" x1="12.6834" y1="9.80006" x2="36.019" y2="32.4064" gradientUnits="userSpaceOnUse">
<stop stop-color="#6F8093"/>
<stop offset="1" stop-color="#CED1D8" stop-opacity="0.59"/>
</linearGradient>
<linearGradient id="paint31_linear_2_423" x1="11.0865" y1="16.233" x2="35.8686" y2="37.4748" gradientUnits="userSpaceOnUse">
<stop stop-color="#728395"/>
<stop offset="1" stop-color="#CDD0D6" stop-opacity="0.61"/>
</linearGradient>
<linearGradient id="paint32_linear_2_423" x1="6.96606" y1="12.2523" x2="32.9942" y2="31.4309" gradientUnits="userSpaceOnUse">
<stop stop-color="#758597"/>
<stop offset="1" stop-color="#CBCED5" stop-opacity="0.63"/>
</linearGradient>
<linearGradient id="paint33_linear_2_423" x1="14.2044" y1="16.6541" x2="41.9563" y2="34.4946" gradientUnits="userSpaceOnUse">
<stop stop-color="#788799"/>
<stop offset="1" stop-color="#C9CDD4" stop-opacity="0.65"/>
</linearGradient>
<linearGradient id="paint34_linear_2_423" x1="6.62934" y1="12.6046" x2="34.9222" y2="28.4818" gradientUnits="userSpaceOnUse">
<stop stop-color="#7B8A9B"/>
<stop offset="1" stop-color="#C8CBD2" stop-opacity="0.67"/>
</linearGradient>
<linearGradient id="paint35_linear_2_423" x1="8.68379" y1="17.7521" x2="38.0446" y2="32.4325" gradientUnits="userSpaceOnUse">
<stop stop-color="#7E8C9D"/>
<stop offset="1" stop-color="#C6C9D1" stop-opacity="0.69"/>
</linearGradient>
<linearGradient id="paint36_linear_2_423" x1="9.89906" y1="16.2265" x2="40.1047" y2="29.2976" gradientUnits="userSpaceOnUse">
<stop stop-color="#808E9F"/>
<stop offset="1" stop-color="#C4C8D0" stop-opacity="0.71"/>
</linearGradient>
<linearGradient id="paint37_linear_2_423" x1="6.96801" y1="14.8982" x2="37.5793" y2="26.5263" gradientUnits="userSpaceOnUse">
<stop stop-color="#8391A1"/>
<stop offset="1" stop-color="#C3C6CE" stop-opacity="0.73"/>
</linearGradient>
<linearGradient id="paint38_linear_2_423" x1="9.64664" y1="17.3352" x2="41.0436" y2="27.7796" gradientUnits="userSpaceOnUse">
<stop stop-color="#8693A3"/>
<stop offset="1" stop-color="#C1C5CD" stop-opacity="0.75"/>
</linearGradient>
<linearGradient id="paint39_linear_2_423" x1="11.4939" y1="19.2752" x2="43.5393" y2="28.5852" gradientUnits="userSpaceOnUse">
<stop stop-color="#8995A5"/>
<stop offset="1" stop-color="#C0C3CC" stop-opacity="0.76"/>
</linearGradient>
<linearGradient id="paint40_linear_2_423" x1="7.55889" y1="16.6804" x2="39.6448" y2="24.7994" gradientUnits="userSpaceOnUse">
<stop stop-color="#8C98A7"/>
<stop offset="1" stop-color="#BEC2CA" stop-opacity="0.78"/>
</linearGradient>
<linearGradient id="paint41_linear_2_423" x1="11.0452" y1="21.0848" x2="43.8683" y2="28.3252" gradientUnits="userSpaceOnUse">
<stop stop-color="#8F9AA9"/>
<stop offset="1" stop-color="#BCC0C9" stop-opacity="0.8"/>
</linearGradient>
<linearGradient id="paint42_linear_2_423" x1="8.86075" y1="19.1118" x2="41.7609" y2="25.3284" gradientUnits="userSpaceOnUse">
<stop stop-color="#929CAB"/>
<stop offset="1" stop-color="#BBBFC8" stop-opacity="0.82"/>
</linearGradient>
<linearGradient id="paint43_linear_2_423" x1="9.32698" y1="19.613" x2="42.5435" y2="24.9334" gradientUnits="userSpaceOnUse">
<stop stop-color="#959EAC"/>
<stop offset="1" stop-color="#B9BDC7" stop-opacity="0.84"/>
</linearGradient>
<linearGradient id="paint44_linear_2_423" x1="9.66162" y1="19.7407" x2="43.1387" y2="24.2075" gradientUnits="userSpaceOnUse">
<stop stop-color="#98A1AE"/>
<stop offset="1" stop-color="#B7BCC5" stop-opacity="0.86"/>
</linearGradient>
<linearGradient id="paint45_linear_2_423" x1="9.3766" y1="20.1141" x2="43.0678" y2="23.8336" gradientUnits="userSpaceOnUse">
<stop stop-color="#9BA3B0"/>
<stop offset="1" stop-color="#B6BAC4" stop-opacity="0.88"/>
</linearGradient>
<linearGradient id="paint46_linear_2_423" x1="8.92605" y1="20.2944" x2="42.8001" y2="23.3176" gradientUnits="userSpaceOnUse">
<stop stop-color="#9DA5B2"/>
<stop offset="1" stop-color="#B4B9C3" stop-opacity="0.9"/>
</linearGradient>
<linearGradient id="paint47_linear_2_423" x1="9.30271" y1="20.932" x2="43.4199" y2="23.2849" gradientUnits="userSpaceOnUse">
<stop stop-color="#A0A8B4"/>
<stop offset="1" stop-color="#B3B7C1" stop-opacity="0.92"/>
</linearGradient>
<linearGradient id="paint48_linear_2_423" x1="8.83284" y1="19.4679" x2="43.0109" y2="21.1395" gradientUnits="userSpaceOnUse">
<stop stop-color="#A3AAB6"/>
<stop offset="1" stop-color="#B1B6C0" stop-opacity="0.94"/>
</linearGradient>
<linearGradient id="paint49_linear_2_423" x1="11.0081" y1="23.2282" x2="45.6981" y2="24.3353" gradientUnits="userSpaceOnUse">
<stop stop-color="#A6ACB8"/>
<stop offset="1" stop-color="#AFB4BF" stop-opacity="0.96"/>
</linearGradient>
<linearGradient id="paint50_linear_2_423" x1="10.3484" y1="22.4934" x2="45.1217" y2="23.0396" gradientUnits="userSpaceOnUse">
<stop stop-color="#A9AFBA"/>
<stop offset="1" stop-color="#AEB3BD" stop-opacity="0.98"/>
</linearGradient>
<linearGradient id="paint51_linear_2_423" x1="6.0597" y1="21.7085" x2="48.9923" y2="21.7085" gradientUnits="userSpaceOnUse">
<stop stop-color="#3F8CFF"/>
<stop offset="1" stop-color="#60B9A6"/>
</linearGradient>
<linearGradient id="paint52_linear_2_423" x1="10.0898" y1="21.7085" x2="44.9614" y2="21.7085" gradientUnits="userSpaceOnUse">
<stop stop-color="#DCDDDE"/>
<stop offset="1" stop-color="white"/>
</linearGradient>
<linearGradient id="paint53_linear_2_423" x1="11.8599" y1="21.7085" x2="43.1919" y2="21.7085" gradientUnits="userSpaceOnUse">
<stop stop-color="white"/>
<stop offset="1" stop-color="#DCDDDE"/>
</linearGradient>
</defs>
</svg>
