<svg width="48" height="42" viewBox="0 0 48 42" fill="none" xmlns="http://www.w3.org/2000/svg">
<path d="M47.4657 20.8222C47.4657 24.9421 46.2435 28.9693 43.9539 32.3943C41.6643 35.8193 38.4101 38.4881 34.6031 40.063C30.7962 41.6379 26.6076 42.048 22.5675 41.2415C18.5274 40.4351 14.8173 38.4482 11.9067 35.5324C8.99618 32.6167 7.01603 28.903 6.21683 24.8614C5.41764 20.8199 5.83534 16.632 7.41707 12.8279C8.99879 9.02384 11.6735 5.77445 15.1026 3.49098C18.5317 1.20752 22.5611 -0.00737608 26.681 3.36935e-05C32.1969 0.00995439 37.4834 2.20809 41.3803 6.11194C45.2771 10.0158 47.4657 15.3063 47.4657 20.8222Z" fill="#4A9CFF"/>
<g style="mix-blend-mode:multiply">
<path opacity="0.5" d="M5.67134 35.952C3.20917 33.8086 1.43745 30.9835 0.579952 27.8337C-0.277543 24.6839 -0.182331 21.3506 0.853535 18.2549C1.8894 15.1591 3.81946 12.4398 6.39995 10.4404C8.98043 8.44093 12.0956 7.25108 15.3519 7.02109C18.6083 6.79111 21.8597 7.53132 24.6956 9.14821C27.5315 10.7651 29.8246 13.1862 31.2853 16.1056C32.746 19.025 33.3088 22.3118 32.9025 25.5509C32.4962 28.79 31.1391 31.836 29.0027 34.3042C26.1252 37.6134 22.0522 39.6455 17.6779 39.9544C13.3035 40.2634 8.98535 38.8239 5.67134 35.952Z" fill="url(#paint0_linear_2_482)"/>
<path opacity="0.509804" d="M6.08304 35.9895C3.58826 33.8887 1.77298 31.0949 0.867109 27.9617C-0.0387647 24.8286 0.00550401 21.4971 0.994312 18.3892C1.98312 15.2812 3.87198 12.5366 6.4217 10.5029C8.97143 8.46916 12.0673 7.23783 15.3174 6.96481C18.5674 6.69179 21.8253 7.38936 24.6786 8.96919C27.5319 10.549 29.8522 12.94 31.3456 15.8395C32.8391 18.7389 33.4385 22.0163 33.0681 25.2567C32.6976 28.497 31.3739 31.5545 29.2646 34.0421C27.8739 35.6973 26.1697 37.0614 24.2501 38.0557C22.3304 39.0501 20.2331 39.6551 18.0787 39.8361C15.9244 40.0171 13.7556 39.7704 11.6969 39.1103C9.63825 38.4501 7.73039 37.3895 6.08304 35.9895Z" fill="url(#paint1_linear_2_482)"/>
<path opacity="0.519608" d="M6.49507 36.0269C3.98689 33.9674 2.146 31.2102 1.20535 28.1041C0.264699 24.9981 0.266546 21.6828 1.2107 18.5778C2.15485 15.4728 3.99887 12.7176 6.50938 10.661C9.01988 8.60431 12.084 7.33859 15.3141 7.02397C18.5442 6.70935 21.7951 7.35998 24.6553 8.89351C27.5155 10.427 29.8565 12.7746 31.3821 15.639C32.9076 18.5035 33.5493 21.7561 33.2257 24.9853C32.9021 28.2145 31.6279 31.2751 29.5643 33.7799C28.1989 35.4449 26.5185 36.8241 24.6192 37.8384C22.7199 38.8528 20.6391 39.4824 18.496 39.6911C16.3529 39.8998 14.1898 39.6836 12.1304 39.0549C10.0711 38.4261 8.15604 37.3971 6.49507 36.0269Z" fill="url(#paint2_linear_2_482)"/>
<path opacity="0.529412" d="M6.90705 36.0644C4.38649 34.0461 2.52095 31.3258 1.54627 28.2473C0.571593 25.1689 0.531563 21.8706 1.43123 18.7694C2.33089 15.6682 4.12986 12.9034 6.60069 10.8246C9.07152 8.74569 12.1033 7.44609 15.3126 7.09007C18.522 6.73406 21.7648 7.33762 24.6312 8.82444C27.4976 10.3113 29.8587 12.6146 31.4162 15.4432C32.9737 18.2718 33.6575 21.4987 33.3812 24.7159C33.1049 27.9331 31.8809 30.9961 29.8639 33.5178C28.5241 35.1928 26.8674 36.5875 24.9884 37.6221C23.1094 38.6567 21.045 39.3109 18.9131 39.5474C16.7812 39.7839 14.6236 39.598 12.5635 39.0004C10.5035 38.4027 8.5814 37.4051 6.90705 36.0644Z" fill="url(#paint3_linear_2_482)"/>
<path opacity="0.539216" d="M7.31899 36.1018C4.78171 34.1279 2.88677 31.4458 1.87384 28.3949C0.860901 25.3439 0.775458 22.0611 1.6283 18.9616C2.48114 15.8621 4.23398 13.0851 6.66512 10.9818C9.09627 8.87855 12.0965 7.54344 15.2865 7.14535C18.4764 6.74726 21.7128 7.30407 24.5863 8.74537C27.4598 10.1867 29.8413 12.4477 31.4298 15.2426C33.0182 18.0374 33.7422 21.2405 33.5101 24.4468C33.278 27.6532 32.1004 30.7186 30.126 33.2556C27.4789 36.6572 23.589 38.868 19.3119 39.4017C15.0349 39.9355 10.7209 38.7485 7.31899 36.1018Z" fill="url(#paint4_linear_2_482)"/>
<path opacity="0.54902" d="M7.73089 36.1393C5.17039 34.2059 3.24098 31.5564 2.18683 28.526C1.13268 25.4957 1.00119 22.2207 1.80897 19.1156C2.61676 16.0105 4.3275 13.2148 6.72474 11.0824C9.12198 8.94989 12.0979 7.57649 15.276 7.13597C18.4541 6.69545 21.6914 7.2076 24.5783 8.60762C27.4652 10.0076 29.8719 12.2326 31.4938 15.0009C33.1157 17.7692 33.88 20.9564 33.6898 24.1593C33.4997 27.3621 32.3637 30.4365 30.4256 32.9935C29.1439 34.6926 27.5394 36.1222 25.7043 37.2003C23.8691 38.2783 21.8393 38.9837 19.731 39.2759C17.6228 39.5681 15.4776 39.4415 13.4184 38.9032C11.3592 38.365 9.42647 37.4257 7.73089 36.1393Z" fill="url(#paint5_linear_2_482)"/>
<path opacity="0.558824" d="M8.14292 36.1767C5.57315 34.2843 3.62202 31.6727 2.53612 28.6717C1.45022 25.6708 1.27829 22.4153 2.04205 19.3167C2.80581 16.2181 4.47098 13.4154 6.82712 11.2629C9.18327 9.11037 12.1246 7.70461 15.2795 7.22328C18.4343 6.74194 21.6611 7.20663 24.5519 8.55862C27.4427 9.91061 29.8679 12.0892 31.5209 14.8191C33.1739 17.549 33.9806 20.7076 33.839 23.8958C33.6974 27.0841 32.6138 30.1587 30.7253 32.7313C29.4697 34.4416 27.8893 35.8876 26.0744 36.9865C24.2595 38.0855 22.2458 38.8159 20.1484 39.1359C18.051 39.4559 15.9111 39.3592 13.8511 38.8515C11.7911 38.3437 9.85135 37.4348 8.14292 36.1767Z" fill="url(#paint6_linear_2_482)"/>
<path opacity="0.568627" d="M8.555 36.2142C5.95658 34.3698 3.96375 31.796 2.82872 28.8186C1.6937 25.8411 1.46751 22.5939 2.17879 19.4878C2.89007 16.3818 4.50684 13.5566 6.82447 11.3698C9.14209 9.18297 12.0564 7.7329 15.1985 7.2031C18.3406 6.6733 21.5692 7.08758 24.4758 8.3935C27.3823 9.69943 29.8361 11.8383 31.5265 14.5394C33.217 17.2405 34.0681 20.3823 33.9721 23.5673C33.8762 26.7523 32.8375 29.8373 30.9876 32.4317C28.5115 35.9042 24.759 38.2527 20.5534 38.9618C16.3479 39.6709 12.0328 38.6828 8.555 36.2142Z" fill="url(#paint7_linear_2_482)"/>
<path opacity="0.578431" d="M8.9666 36.2516C6.34825 34.4481 4.32389 31.9082 3.14979 28.9536C1.97568 25.9989 1.70463 22.7623 2.37096 19.6535C3.03729 16.5447 4.61103 13.7035 6.89296 11.4896C9.17488 9.27573 12.0624 7.78867 15.1899 7.21669C18.3174 6.64471 21.5443 7.01354 24.4621 8.27649C27.3799 9.53944 29.8574 11.6397 31.5809 14.3114C33.3044 16.9832 34.1964 20.1062 34.1441 23.2851C34.0917 26.4641 33.0973 29.5561 31.2868 32.1696C30.0907 33.9049 28.564 35.3872 26.7943 36.5318C25.0246 37.6763 23.0465 38.4606 20.9733 38.8398C18.9001 39.2189 16.7725 39.1855 14.7122 38.7414C12.652 38.2973 10.6995 37.4512 8.9666 36.2516Z" fill="url(#paint8_linear_2_482)"/>
<path opacity="0.588235" d="M9.3786 36.2516C6.75096 34.4889 4.70534 31.9862 3.50061 29.0604C2.29588 26.1346 1.98621 22.9172 2.61079 19.8153C3.23536 16.7135 4.76612 13.8666 7.00931 11.635C9.2525 9.4035 12.1073 7.88759 15.2124 7.27916C18.3175 6.67073 21.5332 6.99714 24.4527 8.21708C27.3722 9.43702 29.8642 11.4956 31.6132 14.1324C33.3623 16.7692 34.2898 19.8656 34.2783 23.0297C34.2669 26.1938 33.3171 29.2834 31.549 31.9074C30.3837 33.6545 28.8842 35.1538 27.1369 36.3187C25.3896 37.4837 23.4291 38.2914 21.3682 38.6952C19.3074 39.099 17.1869 39.091 15.1292 38.6716C13.0714 38.2522 11.117 37.4298 9.3786 36.2516Z" fill="url(#paint9_linear_2_482)"/>
<path opacity="0.598039" d="M9.79057 36.2891C7.14504 34.5671 5.06978 32.0991 3.82742 29.1973C2.58506 26.2955 2.23144 23.0903 2.81131 19.9875C3.39117 16.8846 4.87847 14.0236 7.08498 11.7663C9.29148 9.50901 12.118 7.95703 15.2069 7.30675C18.2957 6.65646 21.5081 6.9371 24.4374 8.11314C27.3667 9.28919 29.8813 11.3078 31.663 13.9135C33.4446 16.5191 34.4133 19.5948 34.4463 22.7512C34.4794 25.9076 33.5753 29.0029 31.8486 31.6453C30.7073 33.4009 29.2307 34.9141 27.5035 36.098C25.7763 37.282 23.8324 38.1135 21.7833 38.5449C19.7342 38.9763 17.6201 38.9991 15.5622 38.612C13.5042 38.2249 11.5429 37.4355 9.79057 36.2891Z" fill="url(#paint10_linear_2_482)"/>
<path opacity="0.607843" d="M10.2025 36.3265C7.54013 34.6453 5.43626 32.2122 4.15706 29.335C2.87787 26.4578 2.48082 23.2658 3.01615 20.1629C3.55148 17.06 4.99512 14.1856 7.16445 11.9034C9.33378 9.62115 12.1313 8.03364 15.2031 7.3417C18.2748 6.64977 21.4828 6.8845 24.4212 8.0162C27.3595 9.1479 29.8962 11.1257 31.7102 13.6994C33.5242 16.2731 34.5341 19.327 34.612 22.4748C34.69 25.6226 33.8325 28.7228 32.1482 31.3831C31.0343 33.1515 29.5824 34.6827 27.8755 35.8887C26.1687 37.0948 24.2405 37.952 22.2017 38.4113C20.1628 38.8705 18.0534 38.9228 15.9943 38.565C13.9352 38.2073 11.9669 37.4466 10.2025 36.3265Z" fill="url(#paint11_linear_2_482)"/>
<path opacity="0.617647" d="M10.6145 36.364C7.94413 34.7268 5.81907 32.3348 4.50784 29.4902C3.19662 26.6457 2.7581 23.4762 3.24772 20.3825C3.73735 17.2887 5.13313 14.4096 7.25865 12.1089C9.38417 9.80821 12.144 8.18929 15.1894 7.45672C18.2348 6.72416 21.4289 6.91084 24.3682 7.99318C27.3076 9.07551 29.86 11.0049 31.7031 13.5375C33.5461 16.0702 34.597 19.0923 34.7229 22.222C34.8488 25.3517 34.044 28.4485 32.4104 31.121C31.3245 32.8974 29.899 34.4424 28.2155 35.6675C26.532 36.8926 24.6236 37.7738 22.5993 38.2607C20.575 38.7477 18.4745 38.8308 16.4181 38.5053C14.3616 38.1799 12.3895 37.4522 10.6145 36.364Z" fill="url(#paint12_linear_2_482)"/>
<path opacity="0.627451" d="M11.0266 36.4014C8.3288 34.8056 6.16501 32.4454 4.80911 29.6194C3.4532 26.7933 2.96615 23.6286 3.40958 20.5256C3.85301 17.4227 5.207 14.5211 7.30018 12.1879C9.39337 9.85481 12.1316 8.1951 15.1685 7.41885C18.2053 6.64259 21.4041 6.7847 24.3602 7.82717C27.3162 8.86965 29.8966 10.7656 31.7746 13.2752C33.6527 15.7847 34.744 18.795 34.9106 21.925C35.0771 25.0551 34.3113 28.1642 32.7102 30.8588C31.6524 32.6487 30.2519 34.2122 28.5888 35.4598C26.9257 36.7075 25.0329 37.6148 23.0186 38.1296C21.0043 38.6445 18.9082 38.7569 16.8504 38.4603C14.7926 38.1638 12.8136 37.4641 11.0266 36.4014Z" fill="url(#paint13_linear_2_482)"/>
<path opacity="0.637255" d="M11.4384 36.4389C8.72706 34.8835 6.53784 32.5589 5.14762 29.7593C3.75741 26.9596 3.22864 23.8106 3.62818 20.7104C4.02773 17.6102 5.33764 14.6982 7.39227 12.3425C9.44689 9.98678 12.1539 8.29328 15.1711 7.47614C18.1882 6.659 21.3799 6.75493 24.3425 7.75179C27.3051 8.74865 29.9055 10.6017 31.815 13.0765C33.7244 15.5513 34.8571 18.5368 35.0697 21.6554C35.2824 24.774 34.5654 27.8856 33.0096 30.5967C30.9236 34.2317 27.4791 36.8892 23.4338 37.9848C19.3886 39.0804 15.0737 38.5243 11.4384 36.4389Z" fill="url(#paint14_linear_2_482)"/>
<path opacity="0.647059" d="M11.8504 36.4763C9.12154 34.9656 6.90212 32.6795 5.47289 29.9072C4.04365 27.1348 3.46882 24.0008 3.82112 20.9017C4.17343 17.8026 5.43702 14.8776 7.45206 12.4968C9.4671 10.116 12.143 8.38641 15.1413 7.52677C18.1396 6.66712 21.3254 6.7161 24.2959 7.6675C27.2663 8.61891 29.8878 10.43 31.8287 12.8716C33.7696 15.3132 34.9427 18.2757 35.1996 21.3841C35.4564 24.4926 34.7855 27.6074 33.2718 30.3345C32.2713 32.1471 30.9227 33.7443 29.3036 35.0346C27.6844 36.3248 25.8265 37.2827 23.8363 37.8533C21.8462 38.4239 19.7629 38.596 17.7061 38.3597C15.6492 38.1234 13.6593 37.4834 11.8504 36.4763Z" fill="url(#paint15_linear_2_482)"/>
<path opacity="0.656863" d="M12.2622 36.5138C9.52206 35.043 7.27943 32.793 5.81771 30.0481C4.35599 27.3031 3.74076 24.1865 4.04978 21.092C4.35881 17.9976 5.57823 15.0641 7.55391 12.6625C9.52959 10.2608 12.1729 8.49872 15.1497 7.59887C18.1265 6.69902 21.3033 6.7018 24.2786 7.60687C27.2538 8.51193 29.894 10.2787 31.8655 12.6838C33.8369 15.0889 35.0512 18.0245 35.3548 21.1195C35.6584 24.2145 35.0377 27.33 33.5712 30.0724C32.5962 31.8957 31.2712 33.5088 29.6722 34.8195C28.0731 36.1303 26.2313 37.1129 24.2522 37.7112C22.273 38.3094 20.1953 38.5116 18.138 38.3062C16.0806 38.1007 14.0839 37.4916 12.2622 36.5138Z" fill="url(#paint16_linear_2_482)"/>
<path opacity="0.666667" d="M12.6742 36.5512C9.90615 35.1266 7.62312 32.9126 6.1142 30.1896C4.60527 27.4666 3.93833 24.3571 4.19781 21.2548C4.45729 18.1525 5.63154 15.1969 7.57185 12.7624C9.51216 10.328 12.1313 8.52399 15.0975 7.57899C18.0637 6.63399 21.2437 6.59047 24.2347 7.45393C27.2257 8.3174 29.8932 10.049 31.8994 12.4295C33.9056 14.81 35.1603 17.7323 35.5046 20.8263C35.8489 23.9203 35.2673 27.0469 33.8334 29.8102C31.9163 33.505 28.6127 36.2891 24.6466 37.5526C20.6805 38.8162 16.3753 38.4561 12.6742 36.5512Z" fill="url(#paint17_linear_2_482)"/>
<path opacity="0.676471" d="M13.0862 36.5887C10.3091 35.2035 8.0051 33.026 6.46553 30.3314C4.92596 27.6369 4.21996 24.5463 4.4368 21.4505C4.65363 18.3547 5.78357 15.3928 7.68373 12.9391C9.58389 10.4855 12.1689 8.65043 15.112 7.66591C18.0551 6.6814 21.224 6.59168 24.218 7.4081C27.2121 8.22451 29.8968 9.9104 31.9328 12.2526C33.9687 14.5948 35.2644 17.4881 35.6561 20.5666C36.0477 23.6452 35.5177 26.7707 34.1331 29.5481C32.2685 33.2659 29.0074 36.0938 25.0631 37.4133C21.1188 38.7327 16.8124 38.4362 13.0862 36.5887Z" fill="url(#paint18_linear_2_482)"/>
<path opacity="0.686275" d="M13.4983 36.6261C10.7005 35.282 8.3641 33.1384 6.78474 30.4663C5.20538 27.7943 4.45398 24.7138 4.62556 21.6146C4.79714 18.5155 5.884 15.5368 7.74867 13.0554C9.61334 10.574 12.172 8.70134 15.1011 7.67433C18.0302 6.64731 21.1981 6.51206 24.2041 7.28568C27.2101 8.05931 29.9191 9.70705 31.9884 12.0205C34.0578 14.3339 35.3946 17.2091 35.8297 20.2824C36.2648 23.3557 35.7787 26.489 34.4328 29.2859C32.6291 33.0344 29.4107 35.9133 25.4851 37.2897C21.5595 38.6662 17.248 38.4275 13.4983 36.6261Z" fill="url(#paint19_linear_2_482)"/>
<path opacity="0.696078" d="M13.9102 36.6261C11.1014 35.3228 8.74215 33.2157 7.13097 30.5714C5.51979 27.9271 4.72902 24.8643 4.85871 21.7706C4.9884 18.6768 6.03272 15.691 7.85956 13.1908C9.68639 10.6906 12.2137 8.78835 15.1218 7.72467C18.0298 6.661 21.188 6.48368 24.1969 7.21513C27.2058 7.94659 29.9301 9.55397 32.0253 11.8339C34.1206 14.1139 35.4926 16.9641 35.9678 20.0239C36.443 23.0837 36 26.2157 34.695 29.0238C32.9459 32.7873 29.7739 35.7022 25.8764 37.1277C21.9789 38.5533 17.6748 38.3729 13.9102 36.6261Z" fill="url(#paint20_linear_2_482)"/>
<path opacity="0.705882" d="M14.3222 36.6636C11.4948 35.401 9.10527 33.3283 7.456 30.7076C5.80672 28.0868 4.97174 25.0358 5.05667 21.9405C5.1416 18.8451 6.14262 15.8445 7.93313 13.3181C9.72363 10.7918 12.2232 8.85317 15.1156 7.74756C18.008 6.64195 21.1633 6.41899 24.1825 7.10689C27.2016 7.79478 29.9489 9.36262 32.0769 11.6121C34.2048 13.8616 35.6179 16.6916 36.1372 19.7443C36.6566 22.7969 36.2589 25.935 34.9946 28.7616C33.3001 32.5499 30.1706 35.5103 26.2942 36.9921C22.4177 38.4738 18.1115 38.3557 14.3222 36.6636Z" fill="url(#paint21_linear_2_482)"/>
<path opacity="0.715686" d="M14.7341 36.701C11.8888 35.482 9.46874 33.4469 7.77988 30.8528C6.09102 28.2587 5.20914 25.2221 5.24572 22.1269C5.2823 19.0317 6.2357 16.0168 7.9854 13.4634C9.73509 10.9099 12.2025 8.93249 15.0758 7.78108C17.9491 6.62967 21.0993 6.35594 24.1281 6.99451C27.1569 7.63309 29.9285 9.15528 32.0924 11.3687C34.2563 13.5821 35.7153 16.3873 36.2852 19.4299C36.8551 22.4724 36.5102 25.6155 35.2941 28.462C34.4899 30.3569 33.3191 32.0741 31.8489 33.5148C30.3787 34.9556 28.6382 36.0915 26.7274 36.8572C24.8167 37.6229 22.7734 38.0033 20.7152 37.9765C18.6569 37.9497 16.6242 37.5162 14.7341 36.701Z" fill="url(#paint22_linear_2_482)"/>
<path opacity="0.72549" d="M15.146 36.7385C12.2799 35.5652 9.82624 33.5682 8.09541 31.0001C6.36457 28.432 5.43437 25.4082 5.42248 22.3113C5.41059 19.2144 6.31755 16.1836 8.02862 13.6023C9.73969 11.0209 12.178 9.00515 15.035 7.80994C17.892 6.61472 21.0393 6.29378 24.0787 6.88773C27.1181 7.48168 29.9131 8.96382 32.11 11.1466C34.3069 13.3295 35.8069 16.1148 36.4204 19.1504C37.0338 22.186 36.7331 25.3353 35.5562 28.1999C34.7797 30.103 33.6351 31.8341 32.1881 33.294C30.7411 34.7538 29.0202 35.9136 27.124 36.7069C25.2277 37.5001 23.1936 37.9113 21.1381 37.9167C19.0827 37.9221 17.0464 37.5217 15.146 36.7385Z" fill="url(#paint23_linear_2_482)"/>
<path opacity="0.735294" d="M15.5579 36.7759C12.6767 35.6426 10.1963 33.6804 8.43023 31.1375C6.66421 28.5945 5.69191 25.5849 5.63631 22.4894C5.58071 19.3938 6.44429 16.3512 8.11786 13.7465C9.79142 11.1417 12.1998 9.09171 15.0384 7.8557C17.8771 6.61968 21.0185 6.25317 24.0654 6.80252C27.1124 7.35186 29.928 8.79239 32.1562 10.9419C34.3845 13.0915 35.9253 15.8535 36.5838 18.8787C37.2423 21.9039 36.989 25.0565 35.8558 27.9377C35.1075 29.8539 33.9879 31.6034 32.5614 33.0857C31.1349 34.568 29.4297 35.7538 27.5436 36.575C25.6574 37.3963 23.6276 37.8368 21.5708 37.8713C19.5139 37.9058 17.4705 37.5335 15.5579 36.7759Z" fill="url(#paint24_linear_2_482)"/>
<path opacity="0.745098" d="M15.9698 36.8134C13.0702 35.7255 10.5584 33.8019 8.75231 31.2861C6.94621 28.7703 5.92693 25.7753 5.82344 22.68C5.71995 19.5848 6.5369 16.5284 8.17092 13.8976C9.80495 11.2667 12.1826 9.17969 15.0031 7.90053C17.8235 6.62136 20.9601 6.20753 24.0158 6.71142C27.0715 7.21531 29.9091 8.61426 32.1695 10.7313C34.4299 12.8483 36.0116 15.5882 36.7145 18.6044C37.4173 21.6206 37.2097 24.7774 36.1179 27.6756C34.6473 31.551 31.7031 34.6872 27.9282 36.3993C24.1532 38.1114 19.8541 38.2602 15.9698 36.8134Z" fill="url(#paint25_linear_2_482)"/>
<path opacity="0.754902" d="M16.3819 36.8508C13.4694 35.8022 10.9331 33.9135 9.09381 31.4237C7.25448 28.9339 6.19465 25.9546 6.04828 22.8625C5.9019 19.7704 6.67558 16.7043 8.27148 14.0519C9.86738 11.3994 12.2138 9.27966 15.0143 7.96057C17.8147 6.64149 20.9434 6.1823 24.0048 6.64105C27.0661 7.09981 29.9228 8.45591 32.2135 10.5379C34.5043 12.6199 36.1264 15.3344 36.8747 18.3381C37.623 21.3419 37.464 24.5001 36.4177 27.4134C35.7225 29.3491 34.6526 31.1289 33.2692 32.651C31.8859 34.173 30.2161 35.4076 28.3554 36.284C26.4947 37.1605 24.4795 37.6616 22.4251 37.7589C20.3706 37.8561 18.3171 37.5476 16.3819 36.8508Z" fill="url(#paint26_linear_2_482)"/>
<path opacity="0.764706" d="M16.7937 36.8883C13.8569 35.882 11.2845 34.0272 9.40216 31.5585C7.51977 29.0899 6.41196 26.1184 6.21887 23.0199C6.02577 19.9215 6.75609 16.8354 8.31741 14.1522C9.87872 11.4689 12.2009 9.30909 14.99 7.94597C17.7792 6.58284 20.91 6.07768 23.9864 6.49441C27.0627 6.91113 29.9463 8.23101 32.2723 10.287C34.5983 12.3431 36.2622 15.0429 37.0534 18.0448C37.8446 21.0467 37.7276 24.2159 36.7171 27.1513C36.0512 29.1009 35.0071 30.8998 33.6445 32.445C32.2819 33.9902 30.6278 35.2513 28.7768 36.1559C26.9259 37.0605 24.9146 37.5908 22.8583 37.7165C20.802 37.8422 18.7411 37.5607 16.7937 36.8883Z" fill="url(#paint27_linear_2_482)"/>
<path opacity="0.77451" d="M17.2056 36.9257C14.2539 35.964 11.6538 34.1483 9.73425 31.7084C7.81473 29.2684 6.66209 26.314 6.42218 23.2188C6.18227 20.1236 6.86587 17.0268 8.38648 14.3202C9.90709 11.6137 12.1964 9.41897 14.9647 8.01385C17.7329 6.60874 20.8558 6.05635 23.9381 6.42658C27.0205 6.79681 29.9237 8.07302 32.2805 10.0937C34.6373 12.1144 36.3417 14.7888 37.1781 17.7785C38.0145 20.7682 37.9453 23.9388 36.9793 26.8891C35.6854 30.8404 32.8764 34.1166 29.169 35.9984C25.4615 37.8802 21.1588 38.2137 17.2056 36.9257Z" fill="url(#paint28_linear_2_482)"/>
<path opacity="0.784314" d="M17.6179 36.9632C14.6565 36.0394 12.0352 34.2586 10.0855 31.8457C8.13574 29.4328 6.94493 26.4961 6.66356 23.4067C6.3822 20.3172 7.02288 17.2137 8.50466 14.4883C9.98644 11.7629 12.2428 9.53781 14.9887 8.09426C17.7346 6.65071 20.8467 6.05346 23.9319 6.37798C27.0171 6.7025 29.9368 7.93421 32.3223 9.9175C34.7077 11.9008 36.4517 14.5466 37.334 17.5207C38.2163 20.4948 38.1972 23.6637 37.2792 26.627C36.0375 30.6014 33.2706 33.9213 29.585 35.8589C25.8994 37.7965 21.5959 38.1936 17.6179 36.9632Z" fill="url(#paint29_linear_2_482)"/>
<path opacity="0.794118" d="M18.0295 37.0006C15.047 36.1184 12.393 34.3717 10.4031 31.9814C8.41306 29.5911 7.1764 26.6644 6.84939 23.5714C6.52239 20.4784 7.11971 17.3579 8.56587 14.6043C10.012 11.8507 12.2421 9.58761 14.9742 8.1012C17.7063 6.61478 20.8177 5.97171 23.9152 6.25329C27.0127 6.53487 29.9571 7.72844 32.3764 9.68315C34.7957 11.6378 36.5811 14.2659 37.507 17.2351C38.433 20.2044 38.4578 23.3815 37.5784 26.3648C36.9941 28.3473 36.0247 30.1952 34.7258 31.8029C33.4268 33.4105 31.8238 34.7464 30.0082 35.7342C28.1927 36.722 26.2003 37.3422 24.1449 37.5595C22.0895 37.7768 20.0115 37.5869 18.0295 37.0006Z" fill="url(#paint30_linear_2_482)"/>
<path opacity="0.803922" d="M18.4415 37.0381C15.4352 36.2034 12.7442 34.4955 10.709 32.1306C8.67388 29.7657 7.38614 26.8502 7.00881 23.7531C6.63147 20.656 7.18153 17.5166 8.58932 14.7323C9.99711 11.9479 12.1993 9.64387 14.9173 8.11176C17.6352 6.57966 20.7466 5.88839 23.8576 6.12546C26.9685 6.36254 29.9392 7.51729 32.3936 9.44355C34.848 11.3698 36.6756 13.981 37.6453 16.9465C38.6149 19.912 38.6829 23.0985 37.8406 26.1027C36.7136 30.1223 34.0384 33.5309 30.4018 35.5809C26.7652 37.6309 22.464 38.1549 18.4415 37.0381Z" fill="url(#paint31_linear_2_482)"/>
<path opacity="0.813725" d="M18.8536 37.0381C15.84 36.2377 13.1314 34.5618 11.0703 32.2222C9.00909 29.8827 7.6879 26.9844 7.27374 23.894C6.85959 20.8036 7.37107 17.6598 8.74351 14.8601C10.116 12.0603 12.2877 9.73037 14.9842 8.16482C17.6807 6.59927 20.7809 5.86841 23.8928 6.06465C27.0046 6.26089 29.9884 7.37541 32.4669 9.26731C34.9454 11.1592 36.8073 13.7435 37.8171 16.6935C38.827 19.6435 38.9395 22.8266 38.1404 25.8405C37.0596 29.878 34.4235 33.3229 30.809 35.4215C27.1944 37.52 22.8957 38.1013 18.8536 37.0381Z" fill="url(#paint32_linear_2_482)"/>
<path opacity="0.823529" d="M19.2655 37.0755C16.2303 36.3222 13.4869 34.6854 11.3825 32.3722C9.27801 30.059 7.90712 27.1735 7.44333 24.0808C6.97954 20.9882 7.44371 17.8275 8.77705 14.9987C10.1104 12.17 12.253 9.80045 14.9336 8.18996C17.6143 6.57947 20.7125 5.80048 23.836 5.95157C26.9596 6.10266 29.9681 7.17705 32.4808 9.03874C34.9935 10.9004 36.8974 13.4657 37.9515 16.41C39.0056 19.3542 39.1625 22.5449 38.4024 25.5784C37.9031 27.5912 37.0116 29.4857 35.779 31.1534C34.5464 32.8212 32.997 34.2294 31.2193 35.2974C29.4416 36.3653 27.4707 37.0721 25.4195 37.3773C23.3683 37.6824 21.277 37.5798 19.2655 37.0755Z" fill="url(#paint33_linear_2_482)"/>
<path opacity="0.833333" d="M19.6775 37.113C16.6255 36.3998 13.8537 34.7973 11.7127 32.5084C9.57173 30.2194 8.15787 27.3468 7.65002 24.254C7.14218 21.1612 7.56318 17.9873 8.85974 15.1338C10.1563 12.2804 12.2702 9.87571 14.9338 8.22402C17.5975 6.57234 20.6913 5.74791 23.8236 5.85507C26.956 5.96222 29.9862 6.99613 32.5307 8.82598C35.0753 10.6558 37.0199 13.1994 38.1184 16.1347C39.217 19.0701 39.4201 22.2654 38.7021 25.3162C37.7406 29.4016 35.1972 32.9385 31.6302 35.1503C28.0633 37.3621 23.7644 38.0679 19.6775 37.113Z" fill="url(#paint34_linear_2_482)"/>
<path opacity="0.843137" d="M20.0897 37.1504C17.0218 36.477 14.2226 34.9088 12.0461 32.6443C9.86955 30.3798 8.4135 27.5207 7.86209 24.4285C7.31069 21.3364 7.6887 18.1502 8.94831 15.273C10.2079 12.3957 12.2926 9.95663 14.9385 8.26426C17.5845 6.57189 20.6729 5.70225 23.8132 5.76533C26.9535 5.82841 30.0045 6.82138 32.5803 8.61865C35.1562 10.4159 37.1412 12.9367 38.2842 15.8623C39.4273 18.7878 39.677 21.9866 39.0019 25.0541C38.097 29.1655 35.5965 32.7493 32.05 35.0176C28.5036 37.2859 24.2016 38.0531 20.0897 37.1504Z" fill="url(#paint35_linear_2_482)"/>
<path opacity="0.852941" d="M20.5014 37.1879C17.4153 36.5604 14.5848 35.0315 12.368 32.7947C10.1511 30.5578 8.6477 27.7137 8.04792 24.6221C7.44815 21.5305 7.77899 18.3305 8.99857 15.427C10.2182 12.5235 12.2717 10.0471 14.8992 8.3111C17.5268 6.57513 20.6103 5.65765 23.7594 5.67479C26.9086 5.69192 29.9819 6.6429 32.5904 8.40736C35.199 10.1718 37.2254 12.6704 38.4133 15.587C39.6012 18.5036 39.8972 21.7071 39.2639 24.7919C38.4159 28.9218 35.9641 32.5465 32.4465 34.8705C28.9289 37.1945 24.6329 38.028 20.5014 37.1879Z" fill="url(#paint36_linear_2_482)"/>
<path opacity="0.862745" d="M20.9134 37.2253C17.8134 36.6365 14.9577 35.1417 12.7073 32.9299C10.4569 30.7181 8.91286 27.8886 8.27056 24.7993C7.62825 21.71 7.91647 18.4996 9.09878 15.574C10.2811 12.6485 12.3044 10.1393 14.9128 8.3637C17.5212 6.58811 20.5975 5.62588 23.7528 5.5987C26.9081 5.57152 30.0006 6.48062 32.6392 8.21103C35.2778 9.94143 37.344 12.4154 38.5765 15.3201C39.809 18.2249 40.1525 21.4298 39.5635 24.5298C38.7737 28.6864 36.3652 32.359 32.8677 34.7399C29.3701 37.1207 25.0701 38.0148 20.9134 37.2253Z" fill="url(#paint37_linear_2_482)"/>
<path opacity="0.872549" d="M21.3254 37.2628C18.2134 36.7137 15.334 35.2549 13.0505 33.0705C10.767 30.8862 9.18183 28.0743 8.49516 24.9898C7.80848 21.9053 8.05107 18.6865 9.19229 15.7398C10.3335 12.7931 12.3222 10.2505 14.9073 8.43311C17.4924 6.61572 20.558 5.60497 23.717 5.52846C26.8761 5.45196 29.987 6.31313 32.6571 8.00326C35.3271 9.6934 37.4365 12.1367 38.7191 15.0247C40.0016 17.9128 40.3997 21.1161 39.8631 24.2302C39.1318 28.416 36.7683 32.1402 33.2922 34.584C29.816 37.0278 25.5117 37.9914 21.3254 37.2628Z" fill="url(#paint38_linear_2_482)"/>
<path opacity="0.882353" d="M21.7373 37.3002C18.5987 36.8011 15.6786 35.3824 13.3464 33.2235C11.0142 31.0646 9.3747 28.2625 8.63526 25.1716C7.89582 22.0808 8.08968 18.8401 9.1923 15.8594C10.2949 12.8788 12.2568 10.2921 14.8297 8.4266C17.4026 6.5611 20.471 5.50059 23.6468 5.3792C26.8225 5.25782 29.9629 6.08103 32.6707 7.74469C35.3785 9.40835 37.5321 11.8377 38.859 14.7255C40.186 17.6133 40.6266 20.8298 40.1253 23.968C39.4441 28.1691 37.1276 31.9297 33.682 34.428C30.2364 36.9262 25.942 37.9588 21.7373 37.3002Z" fill="url(#paint39_linear_2_482)"/>
<path opacity="0.892157" d="M22.1492 37.3377C18.9995 36.8756 16.0574 35.4904 13.6946 33.357C11.3318 31.2236 9.65439 28.4377 8.87419 25.3514C8.09399 22.2651 8.24603 19.0168 9.31113 16.0168C10.3762 13.0169 12.3066 10.3999 14.8583 8.49657C17.4101 6.59323 20.4687 5.48889 23.6478 5.32308C26.8269 5.15727 29.9838 5.93744 32.7197 7.565C35.4556 9.19257 37.6477 11.5945 39.0191 14.4674C40.3905 17.3403 40.8797 20.5551 40.4248 23.7059C39.8042 27.9348 37.5316 31.7449 34.1055 34.3004C30.6794 36.856 26.3796 37.9482 22.1492 37.3377Z" fill="url(#paint40_linear_2_482)"/>
<path opacity="0.901961" d="M22.5608 37.3751C19.3866 36.9624 16.4062 35.6174 13.9967 33.5103C11.5871 31.4032 9.85677 28.6287 9.02459 25.5378C8.19241 22.447 8.29578 19.1788 9.32165 16.1467C10.3475 13.1146 12.2497 10.455 14.7876 8.50441C17.3255 6.5538 20.385 5.39986 23.5789 5.18861C26.7729 4.97737 29.9577 5.71831 32.7304 7.31768C35.5031 8.91705 37.739 11.303 39.1553 14.1735C40.5715 17.0441 41.1045 20.2702 40.6866 23.4437C40.1177 27.689 37.8923 31.5367 34.4963 34.1468C31.1003 36.757 26.8095 37.9175 22.5608 37.3751Z" fill="url(#paint41_linear_2_482)"/>
<path opacity="0.911765" d="M22.9731 37.4126C19.7782 37.0419 16.7651 35.7316 14.3152 33.6476C11.8653 31.5636 10.0888 28.7996 9.21063 25.7055C8.33242 22.6114 8.39196 19.3262 9.38172 16.266C10.3715 13.2057 12.247 10.5079 14.7708 8.51406C17.2945 6.52022 20.3531 5.32 23.5594 5.06533C26.7656 4.81066 29.9754 5.513 32.7823 7.08343C35.5891 8.65386 37.867 11.0218 39.3274 13.8874C40.7879 16.7531 41.3653 19.9876 40.9865 23.1816C40.4703 27.451 38.2868 31.3431 34.9123 34.0091C31.5378 36.675 27.2461 37.8984 22.9731 37.4126Z" fill="url(#paint42_linear_2_482)"/>
<path opacity="0.921569" d="M23.385 37.4126C20.1802 37.0763 17.1472 35.7971 14.6695 33.7368C12.1918 31.6766 10.3807 28.9278 9.46545 25.8381C8.55014 22.7485 8.57168 19.4568 9.52734 16.3794C10.483 13.302 12.3299 10.5772 14.8343 8.54952C17.3387 6.52186 20.3883 5.28249 23.5972 4.98815C26.8061 4.69382 30.0302 5.35776 32.8617 6.89598C35.6932 8.4342 38.005 10.7776 39.5045 13.6298C41.004 16.482 41.624 19.7148 41.2861 22.9194C40.8331 27.2147 38.6929 31.1543 35.336 33.8721C31.9792 36.5899 27.6805 37.8633 23.385 37.4126Z" fill="url(#paint43_linear_2_482)"/>
<path opacity="0.931373" d="M23.7971 37.45C20.5708 37.162 17.5026 35.9231 14.9809 33.8902C12.4593 31.8573 10.5975 29.1218 9.63151 26.0301C8.66549 22.9384 8.6386 19.6296 9.55428 16.5227C10.47 13.4157 12.287 10.6504 14.7753 8.57677C17.2637 6.50316 20.3114 5.21458 23.5325 4.87418C26.7536 4.53378 30.0033 5.15689 32.8701 6.66459C35.7369 8.17229 38.0918 10.4968 39.6367 13.3437C41.1816 16.1906 41.8468 19.432 41.5484 22.6573C41.3555 24.7947 40.7432 26.8731 39.7464 28.7737C38.7496 30.6742 37.388 32.3596 35.7393 33.7335C34.0906 35.1074 32.1873 36.1428 30.1381 36.7805C28.089 37.4183 25.9342 37.6457 23.7971 37.45Z" fill="url(#paint44_linear_2_482)"/>
<path opacity="0.941176" d="M24.2086 37.4875C20.9753 37.2335 17.8899 36.0268 15.3423 34.0199C12.7947 32.0129 10.8992 29.2957 9.89534 26.2118C8.89151 23.1278 8.82442 19.8155 9.70254 16.6935C10.5807 13.5714 12.3646 10.7797 14.8288 8.67124C17.2931 6.56275 20.3271 5.23209 23.5474 4.84742C26.7677 4.46276 30.0298 5.04136 32.9214 6.5101C35.8129 7.97885 38.2042 10.2718 39.793 13.0992C41.3818 15.9266 42.0967 19.1615 41.8475 22.3951C41.6819 24.5449 41.094 26.6408 40.1176 28.5632C39.1411 30.4855 37.7953 32.1965 36.157 33.5982C34.5188 35 32.6202 36.065 30.57 36.7323C28.5198 37.3997 26.3581 37.6563 24.2086 37.4875Z" fill="url(#paint45_linear_2_482)"/>
<path opacity="0.95098" d="M24.6207 37.5249C21.3701 37.311 18.2558 36.1383 15.6713 34.1551C13.0869 32.1719 11.1483 29.4671 10.1005 26.3825C9.05265 23.2979 8.94268 19.972 9.7844 16.8249C10.6261 13.6778 12.3818 10.8509 14.8295 8.70122C17.2773 6.55158 20.3073 5.17572 23.5368 4.74749C26.7662 4.31925 30.0501 4.85787 32.9735 6.29527C35.8969 7.73268 38.3287 10.0044 39.9615 12.8233C41.5944 15.6422 42.355 18.8819 42.1473 22.133C41.8587 26.4961 39.8515 30.5667 36.5659 33.4521C33.2803 36.3375 28.9846 37.8022 24.6207 37.5249Z" fill="url(#paint46_linear_2_482)"/>
<path opacity="0.960784" d="M25.0328 37.5624C21.7525 37.4021 18.5936 36.2718 15.9562 34.3147C13.3188 32.3576 11.3216 29.6617 10.2176 26.5686C9.11363 23.4755 8.95251 20.1244 9.75468 16.9396C10.5568 13.7549 12.2862 10.8799 14.7237 8.67879C17.1612 6.4777 20.1971 5.04958 23.4469 4.57534C26.6967 4.10109 30.0141 4.60206 32.9789 6.01477C35.9438 7.42749 38.4226 9.68839 40.1015 12.5111C41.7803 15.3338 42.5836 18.5912 42.4096 21.8708C42.1771 26.2527 40.2181 30.364 36.9614 33.3048C33.7047 36.2457 29.4156 37.7766 25.0328 37.5624Z" fill="url(#paint47_linear_2_482)"/>
<path opacity="0.970588" d="M25.4448 37.5998C22.1596 37.4716 18.9862 36.3725 16.3256 34.4413C13.665 32.51 11.6366 29.8334 10.4967 26.7497C9.35686 23.666 9.15673 20.3136 9.9216 17.1162C10.6865 13.9188 12.382 11.0199 14.794 8.78581C17.2059 6.55175 20.226 5.08283 23.4725 4.56469C26.7191 4.04655 30.0464 4.50244 33.0339 5.87476C36.0214 7.24708 38.535 9.47422 40.2572 12.2747C41.9793 15.0752 42.8326 18.3234 42.7092 21.6087C42.5338 26.0163 40.618 30.1747 37.3818 33.1722C34.1456 36.1697 29.8529 37.7619 25.4448 37.5998Z" fill="url(#paint48_linear_2_482)"/>
<path opacity="0.980392" d="M25.8568 37.6373C22.544 37.562 19.3281 36.5052 16.6164 34.6008C13.9046 32.6964 11.8191 30.03 10.6239 26.9394C9.42872 23.8488 9.17765 20.4731 9.90248 17.2397C10.6273 14.0063 12.2954 11.0607 14.6956 8.77611C17.0958 6.4915 20.12 4.9706 23.3852 4.40604C26.6504 3.84149 30.0097 4.25868 33.0376 5.60478C36.0655 6.95088 38.6258 9.16532 40.3942 11.9676C42.1626 14.7699 43.0596 18.034 42.9715 21.3465C42.8537 25.7735 40.9866 29.9735 37.7788 33.0268C34.5711 36.0801 30.2842 37.7379 25.8568 37.6373Z" fill="url(#paint49_linear_2_482)"/>
<path opacity="0.990196" d="M26.2687 37.6747C22.9417 37.6374 19.7005 36.6139 16.9555 34.7337C14.2105 32.8536 12.0849 30.2014 10.8478 27.1127C9.61075 24.024 9.31777 20.6378 10.006 17.3826C10.6942 14.1273 12.3327 11.1495 14.7141 8.82581C17.0954 6.50216 20.1126 4.9372 23.3837 4.32901C26.6548 3.72082 30.0329 4.09674 33.0903 5.40918C36.1477 6.72163 38.747 8.9116 40.5592 11.7019C42.3715 14.4923 43.3152 17.7575 43.271 21.0844C43.2019 25.5344 41.3753 29.7765 38.19 32.8847C35.0046 35.9929 30.719 37.7148 26.2687 37.6747Z" fill="url(#paint50_linear_2_482)"/>
<path d="M43.5706 20.8222C43.578 24.1733 42.5906 27.4512 40.7334 30.2406C38.8763 33.0301 36.2329 35.2055 33.1383 36.4913C30.0437 37.7772 26.6371 38.1155 23.35 37.4636C20.063 36.8116 17.0433 35.1987 14.6737 32.8291C12.3042 30.4595 10.6912 27.4399 10.0393 24.1528C9.38731 20.8658 9.72568 17.4591 11.0115 14.3645C12.2973 11.2699 14.4728 8.62661 17.2622 6.76945C20.0516 4.9123 23.3295 3.92488 26.6806 3.93228C31.1601 3.93228 35.4562 5.71175 38.6236 8.87923C41.7911 12.0467 43.5706 16.3427 43.5706 20.8222Z" fill="#ACB1BC"/>
</g>
<path d="M47.4657 20.8222C47.4657 24.9421 46.2435 28.9693 43.9539 32.3943C41.6643 35.8193 38.4101 38.4881 34.6031 40.063C30.7962 41.6379 26.6076 42.048 22.5675 41.2415C18.5274 40.4351 14.8173 38.4482 11.9067 35.5324C8.99618 32.6167 7.01603 28.903 6.21683 24.8614C5.41764 20.8199 5.83534 16.632 7.41707 12.8279C8.99879 9.02384 11.6735 5.77445 15.1026 3.49098C18.5317 1.20752 22.5611 -0.00737608 26.681 3.36935e-05C32.1969 0.00995439 37.4834 2.20809 41.3803 6.11194C45.2771 10.0158 47.4657 15.3063 47.4657 20.8222Z" fill="url(#paint51_linear_2_482)"/>
<path d="M43.5708 20.8222C43.5782 24.1733 42.5908 27.4512 40.7337 30.2406C38.8765 33.0301 36.2332 35.2055 33.1386 36.4913C30.044 37.7772 26.6374 38.1155 23.3503 37.4636C20.0632 36.8116 17.0436 35.1987 14.674 32.8291C12.3044 30.4595 10.6915 27.4399 10.0395 24.1528C9.38755 20.8658 9.72592 17.4591 11.0118 14.3645C12.2976 11.2699 14.473 8.62661 17.2625 6.76945C20.0519 4.9123 23.3298 3.92488 26.6809 3.93228C31.1604 3.93228 35.4564 5.71175 38.6239 8.87923C41.7914 12.0467 43.5708 16.3427 43.5708 20.8222Z" fill="url(#paint52_linear_2_482)"/>
<path d="M41.8479 20.8222C41.8479 23.831 40.9552 26.7722 39.2828 29.2734C37.6104 31.7746 35.2336 33.7234 32.4531 34.8731C29.6726 36.0228 26.6135 36.3217 23.6631 35.732C20.7126 35.1423 18.0035 33.6904 15.8786 31.5603C13.7537 29.4301 12.3085 26.7174 11.7261 23.7655C11.1436 20.8136 11.4501 17.7553 12.6067 14.9776C13.7632 12.2 15.7178 9.82796 18.2232 8.16176C20.7285 6.49556 23.6719 5.61012 26.6806 5.61753C30.7067 5.62745 34.5644 7.23374 37.4078 10.0841C40.2511 12.9345 41.8479 16.7962 41.8479 20.8222Z" fill="url(#paint53_linear_2_482)"/>
<defs>
<linearGradient id="paint0_linear_2_482" x1="32.6476" y1="9.01674" x2="10.82" y2="34.1515" gradientUnits="userSpaceOnUse">
<stop stop-color="#183B59"/>
<stop offset="1" stop-color="white" stop-opacity="0"/>
</linearGradient>
<linearGradient id="paint1_linear_2_482" x1="29.4378" y1="10.5528" x2="8.17767" y2="35.8" gradientUnits="userSpaceOnUse">
<stop stop-color="#1B3D5B"/>
<stop offset="1" stop-color="#FDFDFE" stop-opacity="0.02"/>
</linearGradient>
<linearGradient id="paint2_linear_2_482" x1="28.5772" y1="7.25979" x2="7.90249" y2="32.8404" gradientUnits="userSpaceOnUse">
<stop stop-color="#1E405D"/>
<stop offset="1" stop-color="#FCFCFC" stop-opacity="0.04"/>
</linearGradient>
<linearGradient id="paint3_linear_2_482" x1="28.5761" y1="12.2258" x2="8.34229" y2="37.8794" gradientUnits="userSpaceOnUse">
<stop stop-color="#21425F"/>
<stop offset="1" stop-color="#FAFAFB" stop-opacity="0.06"/>
</linearGradient>
<linearGradient id="paint4_linear_2_482" x1="32.5016" y1="9.17682" x2="12.7385" y2="35.2791" gradientUnits="userSpaceOnUse">
<stop stop-color="#244461"/>
<stop offset="1" stop-color="#F8F9FA" stop-opacity="0.08"/>
</linearGradient>
<linearGradient id="paint5_linear_2_482" x1="26.2944" y1="10.7748" x2="7.31709" y2="36.991" gradientUnits="userSpaceOnUse">
<stop stop-color="#274763"/>
<stop offset="1" stop-color="#F7F7F8" stop-opacity="0.1"/>
</linearGradient>
<linearGradient id="paint6_linear_2_482" x1="28.1389" y1="6.88678" x2="9.80595" y2="33.5891" gradientUnits="userSpaceOnUse">
<stop stop-color="#294965"/>
<stop offset="1" stop-color="#F5F6F7" stop-opacity="0.12"/>
</linearGradient>
<linearGradient id="paint7_linear_2_482" x1="27.5163" y1="12.2265" x2="9.77024" y2="39.0519" gradientUnits="userSpaceOnUse">
<stop stop-color="#2C4B67"/>
<stop offset="1" stop-color="#F4F4F6" stop-opacity="0.14"/>
</linearGradient>
<linearGradient id="paint8_linear_2_482" x1="26.5302" y1="8.93327" x2="9.62314" y2="36.2015" gradientUnits="userSpaceOnUse">
<stop stop-color="#2F4E69"/>
<stop offset="1" stop-color="#F2F3F4" stop-opacity="0.16"/>
</linearGradient>
<linearGradient id="paint9_linear_2_482" x1="26.2202" y1="9.77513" x2="10.0926" y2="37.3743" gradientUnits="userSpaceOnUse">
<stop stop-color="#32506A"/>
<stop offset="1" stop-color="#F0F1F3" stop-opacity="0.18"/>
</linearGradient>
<linearGradient id="paint10_linear_2_482" x1="27.2628" y1="6.37867" x2="12.0445" y2="34.5094" gradientUnits="userSpaceOnUse">
<stop stop-color="#35526C"/>
<stop offset="1" stop-color="#EFF0F2" stop-opacity="0.2"/>
</linearGradient>
<linearGradient id="paint11_linear_2_482" x1="22.5438" y1="10.1023" x2="8.3239" y2="38.3754" gradientUnits="userSpaceOnUse">
<stop stop-color="#38546E"/>
<stop offset="1" stop-color="#EDEEF1" stop-opacity="0.22"/>
</linearGradient>
<linearGradient id="paint12_linear_2_482" x1="30.7152" y1="9.69173" x2="17.2437" y2="38.6306" gradientUnits="userSpaceOnUse">
<stop stop-color="#3B5770"/>
<stop offset="1" stop-color="#EBEDEF" stop-opacity="0.24"/>
</linearGradient>
<linearGradient id="paint13_linear_2_482" x1="25.8095" y1="7.82352" x2="13.6814" y2="37.1033" gradientUnits="userSpaceOnUse">
<stop stop-color="#3E5972"/>
<stop offset="1" stop-color="#EAEBEE" stop-opacity="0.25"/>
</linearGradient>
<linearGradient id="paint14_linear_2_482" x1="20.6869" y1="9.4476" x2="9.8983" y2="38.9289" gradientUnits="userSpaceOnUse">
<stop stop-color="#415B74"/>
<stop offset="1" stop-color="#E8EAED" stop-opacity="0.27"/>
</linearGradient>
<linearGradient id="paint15_linear_2_482" x1="24.9818" y1="7.11172" x2="15.4849" y2="37.2317" gradientUnits="userSpaceOnUse">
<stop stop-color="#445E76"/>
<stop offset="1" stop-color="#E7E8EB" stop-opacity="0.29"/>
</linearGradient>
<linearGradient id="paint16_linear_2_482" x1="28.1589" y1="5.70593" x2="20.1092" y2="36.3894" gradientUnits="userSpaceOnUse">
<stop stop-color="#466078"/>
<stop offset="1" stop-color="#E5E7EA" stop-opacity="0.31"/>
</linearGradient>
<linearGradient id="paint17_linear_2_482" x1="18.2993" y1="9.17035" x2="12.0281" y2="39.7209" gradientUnits="userSpaceOnUse">
<stop stop-color="#49627A"/>
<stop offset="1" stop-color="#E3E5E9" stop-opacity="0.33"/>
</linearGradient>
<linearGradient id="paint18_linear_2_482" x1="22.9411" y1="5.23608" x2="18.4908" y2="36.3879" gradientUnits="userSpaceOnUse">
<stop stop-color="#4C657C"/>
<stop offset="1" stop-color="#E2E3E7" stop-opacity="0.35"/>
</linearGradient>
<linearGradient id="paint19_linear_2_482" x1="26.5401" y1="4.30131" x2="24.0008" y2="35.8622" gradientUnits="userSpaceOnUse">
<stop stop-color="#4F677E"/>
<stop offset="1" stop-color="#E0E2E6" stop-opacity="0.37"/>
</linearGradient>
<linearGradient id="paint20_linear_2_482" x1="21.707" y1="6.82987" x2="21.2686" y2="38.2247" gradientUnits="userSpaceOnUse">
<stop stop-color="#526980"/>
<stop offset="1" stop-color="#DEE0E5" stop-opacity="0.39"/>
</linearGradient>
<linearGradient id="paint21_linear_2_482" x1="25.5339" y1="4.43741" x2="27.4118" y2="36.0458" gradientUnits="userSpaceOnUse">
<stop stop-color="#556C82"/>
<stop offset="1" stop-color="#DDDFE3" stop-opacity="0.41"/>
</linearGradient>
<linearGradient id="paint22_linear_2_482" x1="18.9025" y1="5.24401" x2="23.2354" y2="36.2964" gradientUnits="userSpaceOnUse">
<stop stop-color="#586E84"/>
<stop offset="1" stop-color="#DBDDE2" stop-opacity="0.43"/>
</linearGradient>
<linearGradient id="paint23_linear_2_482" x1="12.0428" y1="9.28483" x2="18.6909" y2="39.522" gradientUnits="userSpaceOnUse">
<stop stop-color="#5B7086"/>
<stop offset="1" stop-color="#DADCE1" stop-opacity="0.45"/>
</linearGradient>
<linearGradient id="paint24_linear_2_482" x1="18.1824" y1="6.61863" x2="27.4694" y2="36.6202" gradientUnits="userSpaceOnUse">
<stop stop-color="#5E7388"/>
<stop offset="1" stop-color="#D8DADF" stop-opacity="0.47"/>
</linearGradient>
<linearGradient id="paint25_linear_2_482" x1="20.6721" y1="5.58254" x2="32.5778" y2="34.9027" gradientUnits="userSpaceOnUse">
<stop stop-color="#61758A"/>
<stop offset="1" stop-color="#D6D9DE" stop-opacity="0.49"/>
</linearGradient>
<linearGradient id="paint26_linear_2_482" x1="19.5676" y1="6.33713" x2="33.9406" y2="34.5458" gradientUnits="userSpaceOnUse">
<stop stop-color="#63778B"/>
<stop offset="1" stop-color="#D5D7DD" stop-opacity="0.51"/>
</linearGradient>
<linearGradient id="paint27_linear_2_482" x1="15.0035" y1="8.09234" x2="31.6238" y2="34.7939" gradientUnits="userSpaceOnUse">
<stop stop-color="#66798D"/>
<stop offset="1" stop-color="#D3D6DC" stop-opacity="0.53"/>
</linearGradient>
<linearGradient id="paint28_linear_2_482" x1="7.49434" y1="10.7643" x2="26.0406" y2="35.6461" gradientUnits="userSpaceOnUse">
<stop stop-color="#697C8F"/>
<stop offset="1" stop-color="#D1D4DA" stop-opacity="0.55"/>
</linearGradient>
<linearGradient id="paint29_linear_2_482" x1="8.11925" y1="11.1039" x2="28.684" y2="34.5123" gradientUnits="userSpaceOnUse">
<stop stop-color="#6C7E91"/>
<stop offset="1" stop-color="#D0D3D9" stop-opacity="0.57"/>
</linearGradient>
<linearGradient id="paint30_linear_2_482" x1="10.986" y1="9.01298" x2="33.601" y2="30.9213" gradientUnits="userSpaceOnUse">
<stop stop-color="#6F8093"/>
<stop offset="1" stop-color="#CED1D8" stop-opacity="0.59"/>
</linearGradient>
<linearGradient id="paint31_linear_2_482" x1="13.1062" y1="14.4119" x2="37.1217" y2="34.9967" gradientUnits="userSpaceOnUse">
<stop stop-color="#728395"/>
<stop offset="1" stop-color="#CDD0D6" stop-opacity="0.61"/>
</linearGradient>
<linearGradient id="paint32_linear_2_482" x1="7.22105" y1="14.0271" x2="32.4455" y2="32.6135" gradientUnits="userSpaceOnUse">
<stop stop-color="#758597"/>
<stop offset="1" stop-color="#CBCED5" stop-opacity="0.63"/>
</linearGradient>
<linearGradient id="paint33_linear_2_482" x1="14.1969" y1="12.557" x2="41.0904" y2="29.8457" gradientUnits="userSpaceOnUse">
<stop stop-color="#788799"/>
<stop offset="1" stop-color="#C9CDD4" stop-opacity="0.65"/>
</linearGradient>
<linearGradient id="paint34_linear_2_482" x1="6.20901" y1="14.5323" x2="33.6283" y2="29.9193" gradientUnits="userSpaceOnUse">
<stop stop-color="#7B8A9B"/>
<stop offset="1" stop-color="#C8CBD2" stop-opacity="0.67"/>
</linearGradient>
<linearGradient id="paint35_linear_2_482" x1="10.1642" y1="16.6392" x2="38.6184" y2="30.8663" gradientUnits="userSpaceOnUse">
<stop stop-color="#7E8C9D"/>
<stop offset="1" stop-color="#C6C9D1" stop-opacity="0.69"/>
</linearGradient>
<linearGradient id="paint36_linear_2_482" x1="9.52448" y1="15.0697" x2="38.7975" y2="27.7372" gradientUnits="userSpaceOnUse">
<stop stop-color="#808E9F"/>
<stop offset="1" stop-color="#C4C8D0" stop-opacity="0.71"/>
</linearGradient>
<linearGradient id="paint37_linear_2_482" x1="6.63062" y1="16.2113" x2="36.2988" y2="27.4811" gradientUnits="userSpaceOnUse">
<stop stop-color="#8391A1"/>
<stop offset="1" stop-color="#C3C6CE" stop-opacity="0.73"/>
</linearGradient>
<linearGradient id="paint38_linear_2_482" x1="9.21353" y1="16.2267" x2="39.641" y2="26.3485" gradientUnits="userSpaceOnUse">
<stop stop-color="#8693A3"/>
<stop offset="1" stop-color="#C1C5CD" stop-opacity="0.75"/>
</linearGradient>
<linearGradient id="paint39_linear_2_482" x1="10.9931" y1="16.435" x2="42.0467" y2="25.4569" gradientUnits="userSpaceOnUse">
<stop stop-color="#8995A5"/>
<stop offset="1" stop-color="#C0C3CC" stop-opacity="0.76"/>
</linearGradient>
<linearGradient id="paint40_linear_2_482" x1="7.16184" y1="17.5102" x2="38.257" y2="25.3785" gradientUnits="userSpaceOnUse">
<stop stop-color="#8C98A7"/>
<stop offset="1" stop-color="#BEC2CA" stop-opacity="0.78"/>
</linearGradient>
<linearGradient id="paint41_linear_2_482" x1="11.128" y1="18.0298" x2="42.9376" y2="25.0466" gradientUnits="userSpaceOnUse">
<stop stop-color="#8F9AA9"/>
<stop offset="1" stop-color="#BCC0C9" stop-opacity="0.8"/>
</linearGradient>
<linearGradient id="paint42_linear_2_482" x1="8.75724" y1="18.4546" x2="40.6415" y2="24.4792" gradientUnits="userSpaceOnUse">
<stop stop-color="#929CAB"/>
<stop offset="1" stop-color="#BBBFC8" stop-opacity="0.82"/>
</linearGradient>
<linearGradient id="paint43_linear_2_482" x1="9.06023" y1="18.694" x2="41.2483" y2="23.8497" gradientUnits="userSpaceOnUse">
<stop stop-color="#959EAC"/>
<stop offset="1" stop-color="#B9BDC7" stop-opacity="0.84"/>
</linearGradient>
<linearGradient id="paint44_linear_2_482" x1="9.12354" y1="18.7969" x2="41.5669" y2="23.1257" gradientUnits="userSpaceOnUse">
<stop stop-color="#98A1AE"/>
<stop offset="1" stop-color="#B7BCC5" stop-opacity="0.86"/>
</linearGradient>
<linearGradient id="paint45_linear_2_482" x1="9.07958" y1="19.3304" x2="41.7334" y2="22.9354" gradientUnits="userSpaceOnUse">
<stop stop-color="#9BA3B0"/>
<stop offset="1" stop-color="#B6BAC4" stop-opacity="0.88"/>
</linearGradient>
<linearGradient id="paint46_linear_2_482" x1="8.88658" y1="19.818" x2="41.7146" y2="22.7478" gradientUnits="userSpaceOnUse">
<stop stop-color="#9DA5B2"/>
<stop offset="1" stop-color="#B4B9C3" stop-opacity="0.9"/>
</linearGradient>
<linearGradient id="paint47_linear_2_482" x1="9.27301" y1="20.1116" x2="42.3367" y2="22.3918" gradientUnits="userSpaceOnUse">
<stop stop-color="#A0A8B4"/>
<stop offset="1" stop-color="#B3B7C1" stop-opacity="0.92"/>
</linearGradient>
<linearGradient id="paint48_linear_2_482" x1="8.41705" y1="19.9279" x2="41.5364" y2="21.5478" gradientUnits="userSpaceOnUse">
<stop stop-color="#A3AAB6"/>
<stop offset="1" stop-color="#B1B6C0" stop-opacity="0.94"/>
</linearGradient>
<linearGradient id="paint49_linear_2_482" x1="10.7683" y1="20.6398" x2="44.3871" y2="21.7127" gradientUnits="userSpaceOnUse">
<stop stop-color="#A6ACB8"/>
<stop offset="1" stop-color="#AFB4BF" stop-opacity="0.96"/>
</linearGradient>
<linearGradient id="paint50_linear_2_482" x1="10.1591" y1="20.8138" x2="43.8623" y2="21.3433" gradientUnits="userSpaceOnUse">
<stop stop-color="#A9AFBA"/>
<stop offset="1" stop-color="#AEB3BD" stop-opacity="0.98"/>
</linearGradient>
<linearGradient id="paint51_linear_2_482" x1="5.86249" y1="20.811" x2="47.4657" y2="20.811" gradientUnits="userSpaceOnUse">
<stop stop-color="#B0E881"/>
<stop offset="0.05" stop-color="#A6E47D"/>
<stop offset="0.23" stop-color="#84D46F"/>
<stop offset="0.42" stop-color="#69C763"/>
<stop offset="0.61" stop-color="#55BE5B"/>
<stop offset="0.8" stop-color="#4AB957"/>
<stop offset="1" stop-color="#46B755"/>
</linearGradient>
<linearGradient id="paint52_linear_2_482" x1="9.76846" y1="20.811" x2="43.5596" y2="20.811" gradientUnits="userSpaceOnUse">
<stop stop-color="#DCDDDE"/>
<stop offset="1" stop-color="white"/>
</linearGradient>
<linearGradient id="paint53_linear_2_482" x1="11.4834" y1="20.811" x2="41.8441" y2="20.811" gradientUnits="userSpaceOnUse">
<stop stop-color="white"/>
<stop offset="1" stop-color="#DCDDDE"/>
</linearGradient>
</defs>
</svg>
