<svg width="70" height="80" viewBox="0 0 70 80" fill="none" xmlns="http://www.w3.org/2000/svg">
<ellipse cx="19.5" cy="75.5" rx="18.5" ry="4.5" fill="#84D46F"/>
<path fill-rule="evenodd" clip-rule="evenodd" d="M19.7345 75.0097C19.6914 75.397 18.5294 75.6122 17.5825 75.5692C16.6356 75.5262 16.4205 75.4401 16.3344 75.2249L9.9646 45.2697L11.0406 45.0545L13.2786 44.5811L19.7345 75.0097Z" fill="#E6E6E6"/>
<path fill-rule="evenodd" clip-rule="evenodd" d="M17.5825 75.5692C16.9369 75.5261 16.4205 75.4401 16.3344 75.2249L9.9646 45.2697L11.0406 45.0545L17.5825 75.5692Z" fill="#CCCCCC"/>
<path fill-rule="evenodd" clip-rule="evenodd" d="M4.3696 10.9677C7.03802 10.4082 9.06085 10.8816 9.27605 11.9145L16.0332 43.5912C16.2484 44.6672 14.5698 45.9153 11.9445 46.4749C9.31909 47.0344 6.95194 46.647 6.73675 45.571L0.0226628 13.8943C-0.235571 12.8614 1.74423 11.5272 4.3696 10.9677Z" fill="#8BD74B"/>
<path fill-rule="evenodd" clip-rule="evenodd" d="M9.40503 12.6031L62.343 1.32691C62.5583 1.27687 62.7836 1.2917 62.9904 1.36953C63.1973 1.44736 63.3765 1.58471 63.5054 1.76425C63.6343 1.94379 63.7071 2.15748 63.7147 2.37837C63.7223 2.59926 63.6643 2.81746 63.5481 3.00543L54.596 18.5856C54.4445 18.8277 54.3913 19.1185 54.4473 19.3986C54.5033 19.6787 54.6643 19.9267 54.8973 20.0919L69.3153 30.3352C69.4978 30.4606 69.6391 30.6372 69.7211 30.8429C69.8032 31.0485 69.8224 31.2739 69.7763 31.4905C69.7302 31.7071 69.6209 31.9051 69.4623 32.0595C69.3036 32.214 69.1027 32.3178 68.8849 32.358L16.033 43.5912L9.40503 12.6031Z" fill="url(#paint0_linear_2_484)"/>
<path fill-rule="evenodd" clip-rule="evenodd" d="M4.36962 10.9677C6.43549 10.5373 8.3292 10.6664 9.14694 11.2689L62.0419 0.035746C62.189 -0.00235785 62.3423 -0.0100972 62.4925 0.0130004C62.6427 0.0360981 62.7867 0.0895483 62.9155 0.170092C63.0444 0.250635 63.1555 0.356584 63.2421 0.481477C63.3287 0.60637 63.3889 0.747591 63.4191 0.896526L63.6774 2.14466C63.5968 1.86668 63.4153 1.62879 63.1685 1.47754C62.9218 1.3263 62.6274 1.27258 62.3432 1.32692L9.40518 12.6031C8.88871 13.4639 7.25323 14.3677 5.18736 14.7981C3.12148 15.2285 0.23787 14.9703 0.022675 13.8943C-0.19252 12.8183 1.74424 11.5272 4.36962 10.9677ZM54.5531 18.6716C54.5531 18.7147 54.5961 18.7147 54.6392 18.7577L69.0142 29.001C69.1448 29.0878 69.2548 29.2021 69.3366 29.336C69.4184 29.4698 69.4699 29.6199 69.4876 29.7757L69.7459 30.9808C69.6877 30.7196 69.5342 30.4894 69.3155 30.3352L54.8974 20.0919C54.6793 19.9358 54.5246 19.7064 54.4614 19.4457C54.3982 19.1851 54.4307 18.9103 54.5531 18.6716Z" fill="#8BD74B"/>
<path fill-rule="evenodd" clip-rule="evenodd" d="M4.41269 11.2259C6.60768 10.7525 8.54443 11.0537 8.71659 11.8715C8.88875 12.6892 7.25327 13.8082 5.05828 14.2386C2.86329 14.669 0.926534 14.4108 0.754378 13.593C0.582222 12.7753 2.2177 11.6993 4.41269 11.2259Z" fill="#46B755"/>
<path fill-rule="evenodd" clip-rule="evenodd" d="M9.40503 12.6031L62.343 1.32692C62.5497 1.28001 62.7656 1.29279 62.9653 1.36378C63.1651 1.43477 63.3406 1.56104 63.4713 1.72789C63.6021 1.89475 63.6828 2.09532 63.704 2.30626C63.7252 2.51719 63.6861 2.72981 63.5911 2.91936C63.6406 2.73284 63.6411 2.53669 63.5924 2.34995C63.5437 2.16321 63.4476 1.99223 63.3133 1.85363C63.179 1.71502 63.0112 1.61349 62.8261 1.55891C62.641 1.50433 62.4449 1.49854 62.2569 1.54212L9.62022 12.7323L16.2052 43.5482H16.033L9.40503 12.5601V12.6031ZM54.4669 18.8438C54.4035 19.0709 54.4107 19.312 54.4876 19.5349C54.5645 19.7579 54.7073 19.9521 54.8973 20.0919L69.3153 30.3352C69.5408 30.4851 69.7042 30.7115 69.7754 30.9727C69.8467 31.2338 69.8208 31.5119 69.7027 31.7555C69.7522 31.5303 69.7337 31.2955 69.6493 31.0809C69.565 30.8663 69.4188 30.6816 69.2292 30.5504L54.8112 20.2641C54.5931 20.1079 54.4383 19.8786 54.3751 19.6179C54.3119 19.3572 54.3445 19.0825 54.4669 18.8438Z" fill="#B0E881"/>
<path fill-rule="evenodd" clip-rule="evenodd" d="M7.64044 12.474C6.89274 13.1094 5.98433 13.5264 5.01506 13.6791C4.07207 13.9437 3.07444 13.9437 2.13145 13.6791C1.97381 13.6375 1.83221 13.5497 1.72484 13.427C1.61748 13.3043 1.54924 13.1523 1.5289 12.9905C1.48963 12.6011 1.51877 12.2078 1.61498 11.8284C1.95929 10.7525 2.94919 10.0638 4.19732 9.80559C5.44545 9.54736 7.42525 10.0208 7.94172 11.6132C7.98899 11.7701 7.98529 11.938 7.93116 12.0926C7.87702 12.2473 7.77524 12.3808 7.64044 12.474Z" fill="#E6E6E6"/>
<path fill-rule="evenodd" clip-rule="evenodd" d="M7.64044 12.474C6.89274 13.1094 5.98433 13.5264 5.01506 13.6791C4.07207 13.9437 3.07444 13.9437 2.13145 13.6791C1.97381 13.6375 1.83221 13.5497 1.72484 13.427C1.61748 13.3042 1.54924 13.1522 1.5289 12.9905C1.48963 12.6011 1.51877 12.2078 1.61498 11.8284C4.11124 13.55 7.64044 12.474 7.64044 12.474Z" fill="#CCCCCC"/>
<path opacity="0.5" d="M5.05819 11.0537C5.91391 11.0537 6.6076 10.8225 6.6076 10.5373C6.6076 10.252 5.91391 10.0208 5.05819 10.0208C4.20248 10.0208 3.50879 10.252 3.50879 10.5373C3.50879 10.8225 4.20248 11.0537 5.05819 11.0537Z" fill="#E6E6E6"/>
<defs>
<linearGradient id="paint0_linear_2_484" x1="12.8038" y1="28.0737" x2="66.4874" y2="16.6629" gradientUnits="userSpaceOnUse">
<stop stop-color="#B0E881"/>
<stop offset="0.05" stop-color="#A6E47D"/>
<stop offset="0.23" stop-color="#84D46F"/>
<stop offset="0.42" stop-color="#69C763"/>
<stop offset="0.61" stop-color="#55BE5B"/>
<stop offset="0.8" stop-color="#4AB957"/>
<stop offset="1" stop-color="#46B755"/>
</linearGradient>
</defs>
</svg>
