<svg width="72" height="84" viewBox="0 0 72 84" fill="none" xmlns="http://www.w3.org/2000/svg">
<ellipse cx="18.5" cy="75.5" rx="18.5" ry="4.5" fill="#84D46F"/>
<g filter="url(#filter0_d_2_167)">
<path d="M48.2033 20.0299L25.484 68.6974L20.494 75.8596C20.3765 75.977 20.2591 76.0357 20.1417 75.977H20.083C20.0243 75.8595 19.9656 75.8008 20.0243 75.6834L22.3139 67.2298L44.9745 18.5623L46.3834 19.208L48.2033 20.0299Z" fill="#E6E6E6"/>
<path d="M48.2033 20.0299L25.484 68.6974L20.4939 75.8596C20.3765 75.977 20.2591 76.0357 20.1417 75.977H20.083L24.075 67.2298L46.3834 19.208L48.2033 20.0299Z" fill="#CCCCCC"/>
<path d="M65.4041 31.6537C63.545 35.6401 60.546 38.9861 56.786 41.2687C53.0261 43.5514 48.6739 44.6684 44.2794 44.4786C39.8849 44.2888 35.6452 42.8007 32.0961 40.2023C28.5469 37.6039 25.8476 34.0119 24.3392 29.88C22.8307 25.7481 22.5808 21.2618 23.621 16.988C24.6612 12.7141 26.9448 8.84446 30.1834 5.86796C33.422 2.89146 37.4701 0.94166 41.8164 0.264923C46.1626 -0.411814 50.612 0.214873 54.6022 2.06581C57.2563 3.29695 59.6415 5.0394 61.6213 7.19351C63.6011 9.34762 65.1366 11.8711 66.1399 14.6194C67.1433 17.3677 67.5947 20.2868 67.4685 23.2098C67.3422 26.1328 66.6407 29.0022 65.4041 31.6537Z" fill="url(#paint0_linear_2_167)"/>
<path d="M64.3476 31.1841C66.1178 27.3958 66.7245 23.1675 66.0909 19.0343C65.4572 14.9011 63.6117 11.0487 60.7879 7.96473C57.9642 4.88073 54.289 2.70371 50.2275 1.70913C46.166 0.714558 41.9008 0.947147 37.9715 2.37746C34.0423 3.80778 30.6256 6.37157 28.1539 9.74434C25.6822 13.1171 24.2666 17.1473 24.0861 21.3249C23.9057 25.5024 24.9685 29.6397 27.1402 33.213C29.3118 36.7863 32.4947 39.6352 36.286 41.399C41.3624 43.7607 47.1686 44.0114 52.4298 42.0963C57.691 40.1811 61.9773 36.2565 64.3476 31.1841Z" fill="url(#paint1_linear_2_167)"/>
<path d="M59.9445 29.1294C58.5863 32.0452 56.3939 34.4926 53.6445 36.1622C50.8951 37.8318 47.7124 38.6485 44.4988 38.5091C41.2852 38.3697 38.1852 37.2803 35.5908 35.3789C32.9964 33.4774 31.0242 30.8492 29.9236 27.8267C28.8231 24.8043 28.6436 21.5233 29.4079 18.3988C30.1722 15.2744 31.8459 12.4468 34.2174 10.2736C36.5889 8.10049 39.5516 6.67944 42.7308 6.19027C45.91 5.70111 49.1628 6.16577 52.0779 7.5255C55.9743 9.36002 58.9877 12.6603 60.4612 16.7071C61.9348 20.7539 61.7491 25.219 59.9445 29.1294Z" fill="#5AB52F"/>
<path d="M45.2093 37.6418C42.9761 37.6235 40.7733 37.1229 38.7516 36.1741C36.9108 35.3282 35.2568 34.1243 33.886 32.6325C32.5153 31.1408 31.4552 29.3912 30.7675 27.4856C30.0656 25.5927 29.7507 23.5782 29.8414 21.5614C29.9322 19.5446 30.4268 17.5665 31.2959 15.7443C32.5337 13.0979 34.4996 10.8587 36.9636 9.28885C39.4276 7.71897 42.2877 6.88331 45.2093 6.87969C47.4654 6.86154 49.6952 7.36376 51.7257 8.34734C54.8846 9.836 57.4428 12.3553 58.9799 15.4909C60.5169 18.6265 60.9411 22.1918 60.1829 25.6005C59.4246 29.0093 57.529 32.0586 54.8077 34.247C52.0863 36.4353 48.7013 37.6326 45.2093 37.6418Z" fill="white"/>
</g>
<defs>
<filter id="filter0_d_2_167" x="16" y="0" width="55.4893" height="84" filterUnits="userSpaceOnUse" color-interpolation-filters="sRGB">
<feFlood flood-opacity="0" result="BackgroundImageFix"/>
<feColorMatrix in="SourceAlpha" type="matrix" values="0 0 0 0 0 0 0 0 0 0 0 0 0 0 0 0 0 0 127 0" result="hardAlpha"/>
<feOffset dy="4"/>
<feGaussianBlur stdDeviation="2"/>
<feComposite in2="hardAlpha" operator="out"/>
<feColorMatrix type="matrix" values="0 0 0 0 0 0 0 0 0 0 0 0 0 0 0 0 0 0 0.5 0"/>
<feBlend mode="normal" in2="BackgroundImageFix" result="effect1_dropShadow_2_167"/>
<feBlend mode="normal" in="SourceGraphic" in2="effect1_dropShadow_2_167" result="shape"/>
</filter>
<linearGradient id="paint0_linear_2_167" x1="35.8095" y1="42.4471" x2="54.6157" y2="2.11699" gradientUnits="userSpaceOnUse">
<stop stop-color="#B0E881"/>
<stop offset="0.05" stop-color="#A6E47D"/>
<stop offset="0.23" stop-color="#84D46F"/>
<stop offset="0.42" stop-color="#69C763"/>
<stop offset="0.61" stop-color="#55BE5B"/>
<stop offset="0.8" stop-color="#4AB957"/>
<stop offset="1" stop-color="#46B755"/>
</linearGradient>
<linearGradient id="paint1_linear_2_167" x1="24.0868" y1="22.249" x2="66.3553" y2="22.249" gradientUnits="userSpaceOnUse">
<stop stop-color="#B0E881"/>
<stop offset="0.05" stop-color="#A6E47D"/>
<stop offset="0.23" stop-color="#84D46F"/>
<stop offset="0.42" stop-color="#69C763"/>
<stop offset="0.61" stop-color="#55BE5B"/>
<stop offset="0.8" stop-color="#4AB957"/>
<stop offset="1" stop-color="#46B755"/>
</linearGradient>
</defs>
</svg>
