<svg width="48" height="43" viewBox="0 0 48 43" fill="none" xmlns="http://www.w3.org/2000/svg">
<path d="M47.5628 21.3689C47.5702 25.4887 46.3553 29.5181 44.0719 32.9472C41.7884 36.3763 38.539 39.051 34.7349 40.6327C30.9308 42.2145 26.743 42.6321 22.7014 41.833C18.6599 41.0338 14.9462 39.0536 12.0304 36.1431C9.11462 33.2325 7.12778 29.5224 6.32131 25.4823C5.51484 21.4422 5.925 17.2536 7.49987 13.4467C9.07475 9.63972 11.7436 6.38553 15.1686 4.0959C18.5936 1.80626 22.6208 0.584113 26.7406 0.584106C32.2565 0.584098 37.5471 2.77272 41.4509 6.66954C45.3548 10.5664 47.5529 15.853 47.5628 21.3689Z" fill="#4A9CFF"/>
<g style="mix-blend-mode:multiply">
<path opacity="0.5" d="M5.73108 36.5361C3.253 34.395 1.4657 31.567 0.595318 28.4099C-0.275061 25.2528 -0.189395 21.9085 0.841478 18.8001C1.87235 15.6917 3.8021 12.9589 6.38655 10.9475C8.97099 8.93619 12.094 7.73666 15.3604 7.50072C18.6267 7.26479 21.8897 8.00306 24.7364 9.62211C27.5831 11.2412 29.8855 13.6682 31.3524 16.5962C32.8193 19.5242 33.3847 22.8215 32.9771 26.071C32.5694 29.3204 31.2071 32.3759 29.0624 34.8508C26.1902 38.1654 22.1199 40.2045 17.7454 40.5205C13.3709 40.8365 9.04985 39.4034 5.73108 36.5361Z" fill="url(#paint0_linear_2_483)"/>
<path opacity="0.509804" d="M6.14313 36.5736C3.65077 34.4737 1.83705 31.6819 0.93134 28.5513C0.0256258 25.4207 0.0685915 22.0917 1.0548 18.9855C2.04101 15.8793 3.92617 13.1353 6.47189 11.1004C9.01761 9.06561 12.1096 7.83137 15.3567 7.55379C18.6039 7.2762 21.8605 7.96775 24.7146 9.54098C27.5688 11.1142 29.8923 13.4985 31.3914 16.3922C32.8906 19.286 33.4979 22.5593 33.1367 25.7983C32.7755 29.0372 31.4619 32.0963 29.3621 34.5887C26.5407 37.9223 22.5138 40.0026 18.1624 40.3746C13.811 40.7466 9.48939 39.3799 6.14313 36.5736Z" fill="url(#paint1_linear_2_483)"/>
<path opacity="0.519608" d="M6.55504 36.611C4.04941 34.5523 2.21023 31.7971 1.2699 28.6935C0.329576 25.5899 0.330294 22.2772 1.27197 19.174C2.21365 16.0708 4.05403 13.3164 6.56055 11.2588C9.06708 9.20119 12.1273 7.93271 15.3545 7.61365C18.5816 7.29459 21.831 7.93928 24.6919 9.46624C27.5528 10.9932 29.8969 13.3339 31.428 16.1926C32.9591 19.0513 33.6085 22.2997 33.2941 25.5274C32.9797 28.755 31.7157 31.817 29.6617 34.3265C26.8914 37.6799 22.9076 39.802 18.5791 40.2299C14.2505 40.6579 9.92832 39.357 6.55504 36.611Z" fill="url(#paint2_linear_2_483)"/>
<path opacity="0.529412" d="M6.96688 36.611C4.44632 34.5927 2.58077 31.8724 1.60609 28.7939C0.63141 25.7155 0.591375 22.4172 1.49104 19.316C2.3907 16.2148 4.18967 13.45 6.6605 11.3712C9.13134 9.29228 12.1631 7.99268 15.3724 7.63667C18.5818 7.28065 21.8247 7.88421 24.691 9.37103C27.5574 10.8578 29.9186 13.1612 31.476 15.9898C33.0335 18.8184 33.7173 22.0453 33.441 25.2625C33.1647 28.4797 31.9407 31.5427 29.9237 34.0644C28.5869 35.7436 26.9314 37.1421 25.0524 38.1795C23.1734 39.2169 21.1079 39.8728 18.9746 40.1095C16.8413 40.3461 14.6823 40.1589 12.6216 39.5585C10.561 38.9581 8.63923 37.9564 6.96688 36.611Z" fill="url(#paint3_linear_2_483)"/>
<path opacity="0.539216" d="M7.37891 36.6484C4.847 34.6712 2.95778 31.9881 1.94986 28.9378C0.941946 25.8876 0.860537 22.6071 1.71591 19.5106C2.57129 16.4141 4.32509 13.6405 6.75582 11.5402C9.18654 9.43983 12.1852 8.1069 15.373 7.70973C18.5608 7.31256 21.7948 7.86897 24.6666 9.30868C27.5384 10.7484 29.9191 13.0068 31.5081 15.7988C33.0972 18.5907 33.8232 21.7909 33.5945 24.9952C33.3659 28.1995 32.1928 31.2642 30.2234 33.8022C28.9123 35.4919 27.2807 36.9062 25.422 37.964C23.5633 39.0219 21.5141 39.7025 19.3919 39.9669C17.2697 40.2313 15.1161 40.0743 13.0547 39.5049C10.9933 38.9354 9.06449 37.9647 7.37891 36.6484Z" fill="url(#paint4_linear_2_483)"/>
<path opacity="0.54902" d="M7.79071 36.6859C5.23021 34.7525 3.3008 32.103 2.24665 29.0726C1.19251 26.0423 1.061 22.7673 1.86878 19.6622C2.67657 16.5571 4.38733 13.7614 6.78456 11.629C9.1818 9.4965 12.1578 8.1231 15.3358 7.68258C18.5139 7.24205 21.7512 7.75421 24.6381 9.15423C27.525 10.5542 29.9317 12.7792 31.5536 15.5475C33.1755 18.3158 33.9398 21.5031 33.7496 24.7059C33.5595 27.9087 32.4235 30.9831 30.4854 33.5401C27.8907 36.9634 24.0436 39.2173 19.7887 39.8071C15.5338 40.3969 11.2188 39.2744 7.79071 36.6859Z" fill="url(#paint5_linear_2_483)"/>
<path opacity="0.558824" d="M8.20249 36.7233C5.63272 34.8309 3.68159 32.2193 2.59569 29.2183C1.50979 26.2174 1.33786 22.9619 2.10162 19.8633C2.86538 16.7647 4.53056 13.962 6.8867 11.8095C9.24285 9.65696 12.1842 8.2512 15.3391 7.76986C18.4939 7.28852 21.7206 7.75321 24.6115 9.1052C27.5023 10.4572 29.9275 12.6358 31.5805 15.3657C33.2335 18.0956 34.0402 21.2542 33.8986 24.4424C33.7569 27.6306 32.6734 30.7053 30.7848 33.2779C28.2429 36.7237 24.4386 39.0213 20.2056 39.6672C15.9727 40.313 11.6563 39.2544 8.20249 36.7233Z" fill="url(#paint6_linear_2_483)"/>
<path opacity="0.568627" d="M8.61475 36.7608C6.02383 34.9091 4.04012 32.3307 2.91441 29.3517C1.78869 26.3727 1.57153 23.1268 2.29037 20.0244C3.00921 16.922 4.63177 14.1024 6.95292 11.922C9.27407 9.74168 12.1896 8.29851 15.3309 7.77496C18.4721 7.25142 21.6981 7.67101 24.6009 8.9807C27.5037 10.2904 29.9531 12.4314 31.6392 15.1329C33.3254 17.8345 34.1727 20.9754 34.074 24.1584C33.9753 27.3415 32.9351 30.4239 31.0847 33.0158C29.8588 34.7415 28.304 36.208 26.5095 37.331C24.715 38.4539 22.7163 39.2111 20.6282 39.5591C18.5402 39.9071 16.4039 39.8391 14.3422 39.3588C12.2805 38.8786 10.3341 37.9957 8.61475 36.7608Z" fill="url(#paint7_linear_2_483)"/>
<path opacity="0.578431" d="M9.02665 36.7983C6.42328 34.991 4.41411 32.4525 3.25306 29.5036C2.09201 26.5547 1.83119 23.3279 2.50357 20.2308C3.17595 17.1338 4.75135 14.3055 7.03066 12.1036C9.30997 9.90163 12.1909 8.42479 15.3093 7.85971C18.4277 7.29462 21.6437 7.66666 24.5507 8.92881C27.4577 10.1909 29.9254 12.2865 31.6417 14.9507C33.3581 17.6149 34.2462 20.7281 34.1937 23.8969C34.1412 27.0657 33.1505 30.1478 31.3468 32.7537C28.9189 36.2441 25.2062 38.6298 21.0225 39.388C16.8387 40.1461 12.525 39.2148 9.02665 36.7983Z" fill="url(#paint8_linear_2_483)"/>
<path opacity="0.588235" d="M9.43851 36.8357C6.81614 35.0691 4.77636 32.5647 3.57696 29.6391C2.37757 26.7135 2.07241 23.498 2.70006 20.399C3.3277 17.3 4.85998 14.4566 7.10322 12.2282C9.34646 9.99988 12.2 8.48656 15.3031 7.87954C18.4062 7.27253 21.6196 7.59907 24.5371 8.8179C27.4547 10.0367 29.9454 12.0931 31.6946 14.7272C33.4437 17.3613 34.3726 20.4547 34.3641 23.6166C34.3555 26.7785 33.4097 29.8669 31.6463 32.4915C29.2662 35.9985 25.5966 38.423 21.437 39.2367C17.2774 40.0504 12.9647 39.1874 9.43851 36.8357Z" fill="url(#paint9_linear_2_483)"/>
<path opacity="0.598039" d="M9.85072 36.8731C7.21043 35.1472 5.14104 32.6773 3.90407 29.7756C2.6671 26.8739 2.31808 23.6706 2.90112 20.5706C3.48416 17.4706 4.9731 14.613 7.17974 12.359C9.38639 10.1049 12.2117 8.55561 15.2986 7.90683C18.3856 7.25805 21.5955 7.53893 24.5229 8.71396C27.4502 9.889 29.9635 11.9055 31.7451 14.5085C33.5268 17.1115 34.4968 20.1843 34.5326 23.3384C34.5684 26.4926 33.6683 29.5866 31.9462 32.2293C30.8014 33.9863 29.3214 35.5002 27.5909 36.6847C25.8604 37.8691 23.9134 38.7007 21.8612 39.132C19.809 39.5633 17.692 39.5858 15.6311 39.1982C13.5702 38.8106 11.606 38.0205 9.85072 36.8731Z" fill="url(#paint10_linear_2_483)"/>
<path opacity="0.607843" d="M10.2625 36.9106C7.60019 35.2294 5.49633 32.7963 4.21713 29.9191C2.93793 27.0419 2.54088 23.8499 3.07621 20.747C3.61153 17.6441 5.05519 14.7697 7.22452 12.4875C9.39385 10.2052 12.1914 8.61774 15.2631 7.9258C18.3349 7.23386 21.5429 7.4686 24.4813 8.6003C27.4196 9.732 29.9562 11.7098 31.7703 14.2835C33.5843 16.8572 34.5941 19.9111 34.6721 23.0589C34.7501 26.2067 33.8926 29.3069 32.2082 31.9672C29.9519 35.5309 26.3732 38.0533 22.2583 38.9802C18.1435 39.9071 13.8289 39.1627 10.2625 36.9106Z" fill="url(#paint11_linear_2_483)"/>
<path opacity="0.617647" d="M10.6747 36.948C7.99659 35.3074 5.86517 32.9095 4.54997 30.0575C3.23476 27.2055 2.79484 24.0275 3.28584 20.9255C3.77683 17.8234 5.1767 14.9367 7.30839 12.6303C9.44009 10.3239 12.2079 8.70139 15.2617 7.96805C18.3155 7.23472 21.5182 7.42345 24.4648 8.51038C27.4114 9.59731 29.9694 11.5336 31.8155 14.0744C33.6615 16.6153 34.7127 19.6465 34.8359 22.7847C34.9592 25.9229 34.1491 29.0272 32.508 31.705C30.3009 35.2875 26.7649 37.8502 22.6735 38.8328C18.582 39.8153 14.2679 39.1376 10.6747 36.948Z" fill="url(#paint12_linear_2_483)"/>
<path opacity="0.627451" d="M11.0867 36.9855C8.38887 35.3897 6.22507 33.0295 4.86917 30.2034C3.51326 27.3774 3.0262 24.2127 3.46964 21.1097C3.91307 18.0068 5.26706 15.1051 7.36025 12.772C9.45343 10.4389 12.1917 8.77918 15.2285 8.00293C18.2654 7.22668 21.4642 7.36878 24.4203 8.41126C27.3763 9.45373 29.9566 11.3497 31.8347 13.8593C33.7127 16.3688 34.8041 19.3791 34.9706 22.5091C35.1372 25.6392 34.3714 28.7482 32.7703 31.4429C30.62 35.0424 27.1333 37.6454 23.071 38.6838C19.0087 39.7221 14.7006 39.1116 11.0867 36.9855Z" fill="url(#paint13_linear_2_483)"/>
<path opacity="0.637255" d="M11.4985 36.9855C8.78711 35.4301 6.59789 33.1056 5.20768 30.3059C3.81747 27.5063 3.2887 24.3572 3.68824 21.257C4.08779 18.1569 5.3977 15.2448 7.45232 12.8891C9.50694 10.5334 12.214 8.8399 15.2311 8.02277C18.2482 7.20563 21.4399 7.30155 24.4025 8.29841C27.3651 9.29527 29.9656 11.1483 31.875 13.6231C33.7845 16.0979 34.9171 19.0834 35.1298 22.202C35.3424 25.3206 34.6255 28.4322 33.0697 31.1433C32.0403 32.9468 30.6649 34.5293 29.0223 35.7997C27.3797 37.0702 25.5023 38.0036 23.498 38.5465C21.4936 39.0893 19.4017 39.2309 17.3425 38.963C15.2833 38.6951 13.2972 38.0231 11.4985 36.9855Z" fill="url(#paint14_linear_2_483)"/>
<path opacity="0.647059" d="M11.9106 37.0229C9.18681 35.5076 6.97329 33.219 5.54968 30.4462C4.12608 27.6734 3.55627 24.5409 3.91226 21.4444C4.26825 18.3479 5.53406 15.4263 7.54976 13.0489C9.56546 10.6715 12.2406 8.94493 15.2372 8.08727C18.2338 7.22961 21.4173 7.27938 24.3856 8.23029C27.3539 9.18121 29.9738 10.9906 31.9142 13.4298C33.8546 15.8691 35.0284 18.8288 35.2875 21.9349C35.5465 25.041 34.879 28.1542 33.3694 30.8811C32.3653 32.695 31.0133 34.293 29.3908 35.5837C27.7683 36.8744 25.9071 37.8324 23.9139 38.4029C21.9207 38.9734 19.8345 39.1451 17.7748 38.9084C15.7151 38.6716 13.7223 38.0309 11.9106 37.0229Z" fill="url(#paint15_linear_2_483)"/>
<path opacity="0.656863" d="M12.3222 37.0604C9.5821 35.5896 7.33948 33.3396 5.87776 30.5946C4.41604 27.8497 3.80082 24.7331 4.10984 21.6386C4.41887 18.5441 5.63827 15.6107 7.61395 13.2091C9.58963 10.8074 12.2329 9.0453 15.2097 8.14545C18.1866 7.2456 21.3634 7.24838 24.3386 8.15344C27.3139 9.05851 29.954 10.8252 31.9255 13.2304C33.897 15.6355 35.1112 18.571 35.4149 21.666C35.7185 24.7611 35.0978 27.8766 33.6312 30.619C31.6547 34.2939 28.302 37.0355 24.3077 38.2429C20.3135 39.4503 16.0035 39.0251 12.3222 37.0604Z" fill="url(#paint16_linear_2_483)"/>
<path opacity="0.666667" d="M12.7342 37.0978C9.97113 35.6684 7.69397 33.4516 6.19075 30.7279C4.68753 28.0042 4.02577 24.8959 4.28914 21.7961C4.55252 18.6963 5.7292 15.7442 7.67039 13.3131C9.61158 10.8821 12.2301 9.08125 15.1948 8.13842C18.1594 7.19559 21.3371 7.15308 24.326 8.01628C27.3148 8.87948 29.9805 10.6096 31.986 12.9879C33.9916 15.3661 35.2468 18.2857 35.593 21.3774C35.9392 24.469 35.3608 27.5939 33.9309 30.3568C32.9854 32.1947 31.6861 33.8276 30.1077 35.1619C28.5293 36.4961 26.7029 37.5054 24.7333 38.1318C22.7637 38.7582 20.6898 38.9893 18.6306 38.8118C16.5715 38.6344 14.5676 38.0519 12.7342 37.0978Z" fill="url(#paint17_linear_2_483)"/>
<path opacity="0.676471" d="M13.146 37.1352C10.3738 35.7451 8.07571 33.5647 6.54188 30.8693C5.00805 28.174 4.3073 25.0845 4.52812 21.9912C4.74894 18.8978 5.88142 15.9393 7.78256 13.4891C9.6837 11.039 12.2682 9.20708 15.2098 8.22482C18.1514 7.24255 21.318 7.15396 24.3099 7.97021C27.3018 8.78646 29.9847 10.471 32.0199 12.811C34.055 15.151 35.3512 18.0416 35.7446 21.1178C36.138 24.194 35.6111 27.3177 34.2304 30.0947C33.3109 31.9438 32.0355 33.5933 30.4773 34.9485C28.9191 36.3037 27.1087 37.338 25.1499 37.9921C23.1911 38.6462 21.1224 38.9072 19.0625 38.7602C17.0027 38.6131 14.9921 38.0609 13.146 37.1352Z" fill="url(#paint18_linear_2_483)"/>
<path opacity="0.686275" d="M13.5581 37.1727C10.7603 35.8287 8.42393 33.685 6.84457 31.0129C5.26521 28.3409 4.5138 25.2604 4.68538 22.1612C4.85695 19.0621 5.94382 16.0834 7.80849 13.602C9.67316 11.1206 12.2319 9.24796 15.161 8.22094C18.0901 7.19392 21.2579 7.05868 24.2639 7.8323C27.2699 8.60592 29.9789 10.2537 32.0483 12.5671C34.1176 14.8805 35.4544 17.7557 35.8895 20.829C36.3246 23.9023 35.8385 27.0356 34.4927 29.8325C32.6889 33.581 29.4705 36.4599 25.5449 37.8363C21.6193 39.2128 17.3078 38.9741 13.5581 37.1727Z" fill="url(#paint19_linear_2_483)"/>
<path opacity="0.696078" d="M13.9703 37.2102C11.1656 35.9048 8.81056 33.7977 7.20254 31.1548C5.59451 28.512 4.80561 25.452 4.93542 22.3611C5.06524 19.2702 6.10796 16.2871 7.93194 13.7884C9.75591 11.2897 12.2793 9.38747 15.1836 8.32187C18.0879 7.25627 21.2428 7.07509 24.25 7.80121C27.2572 8.52732 29.9818 10.1282 32.0798 12.4016C34.1778 14.6751 35.5552 17.5192 36.038 20.5749C36.5208 23.6306 36.0874 26.7609 34.7925 29.5704C33.035 33.3363 29.8586 36.2536 25.9572 37.685C22.0557 39.1165 17.7463 38.9458 13.9703 37.2102Z" fill="url(#paint20_linear_2_483)"/>
<path opacity="0.705882" d="M14.3823 37.2476C11.559 35.9828 9.17383 33.9099 7.52784 31.2905C5.88186 28.6711 5.0489 25.6228 5.13412 22.5304C5.21933 19.438 6.21891 16.4401 8.00665 13.9154C9.79439 11.3906 12.2901 9.45218 15.1787 8.34479C18.0673 7.2374 21.2193 7.01073 24.2366 7.69339C27.254 8.37605 30.0014 9.93743 32.132 12.1804C34.2626 14.4233 35.6809 17.2473 36.2077 20.2957C36.7345 23.3441 36.3463 26.4803 35.0921 29.3082C34.2566 31.1919 33.0575 32.8921 31.5635 34.3113C30.0695 35.7305 28.3099 36.8408 26.3858 37.5784C24.4617 38.316 22.4109 38.6665 20.3511 38.6098C18.2912 38.553 16.2628 38.0901 14.3823 37.2476Z" fill="url(#paint21_linear_2_483)"/>
<path opacity="0.715686" d="M14.7939 37.2851C11.9486 36.0661 9.52855 34.0309 7.83969 31.4368C6.15083 28.8427 5.26896 25.8061 5.30554 22.7109C5.34212 19.6157 6.29551 16.6009 8.0452 14.0474C9.79489 11.4939 12.2623 9.51653 15.1356 8.36511C18.0089 7.2137 21.1591 6.93998 24.1879 7.57855C27.2167 8.21712 29.9883 9.73932 32.1522 11.9527C34.3161 14.1661 35.7752 16.9714 36.345 20.0139C36.9149 23.0564 36.57 26.1996 35.3539 29.0461C33.7138 32.8598 30.6292 35.8681 26.7757 37.4124C22.9222 38.9566 18.6137 38.9108 14.7939 37.2851Z" fill="url(#paint22_linear_2_483)"/>
<path opacity="0.72549" d="M15.206 37.3225C12.3444 36.1437 9.89651 34.1432 8.17152 31.5736C6.44653 29.0041 5.52189 25.9809 5.51445 22.8861C5.507 19.7913 6.41708 16.7637 8.12969 14.1859C9.8423 11.6081 12.2806 9.59576 15.1364 8.40321C17.9923 7.21065 21.1375 6.89138 24.1748 7.48572C27.212 8.08007 30.0049 9.56136 32.2006 11.7424C34.3963 13.9235 35.8962 16.7065 36.5108 19.7397C37.1254 22.7729 36.8271 25.9202 35.6537 28.7839C34.8733 30.6884 33.725 32.4203 32.2745 33.8805C30.824 35.3407 29.0998 36.5006 27.2006 37.2937C25.3013 38.0868 23.2643 38.4975 21.2062 38.5025C19.148 38.5074 17.109 38.1065 15.206 37.3225Z" fill="url(#paint23_linear_2_483)"/>
<path opacity="0.735294" d="M15.6179 37.36C12.7367 36.2267 10.2563 34.2645 8.49028 31.7215C6.72426 29.1785 5.75197 26.169 5.69637 23.0734C5.64077 19.9778 6.50436 16.9353 8.17792 14.3305C9.85148 11.7258 12.2599 9.67577 15.0985 8.43976C17.9371 7.20374 21.0786 6.83723 24.1255 7.38658C27.1724 7.93592 29.9881 9.37644 32.2163 11.526C34.4445 13.6755 35.9853 16.4375 36.6439 19.4628C37.3024 22.488 37.049 25.6406 35.9158 28.5218C35.1634 30.4349 34.0415 32.1811 32.6142 33.6606C31.187 35.1402 29.4822 36.3241 27.5974 37.1448C25.7125 37.9655 23.6845 38.4069 21.6291 38.4439C19.5736 38.4808 17.531 38.1125 15.6179 37.36Z" fill="url(#paint24_linear_2_483)"/>
<path opacity="0.745098" d="M16.0297 37.3974C13.1345 36.3038 10.6284 34.3764 8.82818 31.8589C7.02794 29.3414 6.01434 26.3468 5.91546 23.2535C5.81659 20.1601 6.63687 17.1069 8.27265 14.4796C9.90843 11.8523 12.2863 9.76879 15.1058 8.49243C17.9253 7.21608 21.0598 6.80413 24.1134 7.30864C27.1669 7.81315 30.0024 9.21147 32.2614 11.3269C34.5205 13.4424 36.1019 16.18 36.8056 19.1938C37.5093 22.2077 37.3039 25.3625 36.2153 28.2596C35.4914 30.1862 34.3947 31.951 32.988 33.4532C31.5813 34.9554 29.8922 36.1655 28.0173 37.0143C26.1425 37.863 24.1187 38.3337 22.0617 38.3995C20.0047 38.4652 17.955 38.1247 16.0297 37.3974Z" fill="url(#paint25_linear_2_483)"/>
<path opacity="0.754902" d="M16.4418 37.3974C13.5335 36.3403 11.0038 34.4448 9.17226 31.9506C7.3407 29.4564 6.28946 26.4753 6.15135 23.3839C6.01323 20.2925 6.79444 17.2296 8.39628 14.582C9.99812 11.9343 12.3487 9.82088 15.1511 8.50855C17.9535 7.19623 21.0821 6.74392 24.1414 7.20877C27.2008 7.67362 30.0537 9.03478 32.3398 11.1203C34.626 13.2058 36.2427 15.9221 36.9859 18.926C37.729 21.9299 37.5651 25.0867 36.515 27.9975C35.8205 29.9372 34.749 31.7204 33.3623 33.2442C31.9756 34.768 30.3011 36.0023 28.4352 36.8761C26.5693 37.7498 24.549 38.2457 22.4906 38.3352C20.4322 38.4247 18.3765 38.106 16.4418 37.3974Z" fill="url(#paint26_linear_2_483)"/>
<path opacity="0.764706" d="M16.8539 37.4348C13.9293 36.4224 11.3705 34.5658 9.50072 32.0997C7.63095 29.6335 6.53414 26.6684 6.34888 23.5792C6.16362 20.4899 6.89823 17.415 8.45988 14.7431C10.0215 12.0711 12.3401 9.92203 15.1227 8.56734C17.9053 7.21266 21.027 6.71317 24.0934 7.132C27.1597 7.55083 30.0332 8.86917 32.3505 10.9204C34.6679 12.9717 36.3253 15.6639 37.1132 18.6567C37.9011 21.6496 37.7842 24.8089 36.7773 27.7353C36.1076 29.6815 35.0607 31.4766 33.6965 33.0177C32.3323 34.5589 30.6776 35.8159 28.8271 36.7168C26.9765 37.6178 24.9665 38.1449 22.912 38.2681C20.8575 38.3913 18.7988 38.1082 16.8539 37.4348Z" fill="url(#paint27_linear_2_483)"/>
<path opacity="0.77451" d="M17.2655 37.4723C14.3176 36.502 11.7236 34.6793 9.81162 32.2348C7.89961 29.7902 6.75543 26.8336 6.52377 23.7388C6.2921 20.644 6.98336 17.55 8.51012 14.848C10.0369 12.146 12.3306 9.95749 15.1012 8.55911C17.8717 7.16073 20.9948 6.61531 24.0753 6.99184C27.1559 7.36837 30.0556 8.64993 32.4078 10.6745C34.76 12.699 36.459 15.3756 37.2901 18.3657C38.1211 21.3559 38.0468 24.5253 37.0765 27.4732C36.4365 29.4334 35.4156 31.2479 34.0723 32.8124C32.729 34.3769 31.0898 35.6606 29.2489 36.5897C27.4081 37.5189 25.4018 38.0752 23.3453 38.2266C21.2888 38.3781 19.2226 38.1218 17.2655 37.4723Z" fill="url(#paint28_linear_2_483)"/>
<path opacity="0.784314" d="M17.6777 37.5098C14.7075 36.5814 12.0796 34.7928 10.1262 32.3704C8.17286 29.948 6.98195 27.0006 6.70416 23.9012C6.42638 20.8018 7.0742 17.6896 8.56566 14.9585C10.0571 12.2273 12.3252 9.99996 15.0829 8.55819C17.8406 7.11643 20.964 6.52506 24.0579 6.85893C27.1518 7.19279 30.0771 8.43687 32.4637 10.4338C34.8504 12.4306 36.5911 15.0906 37.4655 18.0771C38.34 21.0635 38.309 24.2422 37.3764 27.211C36.7622 29.1827 35.7649 31.0137 34.4416 32.5991C33.1183 34.1845 31.4951 35.4931 29.665 36.4498C27.835 37.4066 25.834 37.9928 23.777 38.1746C21.7199 38.3565 19.6472 38.1306 17.6777 37.5098Z" fill="url(#paint29_linear_2_483)"/>
<path opacity="0.794118" d="M18.0896 37.5472C15.1071 36.665 12.4531 34.9183 10.4631 32.528C8.47311 30.1377 7.23646 27.211 6.90945 24.118C6.58245 21.025 7.17977 17.9045 8.62594 15.1509C10.0721 12.3973 12.3022 10.1342 15.0342 8.6478C17.7663 7.16138 20.8778 6.51831 23.9752 6.79989C27.0727 7.08147 30.0172 8.27504 32.4365 10.2297C34.8557 12.1844 36.6412 14.8125 37.5671 17.7817C38.493 20.751 38.5179 23.9281 37.6385 26.9114C37.0541 28.8939 36.0848 30.7418 34.7858 32.3495C33.4869 33.9571 31.8838 35.293 30.0683 36.2808C28.2528 37.2686 26.2604 37.8888 24.205 38.1061C22.1496 38.3234 20.0715 38.1335 18.0896 37.5472Z" fill="url(#paint30_linear_2_483)"/>
<path opacity="0.803922" d="M18.5017 37.5847C15.4993 36.7436 12.8136 35.0312 10.7843 32.6639C8.75494 30.2966 7.47311 27.3808 7.10083 24.2851C6.72855 21.1893 7.28254 18.0527 8.69276 15.2718C10.103 12.4909 12.3061 10.1906 15.0236 8.66168C17.741 7.13278 20.8508 6.44396 23.9597 6.68231C27.0686 6.92066 30.0371 8.07548 32.4897 10.0008C34.9424 11.926 36.7691 14.5353 37.7389 17.4987C38.7087 20.4621 38.7781 23.6465 37.9383 26.6493C37.3804 28.6438 36.4351 30.5088 35.1564 32.1378C33.8776 33.7669 32.2904 35.1281 30.4854 36.1436C28.6805 37.1591 26.6931 37.809 24.6369 38.0563C22.5807 38.3036 20.496 38.1433 18.5017 37.5847Z" fill="url(#paint31_linear_2_483)"/>
<path opacity="0.813725" d="M18.9133 37.6221C15.8882 36.8284 13.1666 35.1549 11.0931 32.8136C9.01959 30.4723 7.68736 27.5684 7.26509 24.4695C6.84282 21.3707 7.34948 18.2162 8.72094 15.4054C10.0924 12.5947 12.267 10.254 14.9694 8.67982C17.6718 7.1056 20.7805 6.36859 23.902 6.56208C27.0235 6.75558 30.0175 7.87089 32.5048 9.76681C34.9921 11.6627 36.8609 14.254 37.8748 17.2126C38.8886 20.1713 39.0018 23.3642 38.2 26.3871C37.6733 28.3924 36.7562 30.274 35.5014 31.9244C34.2465 33.5747 32.6784 34.9614 30.887 36.005C29.0955 37.0485 27.1158 37.7285 25.0612 38.006C23.0066 38.2835 20.9174 38.1531 18.9133 37.6221Z" fill="url(#paint32_linear_2_483)"/>
<path opacity="0.823529" d="M19.3257 37.6596C16.2948 36.9017 13.5566 35.2626 11.4569 32.9493C9.35718 30.636 7.9902 27.7523 7.52865 24.6625C7.06711 21.5726 7.5317 18.4153 8.86373 15.5893C10.1958 12.7634 12.3355 10.3957 15.0125 8.78526C17.6896 7.17483 20.7839 6.39398 23.9046 6.54134C27.0252 6.6887 30.0322 7.75766 32.5456 9.61319C35.059 11.4687 36.9661 14.0276 38.0259 16.9664C39.0857 19.9053 39.2507 23.0924 38.5 26.125C38.0006 28.1426 37.1081 30.0419 35.8736 31.7141C34.6391 33.3863 33.0868 34.7986 31.3057 35.87C29.5246 36.9415 27.5497 37.651 25.4939 37.9581C23.4382 38.2652 21.3421 38.1637 19.3257 37.6596Z" fill="url(#paint33_linear_2_483)"/>
<path opacity="0.833333" d="M19.7374 37.6971C16.6897 36.9792 13.9231 35.3743 11.787 33.0851C9.65088 30.7958 8.24106 27.9249 7.73561 24.8349C7.23016 21.7449 7.65175 18.5744 8.94714 15.7238C10.2425 12.8732 12.3536 10.4705 15.0137 8.819C17.6739 7.16752 20.7638 6.34139 23.8931 6.44495C27.0225 6.54851 30.051 7.57711 32.5961 9.40084C35.1413 11.2246 37.0889 13.7616 38.193 16.6916C39.2971 19.6216 39.5081 22.813 38.7995 25.8629C38.3278 27.8931 37.46 29.8103 36.246 31.5046C35.0319 33.1989 33.4955 34.6369 31.7246 35.7363C29.9538 36.8356 27.9834 37.5747 25.9264 37.9112C23.8694 38.2477 21.7663 38.1749 19.7374 37.6971Z" fill="url(#paint34_linear_2_483)"/>
<path opacity="0.843137" d="M20.1492 37.7345C17.0822 37.0629 14.2832 35.4971 12.1059 33.235C9.92852 30.973 8.47066 28.1162 7.91652 25.0258C7.36238 21.9354 7.73684 18.7501 8.99257 15.8725C10.2483 12.9948 12.3289 10.5541 14.9715 8.85864C17.6141 7.16322 20.6999 6.28924 23.8391 6.34719C26.9782 6.40513 30.0297 7.39239 32.6079 9.18419C35.1861 10.976 37.1753 13.4919 38.324 16.4139C39.4726 19.3359 39.7293 22.5329 39.0615 25.6007C38.6176 27.6398 37.7761 29.5715 36.5851 31.2852C35.3942 32.9989 33.877 34.461 32.1206 35.5879C30.3641 36.7148 28.4027 37.4845 26.3486 37.8528C24.2944 38.2211 22.1878 38.1809 20.1492 37.7345Z" fill="url(#paint35_linear_2_483)"/>
<path opacity="0.852941" d="M20.5612 37.7719C17.4675 37.1445 14.6294 35.6134 12.4062 33.3724C10.183 31.1314 8.67456 28.2813 8.07184 25.1826C7.46911 22.084 7.79917 18.8762 9.02025 15.9653C10.2413 13.0543 12.2985 10.571 14.9315 8.82969C17.5645 7.08836 20.6548 6.16727 23.8115 6.183C26.9682 6.19872 30.0492 7.15056 32.6647 8.91803C35.2802 10.6855 37.3125 13.1892 38.5046 16.1122C39.6966 19.0351 39.9947 22.2461 39.3611 25.3385C38.9457 27.3907 38.1294 29.3407 36.9591 31.0769C35.7889 32.8131 34.2875 34.3013 32.5411 35.4563C30.7947 36.6112 28.8376 37.4103 26.7819 37.8077C24.7261 38.205 22.6122 38.1929 20.5612 37.7719Z" fill="url(#paint36_linear_2_483)"/>
<path opacity="0.862745" d="M20.973 37.7719C17.8762 37.1764 15.0254 35.6764 12.7806 33.4615C10.5359 31.2465 8.99794 28.416 8.36102 25.3275C7.72409 22.239 8.01679 19.0309 9.20213 16.1087C10.3875 13.1864 12.4123 10.681 15.0208 8.90884C17.6293 7.13672 20.7045 6.17743 23.8579 6.15213C27.0114 6.12682 30.1015 7.03665 32.7382 8.76668C35.3748 10.4967 37.4395 12.9693 38.6716 15.8722C39.9037 18.7751 40.2478 21.978 39.6605 25.0764C39.2743 27.1406 38.4834 29.108 37.3334 30.8652C36.1834 32.6224 34.697 34.1346 32.9599 35.3147C31.2227 36.4948 29.2693 37.3195 27.212 37.7412C25.1547 38.163 23.0343 38.1734 20.973 37.7719Z" fill="url(#paint37_linear_2_483)"/>
<path opacity="0.872549" d="M21.385 37.8094C18.272 37.2588 15.3921 35.7978 13.109 33.6112C10.826 31.4245 9.24228 28.6102 8.55803 25.5238C7.87378 22.4375 8.11968 19.2175 9.26466 16.2709C10.4096 13.3242 12.4023 10.783 14.9909 8.96838C17.5795 7.15374 20.6479 6.14707 23.8084 6.07556C26.9689 6.00406 30.0797 6.87092 32.7477 8.56664C35.4157 10.2623 37.5213 12.7108 38.7984 15.6027C40.0754 18.4946 40.4667 21.7001 39.9227 24.8142C39.5609 26.8857 38.794 28.8655 37.6661 30.6402C36.5381 32.4149 35.0712 33.9498 33.3493 35.1569C31.6274 36.3639 29.6843 37.2195 27.6313 37.6747C25.5783 38.1298 23.4557 38.1756 21.385 37.8094Z" fill="url(#paint38_linear_2_483)"/>
<path opacity="0.882353" d="M21.797 37.8468C18.6602 37.3395 15.7443 35.9133 13.4181 33.7487C11.0918 31.5841 9.4597 28.7784 8.72807 25.6862C7.99643 22.594 8.19816 19.3543 9.30774 16.3768C10.4173 13.3993 12.3849 10.8176 14.9617 8.95835C17.5385 7.09907 20.6088 6.04565 23.7843 5.93131C26.9598 5.81696 30.0979 6.64682 32.8017 8.31595C35.5056 9.98508 37.6538 12.4185 38.9746 15.3085C40.2955 18.1985 40.7297 21.4153 40.2224 24.5521C39.8949 26.6392 39.157 28.6407 38.0515 30.441C36.946 32.2413 35.4947 33.8047 33.7815 35.0409C32.0682 36.2771 30.127 37.1615 28.07 37.6431C26.013 38.1247 23.8809 38.194 21.797 37.8468Z" fill="url(#paint39_linear_2_483)"/>
<path opacity="0.892157" d="M22.209 37.8843C19.0582 37.4209 16.1154 36.0337 13.7529 33.8981C11.3903 31.7624 9.71409 28.9741 8.93611 25.8859C8.15813 22.7976 8.31334 19.548 9.38211 16.5479C10.4509 13.5478 12.3852 10.932 14.9406 9.03125C17.4959 7.13046 20.5575 6.03005 23.7381 5.86914C26.9188 5.70824 30.0758 6.49407 32.8099 8.12728C35.544 9.76048 37.7325 12.1677 39.0985 15.0446C40.4646 17.9215 40.947 21.1389 40.4846 24.2899C40.1823 26.3847 39.4689 28.3992 38.3856 30.2175C37.3024 32.0358 35.8705 33.6222 34.1722 34.8854C32.474 36.1486 30.5429 37.0639 28.4899 37.5785C26.4368 38.0931 24.3023 38.197 22.209 37.8843Z" fill="url(#paint40_linear_2_483)"/>
<path opacity="0.901961" d="M22.6212 37.9217C19.4485 37.5009 16.4719 36.1484 14.068 34.0355C11.6641 31.9226 9.94089 29.1442 9.11639 26.0517C8.29188 22.9592 8.40312 19.6917 9.43604 16.6625C10.469 13.6332 12.3771 10.9784 14.9192 9.03392C17.4612 7.08939 20.5229 5.94252 23.7169 5.73839C26.9108 5.53426 30.0936 6.28206 32.8625 7.88716C35.6314 9.49227 37.862 11.8826 39.2721 14.7557C40.6823 17.6287 41.2085 20.8555 40.7844 24.0278C40.5078 26.1343 39.818 28.1654 38.7546 30.0047C37.6912 31.844 36.2752 33.4553 34.5877 34.7461C32.9002 36.037 30.9745 36.9819 28.921 37.5269C26.8675 38.0718 24.7266 38.206 22.6212 37.9217Z" fill="url(#paint41_linear_2_483)"/>
<path opacity="0.911765" d="M23.033 37.9592C19.8395 37.5803 16.83 36.2626 14.3857 34.1728C11.9413 32.0829 10.1718 29.3149 9.30123 26.219C8.43063 23.1231 8.49802 19.8385 9.49488 16.781C10.4917 13.7234 12.3733 11.0303 14.9013 9.04246C17.4294 7.05463 20.4903 5.86146 23.6967 5.61395C26.9032 5.36644 30.1109 6.07572 32.9141 7.65201C35.7173 9.22831 37.9898 11.6008 39.4441 14.4691C40.8984 17.3375 41.4691 20.5728 41.0839 23.7656C40.8334 25.8839 40.1673 27.932 39.1239 29.7925C38.0805 31.653 36.6803 33.2893 35.0035 34.6078C33.3267 35.9263 31.4063 36.901 29.3522 37.4761C27.2981 38.0512 25.1507 38.2153 23.033 37.9592Z" fill="url(#paint42_linear_2_483)"/>
<path opacity="0.921569" d="M23.445 37.9966C20.2403 37.6603 17.2072 36.3811 14.7295 34.3209C12.2518 32.2606 10.4408 29.5118 9.5255 26.4222C8.6102 23.3326 8.63174 20.0409 9.58741 16.9635C10.5431 13.8861 12.3899 11.1612 14.8944 9.13357C17.3988 7.10591 20.4483 5.86653 23.6572 5.5722C26.8661 5.27787 30.0902 5.9418 32.9218 7.48003C35.7533 9.01825 38.065 11.3617 39.5646 14.2139C41.0641 17.066 41.6841 20.2989 41.3461 23.5035C40.8931 27.7988 38.753 31.7384 35.3961 34.4561C32.0393 37.1739 27.7406 38.4474 23.445 37.9966Z" fill="url(#paint43_linear_2_483)"/>
<path opacity="0.931373" d="M23.8569 38.0341C20.633 37.7389 17.5691 36.4941 15.0528 34.4574C12.5365 32.4206 10.6807 29.6832 9.72036 26.5916C8.75998 23.5 8.73809 20.193 9.65746 17.089C10.5768 13.9849 12.3961 11.2233 14.8853 9.15334C17.3744 7.08342 20.4216 5.79824 23.6412 5.46036C26.8609 5.12248 30.1084 5.74709 32.9731 7.25518C35.8377 8.76326 38.1907 11.0871 39.7344 13.9326C41.2782 16.7782 41.9433 20.0177 41.6456 23.2413C41.2467 27.5613 39.1489 31.5461 35.8133 34.3199C32.4776 37.0938 28.1771 38.4297 23.8569 38.0341Z" fill="url(#paint44_linear_2_483)"/>
<path opacity="0.941176" d="M24.2688 38.0715C21.0282 37.8176 17.9355 36.6087 15.3817 34.5976C12.8278 32.5865 10.9275 29.8635 9.92081 26.7727C8.91412 23.6819 8.84628 20.362 9.72585 17.2326C10.6054 14.1033 12.3929 11.3049 14.8624 9.19116C17.332 7.07741 20.3727 5.74317 23.6003 5.35706C26.8279 4.97096 30.0975 5.55031 32.996 7.02192C35.8944 8.49352 38.2915 10.7913 39.8844 13.6249C41.4773 16.4585 42.1945 19.7007 41.9452 22.9417C41.7796 25.0964 41.1907 27.1972 40.2124 29.1241C39.2341 31.051 37.8855 32.7661 36.2437 34.1713C34.602 35.5765 32.6993 36.6443 30.6446 37.3135C28.5898 37.9827 26.4233 38.2403 24.2688 38.0715Z" fill="url(#paint45_linear_2_483)"/>
<path opacity="0.95098" d="M24.6809 38.109C21.4206 37.9023 18.2949 36.7334 15.699 34.7501C13.1032 32.7668 11.1538 30.0583 10.0975 26.967C9.04112 23.8757 8.92528 20.5405 9.7646 17.3834C10.6039 14.2263 12.3607 11.3889 14.8127 9.23034C17.2647 7.07173 20.3018 5.68879 23.5399 5.25644C26.7779 4.82409 30.0715 5.36175 33.0039 6.80141C35.9364 8.24108 38.376 10.5181 40.0143 13.3444C41.6525 16.1707 42.4158 19.4194 42.2075 22.6796C42.0741 24.845 41.5144 26.9628 40.5605 28.9114C39.6066 30.8599 38.2773 32.601 36.6489 34.0345C35.0205 35.4681 33.125 36.566 31.0712 37.2652C29.0174 37.9644 26.8458 38.2511 24.6809 38.109Z" fill="url(#paint46_linear_2_483)"/>
<path opacity="0.960784" d="M25.0928 38.1464C21.8161 37.9793 18.6624 36.8443 16.0307 34.8849C13.3989 32.9256 11.4072 30.2299 10.3074 27.1386C9.20765 24.0474 9.04914 20.6995 9.85196 17.5182C10.6548 14.3369 12.3829 11.4651 14.8177 9.26586C17.2526 7.06663 20.2849 5.63875 23.5312 5.16276C26.7775 4.68678 30.0921 5.18405 33.0558 6.59173C36.0195 7.9994 38.4993 10.2542 40.1816 13.0712C41.8639 15.8881 42.6732 19.1406 42.5071 22.4174C42.3968 24.5937 41.8588 26.727 40.9239 28.6954C39.989 30.6638 38.6754 32.4287 37.0583 33.8893C35.4412 35.35 33.5521 36.4777 31.499 37.2082C29.446 37.9386 27.2691 38.2574 25.0928 38.1464Z" fill="url(#paint47_linear_2_483)"/>
<path opacity="0.970588" d="M25.5045 38.1839C22.21 38.063 19.0254 36.9678 16.3535 35.0367C13.6816 33.1056 11.6425 30.4254 10.4941 27.3352C9.34564 24.245 9.13955 20.8836 9.90185 17.6763C10.6642 14.4689 12.3606 11.5597 14.7766 9.31669C17.1926 7.07365 20.2195 5.59757 23.4746 5.07515C26.7296 4.55274 30.0664 5.00747 33.063 6.38182C36.0595 7.75618 38.5812 9.9884 40.3089 12.7961C42.0365 15.6038 42.8927 18.8609 42.7689 22.1553C42.5934 26.5661 40.6789 30.7281 37.4438 33.7316C34.2088 36.7351 29.9162 38.3358 25.5045 38.1839Z" fill="url(#paint48_linear_2_483)"/>
<path opacity="0.980392" d="M25.9165 38.1839C22.6056 38.1012 19.3935 37.0383 16.6868 35.1295C13.9802 33.2208 11.9005 30.552 10.7111 27.461C9.5216 24.3699 9.27578 20.9955 10.0047 17.7647C10.7336 14.5339 12.4045 11.5919 14.806 9.31104C17.2075 7.03017 20.2316 5.51291 23.4956 4.95127C26.7596 4.38962 30.1169 4.80882 33.1427 6.15583C36.1684 7.50283 38.7265 9.7171 40.4934 12.5184C42.2603 15.3198 43.1565 18.5823 43.0686 21.8931C42.951 26.3268 41.0786 30.5325 37.8628 33.5869C34.6469 36.6412 30.3504 38.2946 25.9165 38.1839Z" fill="url(#paint49_linear_2_483)"/>
<path opacity="0.990196" d="M26.3286 38.2214C23.0033 38.1766 19.766 37.1469 17.0259 35.2623C14.2859 33.3778 12.1662 30.723 10.9348 27.6338C9.70351 24.5446 9.41585 21.1596 10.1082 17.9069C10.8006 14.6542 12.442 11.6799 14.8247 9.35998C17.2074 7.04008 20.2246 5.47881 23.4946 4.87359C26.7647 4.26837 30.1407 4.64638 33.1959 5.95982C36.2512 7.27327 38.8483 9.46316 40.659 12.2526C42.4696 15.042 43.4125 18.3057 43.3684 21.631C43.344 23.8407 42.8833 26.0238 42.0128 28.055C41.1423 30.0861 39.8791 31.9253 38.2958 33.4668C36.7124 35.0084 34.8402 36.222 32.7865 37.0379C30.7328 37.8538 28.5382 38.256 26.3286 38.2214Z" fill="url(#paint50_linear_2_483)"/>
<path d="M43.6307 21.3688C43.6307 24.7093 42.6401 27.9748 40.7843 30.7524C38.9284 33.5299 36.2905 35.6947 33.2043 36.9731C30.1181 38.2515 26.722 38.5859 23.4457 37.9342C20.1694 37.2825 17.1599 35.6739 14.7978 33.3118C12.4357 30.9497 10.8271 27.9402 10.1754 24.6639C9.52367 21.3876 9.85815 17.9916 11.1365 14.9053C12.4149 11.8191 14.5797 9.18124 17.3572 7.32535C20.1348 5.46946 23.4003 4.47888 26.7408 4.47888C31.2203 4.47888 35.5163 6.25835 38.6838 9.42583C41.8512 12.5933 43.6307 16.8893 43.6307 21.3688Z" fill="#ACB1BC"/>
</g>
<path d="M47.5628 21.3689C47.5702 25.4887 46.3553 29.5181 44.0719 32.9472C41.7884 36.3763 38.539 39.051 34.7349 40.6327C30.9308 42.2145 26.743 42.6321 22.7014 41.833C18.6599 41.0338 14.9462 39.0536 12.0304 36.1431C9.11462 33.2325 7.12778 29.5224 6.32131 25.4823C5.51484 21.4422 5.925 17.2536 7.49987 13.4467C9.07475 9.63972 11.7436 6.38553 15.1686 4.0959C18.5936 1.80626 22.6208 0.584113 26.7406 0.584106C32.2565 0.584098 37.5471 2.77272 41.4509 6.66954C45.3548 10.5664 47.5529 15.853 47.5628 21.3689Z" fill="#8BD74B"/>
<path d="M43.6307 21.3688C43.6307 24.7093 42.6401 27.9748 40.7843 30.7524C38.9284 33.5299 36.2905 35.6947 33.2043 36.9731C30.1181 38.2515 26.722 38.5859 23.4457 37.9342C20.1694 37.2825 17.1599 35.6739 14.7978 33.3118C12.4357 30.9497 10.8271 27.9402 10.1754 24.6639C9.52367 21.3876 9.85815 17.9916 11.1365 14.9053C12.4149 11.8191 14.5797 9.18124 17.3572 7.32535C20.1348 5.46946 23.4003 4.47888 26.7408 4.47888C31.2203 4.47888 35.5163 6.25835 38.6838 9.42583C41.8512 12.5933 43.6307 16.8893 43.6307 21.3688Z" fill="url(#paint51_linear_2_483)"/>
<path d="M41.9452 21.3688C41.9527 24.3776 41.0672 27.321 39.401 29.8263C37.7348 32.3316 35.3628 34.2863 32.5851 35.4428C29.8075 36.5994 26.7492 36.9058 23.7973 36.3234C20.8454 35.7409 18.1327 34.2958 16.0025 32.1709C13.8723 30.046 12.4205 27.3368 11.8308 24.3864C11.2411 21.4359 11.54 18.3769 12.6897 15.5964C13.8394 12.8159 15.7882 10.439 18.2894 8.76666C20.7906 7.09429 23.7317 6.20159 26.7405 6.20158C28.7355 6.19666 30.7118 6.58534 32.5563 7.34536C34.4008 8.10538 36.0772 9.22181 37.4896 10.6307C38.902 12.0396 40.0226 13.7133 40.7871 15.5559C41.5517 17.3985 41.9452 19.3739 41.9452 21.3688Z" fill="url(#paint52_linear_2_483)"/>
<defs>
<linearGradient id="paint0_linear_2_483" x1="31.9065" y1="9.48473" x2="10.0789" y2="34.6195" gradientUnits="userSpaceOnUse">
<stop stop-color="#183B59"/>
<stop offset="1" stop-color="white" stop-opacity="0"/>
</linearGradient>
<linearGradient id="paint1_linear_2_483" x1="29.2182" y1="11.0122" x2="7.9604" y2="36.2566" gradientUnits="userSpaceOnUse">
<stop stop-color="#1B3D5B"/>
<stop offset="1" stop-color="#FDFDFE" stop-opacity="0.02"/>
</linearGradient>
<linearGradient id="paint2_linear_2_483" x1="28.2486" y1="8.18948" x2="7.57162" y2="33.7728" gradientUnits="userSpaceOnUse">
<stop stop-color="#1E405D"/>
<stop offset="1" stop-color="#FCFCFC" stop-opacity="0.04"/>
</linearGradient>
<linearGradient id="paint3_linear_2_483" x1="28.5857" y1="12.4521" x2="8.35193" y2="38.1057" gradientUnits="userSpaceOnUse">
<stop stop-color="#21425F"/>
<stop offset="1" stop-color="#FAFAFB" stop-opacity="0.06"/>
</linearGradient>
<linearGradient id="paint4_linear_2_483" x1="31.7494" y1="9.52094" x2="11.9843" y2="35.6258" gradientUnits="userSpaceOnUse">
<stop stop-color="#244461"/>
<stop offset="1" stop-color="#F8F9FA" stop-opacity="0.08"/>
</linearGradient>
<linearGradient id="paint5_linear_2_483" x1="26.527" y1="11.2836" x2="7.54785" y2="37.5023" gradientUnits="userSpaceOnUse">
<stop stop-color="#274763"/>
<stop offset="1" stop-color="#F7F7F8" stop-opacity="0.1"/>
</linearGradient>
<linearGradient id="paint6_linear_2_483" x1="27.826" y1="7.79528" x2="9.49301" y2="34.4976" gradientUnits="userSpaceOnUse">
<stop stop-color="#294965"/>
<stop offset="1" stop-color="#F5F6F7" stop-opacity="0.12"/>
</linearGradient>
<linearGradient id="paint7_linear_2_483" x1="27.6625" y1="12.3538" x2="9.91647" y2="39.1793" gradientUnits="userSpaceOnUse">
<stop stop-color="#2C4B67"/>
<stop offset="1" stop-color="#F4F4F6" stop-opacity="0.14"/>
</linearGradient>
<linearGradient id="paint8_linear_2_483" x1="26.5782" y1="9.57264" x2="9.67112" y2="36.8409" gradientUnits="userSpaceOnUse">
<stop stop-color="#2F4E69"/>
<stop offset="1" stop-color="#F2F3F4" stop-opacity="0.16"/>
</linearGradient>
<linearGradient id="paint9_linear_2_483" x1="26.3647" y1="10.2568" x2="10.2371" y2="37.8559" gradientUnits="userSpaceOnUse">
<stop stop-color="#32506A"/>
<stop offset="1" stop-color="#F0F1F3" stop-opacity="0.18"/>
</linearGradient>
<linearGradient id="paint10_linear_2_483" x1="26.98" y1="7.2623" x2="11.7618" y2="35.393" gradientUnits="userSpaceOnUse">
<stop stop-color="#35526C"/>
<stop offset="1" stop-color="#EFF0F2" stop-opacity="0.2"/>
</linearGradient>
<linearGradient id="paint11_linear_2_483" x1="23.2569" y1="10.6834" x2="9.03698" y2="38.9565" gradientUnits="userSpaceOnUse">
<stop stop-color="#38546E"/>
<stop offset="1" stop-color="#EDEEF1" stop-opacity="0.22"/>
</linearGradient>
<linearGradient id="paint12_linear_2_483" x1="30.0407" y1="9.66437" x2="16.5691" y2="38.6032" gradientUnits="userSpaceOnUse">
<stop stop-color="#3B5770"/>
<stop offset="1" stop-color="#EBEDEF" stop-opacity="0.24"/>
</linearGradient>
<linearGradient id="paint13_linear_2_483" x1="25.7568" y1="8.39571" x2="13.6278" y2="37.6776" gradientUnits="userSpaceOnUse">
<stop stop-color="#3E5972"/>
<stop offset="1" stop-color="#EAEBEE" stop-opacity="0.25"/>
</linearGradient>
<linearGradient id="paint14_linear_2_483" x1="21.5726" y1="10.0515" x2="10.7847" y2="39.5308" gradientUnits="userSpaceOnUse">
<stop stop-color="#415B74"/>
<stop offset="1" stop-color="#E8EAED" stop-opacity="0.27"/>
</linearGradient>
<linearGradient id="paint15_linear_2_483" x1="24.8949" y1="7.71083" x2="15.3981" y2="37.8309" gradientUnits="userSpaceOnUse">
<stop stop-color="#445E76"/>
<stop offset="1" stop-color="#E7E8EB" stop-opacity="0.29"/>
</linearGradient>
<linearGradient id="paint16_linear_2_483" x1="27.3073" y1="6.22995" x2="19.2571" y2="36.9154" gradientUnits="userSpaceOnUse">
<stop stop-color="#466078"/>
<stop offset="1" stop-color="#E5E7EA" stop-opacity="0.31"/>
</linearGradient>
<linearGradient id="paint17_linear_2_483" x1="19.4033" y1="9.74124" x2="13.1321" y2="40.2918" gradientUnits="userSpaceOnUse">
<stop stop-color="#49627A"/>
<stop offset="1" stop-color="#E3E5E9" stop-opacity="0.33"/>
</linearGradient>
<linearGradient id="paint18_linear_2_483" x1="22.7743" y1="6.08251" x2="18.3241" y2="37.2343" gradientUnits="userSpaceOnUse">
<stop stop-color="#4C657C"/>
<stop offset="1" stop-color="#E2E3E7" stop-opacity="0.35"/>
</linearGradient>
<linearGradient id="paint19_linear_2_483" x1="25.4664" y1="4.95977" x2="22.9272" y2="36.5189" gradientUnits="userSpaceOnUse">
<stop stop-color="#4F677E"/>
<stop offset="1" stop-color="#E0E2E6" stop-opacity="0.37"/>
</linearGradient>
<linearGradient id="paint20_linear_2_483" x1="21.5937" y1="7.2955" x2="21.1553" y2="38.6886" gradientUnits="userSpaceOnUse">
<stop stop-color="#526980"/>
<stop offset="1" stop-color="#DEE0E5" stop-opacity="0.39"/>
</linearGradient>
<linearGradient id="paint21_linear_2_483" x1="24.2674" y1="4.99895" x2="26.1453" y2="36.6074" gradientUnits="userSpaceOnUse">
<stop stop-color="#556C82"/>
<stop offset="1" stop-color="#DDDFE3" stop-opacity="0.41"/>
</linearGradient>
<linearGradient id="paint22_linear_2_483" x1="18.8274" y1="6.12042" x2="23.1603" y2="37.1728" gradientUnits="userSpaceOnUse">
<stop stop-color="#586E84"/>
<stop offset="1" stop-color="#DBDDE2" stop-opacity="0.43"/>
</linearGradient>
<linearGradient id="paint23_linear_2_483" x1="13.5228" y1="9.82137" x2="20.1708" y2="40.0585" gradientUnits="userSpaceOnUse">
<stop stop-color="#5B7086"/>
<stop offset="1" stop-color="#DADCE1" stop-opacity="0.45"/>
</linearGradient>
<linearGradient id="paint24_linear_2_483" x1="17.8753" y1="7.19847" x2="27.1619" y2="37.1985" gradientUnits="userSpaceOnUse">
<stop stop-color="#5E7388"/>
<stop offset="1" stop-color="#D8DADF" stop-opacity="0.47"/>
</linearGradient>
<linearGradient id="paint25_linear_2_483" x1="19.4404" y1="6.1968" x2="31.3455" y2="35.5155" gradientUnits="userSpaceOnUse">
<stop stop-color="#61758A"/>
<stop offset="1" stop-color="#D6D9DE" stop-opacity="0.49"/>
</linearGradient>
<linearGradient id="paint26_linear_2_483" x1="18.3351" y1="6.90865" x2="32.7081" y2="35.1173" gradientUnits="userSpaceOnUse">
<stop stop-color="#63778B"/>
<stop offset="1" stop-color="#D5D7DD" stop-opacity="0.51"/>
</linearGradient>
<linearGradient id="paint27_linear_2_483" x1="14.695" y1="8.70231" x2="31.3153" y2="35.4039" gradientUnits="userSpaceOnUse">
<stop stop-color="#66798D"/>
<stop offset="1" stop-color="#D3D6DC" stop-opacity="0.53"/>
</linearGradient>
<linearGradient id="paint28_linear_2_483" x1="8.97244" y1="11.4234" x2="27.5197" y2="36.3064" gradientUnits="userSpaceOnUse">
<stop stop-color="#697C8F"/>
<stop offset="1" stop-color="#D1D4DA" stop-opacity="0.55"/>
</linearGradient>
<linearGradient id="paint29_linear_2_483" x1="9.25031" y1="11.7343" x2="29.8151" y2="35.1427" gradientUnits="userSpaceOnUse">
<stop stop-color="#6C7E91"/>
<stop offset="1" stop-color="#D0D3D9" stop-opacity="0.57"/>
</linearGradient>
<linearGradient id="paint30_linear_2_483" x1="10.9787" y1="10.0964" x2="33.5937" y2="32.0047" gradientUnits="userSpaceOnUse">
<stop stop-color="#6F8093"/>
<stop offset="1" stop-color="#CED1D8" stop-opacity="0.59"/>
</linearGradient>
<linearGradient id="paint31_linear_2_483" x1="12.7295" y1="14.0356" x2="36.7464" y2="34.6214" gradientUnits="userSpaceOnUse">
<stop stop-color="#728395"/>
<stop offset="1" stop-color="#CDD0D6" stop-opacity="0.61"/>
</linearGradient>
<linearGradient id="paint32_linear_2_483" x1="8.25285" y1="14.3776" x2="33.4759" y2="32.963" gradientUnits="userSpaceOnUse">
<stop stop-color="#758597"/>
<stop offset="1" stop-color="#CBCED5" stop-opacity="0.63"/>
</linearGradient>
<linearGradient id="paint33_linear_2_483" x1="12.932" y1="12.972" x2="39.827" y2="30.2617" gradientUnits="userSpaceOnUse">
<stop stop-color="#788799"/>
<stop offset="1" stop-color="#C9CDD4" stop-opacity="0.65"/>
</linearGradient>
<linearGradient id="paint34_linear_2_483" x1="7.31333" y1="15.1562" x2="34.7326" y2="30.5432" gradientUnits="userSpaceOnUse">
<stop stop-color="#7B8A9B"/>
<stop offset="1" stop-color="#C8CBD2" stop-opacity="0.67"/>
</linearGradient>
<linearGradient id="paint35_linear_2_483" x1="10.0968" y1="16.5022" x2="38.551" y2="30.7293" gradientUnits="userSpaceOnUse">
<stop stop-color="#7E8C9D"/>
<stop offset="1" stop-color="#C6C9D1" stop-opacity="0.69"/>
</linearGradient>
<linearGradient id="paint36_linear_2_483" x1="9.43662" y1="15.6603" x2="38.7115" y2="28.3287" gradientUnits="userSpaceOnUse">
<stop stop-color="#808E9F"/>
<stop offset="1" stop-color="#C4C8D0" stop-opacity="0.71"/>
</linearGradient>
<linearGradient id="paint37_linear_2_483" x1="7.51728" y1="16.8015" x2="37.1834" y2="28.0706" gradientUnits="userSpaceOnUse">
<stop stop-color="#8391A1"/>
<stop offset="1" stop-color="#C3C6CE" stop-opacity="0.73"/>
</linearGradient>
<linearGradient id="paint38_linear_2_483" x1="9.15828" y1="16.8453" x2="39.5857" y2="26.9672" gradientUnits="userSpaceOnUse">
<stop stop-color="#8693A3"/>
<stop offset="1" stop-color="#C1C5CD" stop-opacity="0.75"/>
</linearGradient>
<linearGradient id="paint39_linear_2_483" x1="10.2688" y1="17.0707" x2="41.3224" y2="26.0926" gradientUnits="userSpaceOnUse">
<stop stop-color="#8995A5"/>
<stop offset="1" stop-color="#C0C3CC" stop-opacity="0.76"/>
</linearGradient>
<linearGradient id="paint40_linear_2_483" x1="7.8755" y1="18.1203" x2="38.9707" y2="25.9886" gradientUnits="userSpaceOnUse">
<stop stop-color="#8C98A7"/>
<stop offset="1" stop-color="#BEC2CA" stop-opacity="0.78"/>
</linearGradient>
<linearGradient id="paint41_linear_2_483" x1="10.3364" y1="18.4374" x2="42.146" y2="25.4542" gradientUnits="userSpaceOnUse">
<stop stop-color="#8F9AA9"/>
<stop offset="1" stop-color="#BCC0C9" stop-opacity="0.8"/>
</linearGradient>
<linearGradient id="paint42_linear_2_483" x1="8.90425" y1="18.9439" x2="40.7885" y2="24.9685" gradientUnits="userSpaceOnUse">
<stop stop-color="#929CAB"/>
<stop offset="1" stop-color="#BBBFC8" stop-opacity="0.82"/>
</linearGradient>
<linearGradient id="paint43_linear_2_483" x1="9.10881" y1="19.2446" x2="41.2996" y2="24.4007" gradientUnits="userSpaceOnUse">
<stop stop-color="#959EAC"/>
<stop offset="1" stop-color="#B9BDC7" stop-opacity="0.84"/>
</linearGradient>
<linearGradient id="paint44_linear_2_483" x1="9.16366" y1="19.4532" x2="41.607" y2="23.7821" gradientUnits="userSpaceOnUse">
<stop stop-color="#98A1AE"/>
<stop offset="1" stop-color="#B7BCC5" stop-opacity="0.86"/>
</linearGradient>
<linearGradient id="paint45_linear_2_483" x1="9.18987" y1="19.889" x2="41.8407" y2="23.4937" gradientUnits="userSpaceOnUse">
<stop stop-color="#9BA3B0"/>
<stop offset="1" stop-color="#B6BAC4" stop-opacity="0.88"/>
</linearGradient>
<linearGradient id="paint46_linear_2_483" x1="9.12082" y1="20.2782" x2="41.9489" y2="23.208" gradientUnits="userSpaceOnUse">
<stop stop-color="#9DA5B2"/>
<stop offset="1" stop-color="#B4B9C3" stop-opacity="0.9"/>
</linearGradient>
<linearGradient id="paint47_linear_2_483" x1="9.37646" y1="20.5672" x2="42.4402" y2="22.8475" gradientUnits="userSpaceOnUse">
<stop stop-color="#A0A8B4"/>
<stop offset="1" stop-color="#B3B7C1" stop-opacity="0.92"/>
</linearGradient>
<linearGradient id="paint48_linear_2_483" x1="9.01387" y1="20.5346" x2="42.1366" y2="22.1546" gradientUnits="userSpaceOnUse">
<stop stop-color="#A3AAB6"/>
<stop offset="1" stop-color="#B1B6C0" stop-opacity="0.94"/>
</linearGradient>
<linearGradient id="paint49_linear_2_483" x1="10.191" y1="21.1736" x2="43.8099" y2="22.2465" gradientUnits="userSpaceOnUse">
<stop stop-color="#A6ACB8"/>
<stop offset="1" stop-color="#AFB4BF" stop-opacity="0.96"/>
</linearGradient>
<linearGradient id="paint50_linear_2_483" x1="9.9391" y1="21.3275" x2="43.6387" y2="21.8569" gradientUnits="userSpaceOnUse">
<stop stop-color="#A9AFBA"/>
<stop offset="1" stop-color="#AEB3BD" stop-opacity="0.98"/>
</linearGradient>
<linearGradient id="paint51_linear_2_483" x1="9.85084" y1="21.3726" x2="43.642" y2="21.3726" gradientUnits="userSpaceOnUse">
<stop stop-color="#DCDDDE"/>
<stop offset="1" stop-color="white"/>
</linearGradient>
<linearGradient id="paint52_linear_2_483" x1="11.5658" y1="21.3726" x2="41.9265" y2="21.3726" gradientUnits="userSpaceOnUse">
<stop stop-color="white"/>
<stop offset="1" stop-color="#DCDDDE"/>
</linearGradient>
</defs>
</svg>
