<svg width="71" height="86" viewBox="0 0 71 86" fill="none" xmlns="http://www.w3.org/2000/svg">
<ellipse cx="18.5" cy="77.5" rx="18.5" ry="4.5" fill="#46B755"/>
<g filter="url(#filter0_d_2_166)">
<path d="M46.9534 20.5857L23.6901 70.5475H23.6299L18.5071 77.9002C18.4469 78.0207 18.266 78.0207 18.1455 77.9604H18.0852C18.025 77.9001 17.9647 77.8399 18.025 77.7194L20.3754 69.0408L43.699 19.079L45.0851 19.8022L46.9534 20.5857Z" fill="#E6E6E6"/>
<path d="M46.9536 20.5857L23.6904 70.5476H23.6301L18.5074 77.9002C18.4471 78.0207 18.2662 78.0207 18.1457 77.9604H18.0854L22.1837 69.0409L45.0854 19.7419L46.9536 20.5857Z" fill="#CCCCCC"/>
<path d="M64.6119 32.5187C62.6983 36.6101 59.6145 40.0423 55.7505 42.3814C51.8865 44.7205 47.4157 45.8615 42.9034 45.6601C38.391 45.4588 34.0397 43.924 30.3994 41.25C26.7591 38.576 23.9934 34.8827 22.4518 30.6371C20.9103 26.3914 20.662 21.784 21.7386 17.3973C22.8151 13.0107 25.1681 9.04165 28.5001 5.99203C31.832 2.94242 35.9933 0.949152 40.458 0.264184C44.9226 -0.420784 49.49 0.233316 53.5829 2.1438C56.3023 3.41315 58.7449 5.20592 60.7711 7.41971C62.7973 9.63351 64.3674 12.2249 65.3917 15.0458C66.4159 17.8667 66.8743 20.8618 66.7405 23.8598C66.6067 26.8579 65.8834 29.8003 64.6119 32.5187Z" fill="#5AB52F"/>
<path d="M63.5872 32.0366C65.3986 28.1485 66.0168 23.8108 65.3638 19.5715C64.7108 15.3322 62.8159 11.3816 59.9185 8.21879C57.0211 5.05601 53.2513 2.82298 49.0853 1.80189C44.9193 0.780802 40.5441 1.01748 36.5126 2.48196C32.481 3.94644 28.9741 6.57307 26.4347 10.0299C23.8954 13.4867 22.4377 17.6186 22.2457 21.9036C22.0538 26.1886 23.1363 30.4344 25.3564 34.1044C27.5765 37.7745 30.8346 40.7041 34.719 42.5231C39.9393 44.9501 45.9087 45.2092 51.3196 43.2437C56.7305 41.2781 61.1418 37.2482 63.5872 32.0366Z" fill="#AFE881"/>
<path d="M59.007 29.8669C57.6174 32.8473 55.3756 35.349 52.5647 37.0559C49.7538 38.7627 46.5 39.598 43.2146 39.4563C39.9291 39.3147 36.7594 38.2023 34.1059 36.2599C31.4524 34.3174 29.4342 31.632 28.3063 28.5429C27.1784 25.4539 26.9915 22.0998 27.7691 18.9046C28.5467 15.7093 30.254 12.8163 32.6752 10.591C35.0964 8.3657 38.1229 6.90798 41.3723 6.40207C44.6216 5.89617 47.948 6.36472 50.9312 7.74861C52.9151 8.66898 54.6982 9.97164 56.1782 11.5819C57.6581 13.1922 58.806 15.0785 59.5561 17.1329C60.3063 19.1873 60.6438 21.3695 60.5496 23.5546C60.4554 25.7396 59.9312 27.8846 59.007 29.8669Z" fill="#2B8217"/>
<path d="M43.8797 38.6057C40.6421 38.6137 37.4809 37.6224 34.8275 35.7672C32.1741 33.912 30.1579 31.2832 29.0539 28.2396C27.6581 24.3045 27.8526 19.98 29.5962 16.1861C30.7862 13.6138 32.6466 11.4092 34.9822 9.80357C37.3178 8.19799 40.0425 7.25063 42.8703 7.06093C45.6982 6.87122 48.525 7.44618 51.0541 8.72542C53.5833 10.0047 55.7215 11.941 57.2444 14.3314C58.7673 16.7217 59.6187 19.4779 59.7093 22.3106C59.7999 25.1434 59.1265 27.9484 57.7595 30.4313C56.3926 32.9141 54.3825 34.9831 51.9404 36.4215C49.4982 37.8598 46.7139 38.6143 43.8797 38.6057Z" fill="white"/>
</g>
<defs>
<filter id="filter0_d_2_166" x="14" y="0" width="56.7632" height="86.0001" filterUnits="userSpaceOnUse" color-interpolation-filters="sRGB">
<feFlood flood-opacity="0" result="BackgroundImageFix"/>
<feColorMatrix in="SourceAlpha" type="matrix" values="0 0 0 0 0 0 0 0 0 0 0 0 0 0 0 0 0 0 127 0" result="hardAlpha"/>
<feOffset dy="4"/>
<feGaussianBlur stdDeviation="2"/>
<feComposite in2="hardAlpha" operator="out"/>
<feColorMatrix type="matrix" values="0 0 0 0 0 0 0 0 0 0 0 0 0 0 0 0 0 0 0.4 0"/>
<feBlend mode="normal" in2="BackgroundImageFix" result="effect1_dropShadow_2_166"/>
<feBlend mode="normal" in="SourceGraphic" in2="effect1_dropShadow_2_166" result="shape"/>
</filter>
</defs>
</svg>
