<svg width="67" height="79" viewBox="0 0 67 79" fill="none" xmlns="http://www.w3.org/2000/svg">
<ellipse cx="18.5" cy="70.5" rx="18.5" ry="4.5" fill="#FFB546"/>
<g filter="url(#filter0_d_2_164)">
<path d="M44.3481 18.7333L23.1781 64.1993H23.1232L18.4615 70.8903C18.4066 71 18.2421 71 18.1324 71H18.0776C18.0227 70.8903 17.9679 70.8355 18.0227 70.7258L20.1617 62.8282L41.3864 17.3622L42.6478 17.9654L44.3481 18.7333Z" fill="#E6E6E6"/>
<path d="M44.348 18.7333L23.178 64.1993H23.1232L18.4614 70.8903C18.4066 71 18.242 71 18.1323 71H18.0775L21.8069 62.8282L42.6478 17.9654L44.348 18.7333Z" fill="#CCCCCC"/>
<path d="M60.4174 29.5925C58.676 33.3157 55.8698 36.4391 52.3535 38.5678C48.8372 40.6964 44.7687 41.7347 40.6623 41.5514C36.556 41.3681 32.5963 39.9716 29.2836 37.5382C25.9709 35.1048 23.454 31.7438 22.0512 27.8802C20.6483 24.0166 20.4224 19.8238 21.4021 15.8318C22.3818 11.8399 24.523 8.22803 27.5552 5.45284C30.5873 2.67765 34.3741 0.863742 38.437 0.240412C42.4998 -0.382919 46.6563 0.212321 50.381 1.95088C52.8557 3.10601 55.0784 4.73746 56.9223 6.75205C58.7662 8.76663 60.195 11.1248 61.1271 13.6919C62.0592 16.2589 62.4762 18.9845 62.3545 21.7128C62.2327 24.4411 61.5745 27.1187 60.4174 29.5925Z" fill="url(#paint0_linear_2_164)"/>
<path d="M59.4302 29.1537C61.084 25.6146 61.6508 21.6645 61.0588 17.8032C60.4669 13.9419 58.7428 10.3429 56.1047 7.4618C53.4667 4.58068 50.0333 2.54686 46.239 1.61771C42.4447 0.688564 38.46 0.905853 34.7892 2.24208C31.1184 3.5783 27.9265 5.97338 25.6174 9.12427C23.3083 12.2752 21.9858 16.0402 21.8172 19.943C21.6486 23.8458 22.6416 27.7108 24.6704 31.0491C26.6992 34.3874 29.6727 37.0488 33.2146 38.6966C35.5617 39.7965 38.1028 40.4221 40.6923 40.5376C43.2817 40.653 45.8685 40.2561 48.3042 39.3694C50.7399 38.4828 52.9765 37.124 54.8858 35.3709C56.7951 33.6178 58.3394 31.505 59.4302 29.1537Z" fill="url(#paint1_linear_2_164)"/>
<path d="M55.317 27.2342C54.0481 29.9581 51.9999 32.2446 49.4314 33.8044C46.8629 35.3642 43.8895 36.1272 40.8874 35.9969C37.8852 35.8666 34.989 34.8489 32.5653 33.0725C30.1416 31.2961 28.2991 28.8409 27.2709 26.0172C26.2428 23.1936 26.0751 20.1285 26.7891 17.2095C27.5031 14.2906 29.0668 11.6489 31.2823 9.61876C33.4977 7.58858 36.2655 6.26107 39.2356 5.80409C42.2057 5.3471 45.2445 5.7812 47.9679 7.05148C51.608 8.76532 54.4231 11.8485 55.7997 15.629C57.1763 19.4096 57.0028 23.581 55.317 27.2342Z" fill="#FFB546"/>
<path d="M41.551 35.1317C37.9006 34.9059 34.4737 33.2966 31.9687 30.6318C29.4637 27.967 28.0691 24.4473 28.0691 20.7899C28.0691 17.1325 29.4637 13.6128 31.9687 10.948C34.4737 8.28324 37.9006 6.67392 41.551 6.44808C43.6586 6.43112 45.7419 6.90031 47.6388 7.81919C50.6092 9.18924 53.0208 11.5354 54.4721 14.4671C55.9234 17.3987 56.3267 20.739 55.615 23.9318C54.9034 27.1246 53.1197 29.9774 50.5608 32.0152C48.0018 34.053 44.8221 35.1529 41.551 35.1317Z" fill="white"/>
</g>
<defs>
<filter id="filter0_d_2_164" x="14" y="0" width="52.3751" height="79" filterUnits="userSpaceOnUse" color-interpolation-filters="sRGB">
<feFlood flood-opacity="0" result="BackgroundImageFix"/>
<feColorMatrix in="SourceAlpha" type="matrix" values="0 0 0 0 0 0 0 0 0 0 0 0 0 0 0 0 0 0 127 0" result="hardAlpha"/>
<feOffset dy="4"/>
<feGaussianBlur stdDeviation="2"/>
<feComposite in2="hardAlpha" operator="out"/>
<feColorMatrix type="matrix" values="0 0 0 0 0 0 0 0 0 0 0 0 0 0 0 0 0 0 0.4 0"/>
<feBlend mode="normal" in2="BackgroundImageFix" result="effect1_dropShadow_2_164"/>
<feBlend mode="normal" in="SourceGraphic" in2="effect1_dropShadow_2_164" result="shape"/>
</filter>
<linearGradient id="paint0_linear_2_164" x1="32.7846" y1="39.6751" x2="50.3537" y2="1.99805" gradientUnits="userSpaceOnUse">
<stop stop-color="#FF790B"/>
<stop offset="1" stop-color="#FFB546"/>
</linearGradient>
<linearGradient id="paint1_linear_2_164" x1="21.8234" y1="20.8009" x2="61.3114" y2="20.8009" gradientUnits="userSpaceOnUse">
<stop stop-color="#FF790B"/>
<stop offset="1" stop-color="#FFB546"/>
</linearGradient>
</defs>
</svg>
