<svg width="70" height="80" viewBox="0 0 70 80" fill="none" xmlns="http://www.w3.org/2000/svg">
<ellipse cx="19.5" cy="75.5" rx="18.5" ry="4.5" fill="#FFB546"/>
<path fill-rule="evenodd" clip-rule="evenodd" d="M19.7769 75.0097C19.7339 75.397 18.5718 75.5692 17.5819 75.5692C16.5921 75.5692 16.4629 75.4401 16.3769 75.2249L10.0071 45.2697L11.0831 45.0545L13.3211 44.5811L19.7769 75.0097Z" fill="#E6E6E6"/>
<path fill-rule="evenodd" clip-rule="evenodd" d="M17.5819 75.5692C16.9794 75.5261 16.4629 75.4401 16.3769 75.2249L10.0071 45.2697L11.0831 45.0545L17.5819 75.5692Z" fill="#CCCCCC"/>
<path fill-rule="evenodd" clip-rule="evenodd" d="M4.41233 10.9677C7.08075 10.4082 9.10359 10.8816 9.31879 11.9145L16.0329 43.5912C16.2911 44.6672 14.6126 45.9153 11.9872 46.4748C9.36182 47.0344 6.99468 46.647 6.77948 45.571L0.0223582 13.8943C-0.192837 12.8614 1.78696 11.5272 4.41233 10.9677Z" fill="#FF790B"/>
<path fill-rule="evenodd" clip-rule="evenodd" d="M9.44775 12.6031L62.3857 1.32692C62.601 1.27687 62.8263 1.29169 63.0331 1.36952C63.24 1.44736 63.4192 1.5847 63.5481 1.76424C63.677 1.94378 63.7498 2.15749 63.7575 2.37838C63.7651 2.59927 63.7071 2.81747 63.5908 3.00545L54.6387 18.5855C54.4872 18.8277 54.434 19.1185 54.49 19.3986C54.546 19.6787 54.707 19.9267 54.94 20.0919L69.3581 30.3352C69.5406 30.4606 69.6818 30.6372 69.7639 30.8429C69.8459 31.0485 69.8651 31.2739 69.819 31.4905C69.773 31.7071 69.6637 31.9051 69.505 32.0595C69.3463 32.214 69.1454 32.3178 68.9277 32.358L16.0327 43.5912L9.44775 12.6031Z" fill="url(#paint0_linear_2_486)"/>
<path fill-rule="evenodd" clip-rule="evenodd" d="M4.41222 10.9677C6.47809 10.5373 8.32877 10.6664 9.18955 11.2689L62.0845 0.0357483C62.2316 -0.00235561 62.3849 -0.0100983 62.5351 0.0129994C62.6853 0.0360971 62.8293 0.089544 62.9581 0.170088C63.087 0.250631 63.1981 0.356586 63.2847 0.481479C63.3713 0.606373 63.4315 0.747593 63.4617 0.896528L63.72 2.14467C63.6394 1.86669 63.4579 1.62879 63.2111 1.47754C62.9644 1.3263 62.67 1.27259 62.3858 1.32692L9.44778 12.6031C8.93131 13.4639 7.29583 14.3677 5.22996 14.7981C3.16409 15.2285 0.280474 14.9703 0.0222399 13.8943C-0.235994 12.8183 1.78684 11.5272 4.41222 10.9677ZM54.5527 18.6716L54.6818 18.7577L69.0568 29.001C69.1824 29.0832 69.2894 29.1907 69.3709 29.3167C69.4524 29.4428 69.5067 29.5844 69.5302 29.7327L69.7885 30.9808C69.7303 30.7196 69.5768 30.4894 69.3581 30.3352L54.94 20.0919C54.7276 19.9313 54.5743 19.7048 54.5043 19.4478C54.4342 19.1908 54.4512 18.9179 54.5527 18.6716Z" fill="#FF9432"/>
<path fill-rule="evenodd" clip-rule="evenodd" d="M4.45542 11.2259C6.65041 10.7525 8.58716 11.0537 8.75932 11.8715C8.93147 12.6892 7.29599 13.7652 5.101 14.2386C2.90601 14.7121 0.969259 14.4108 0.797103 13.593C0.624947 12.7753 2.26043 11.6993 4.45542 11.2259Z" fill="#FF790B"/>
<path fill-rule="evenodd" clip-rule="evenodd" d="M9.44775 12.6032L62.3857 1.32694C62.5925 1.28002 62.8083 1.2928 63.0081 1.36379C63.2078 1.43478 63.3833 1.56105 63.5141 1.72791C63.6449 1.89476 63.7255 2.09533 63.7467 2.30627C63.768 2.5172 63.7288 2.72984 63.6339 2.91938C63.6834 2.73287 63.6838 2.53669 63.6351 2.34995C63.5865 2.16321 63.4903 1.99226 63.356 1.85365C63.2218 1.71505 63.0539 1.6135 62.8688 1.55892C62.6837 1.50433 62.4877 1.49856 62.2997 1.54213L9.66295 12.7323L16.2479 43.5482H16.0327L9.44775 12.5601V12.6032ZM54.5096 18.8438C54.4462 19.071 54.4534 19.312 54.5303 19.5349C54.6072 19.7579 54.7501 19.9521 54.94 20.0919L69.3581 30.3352C69.5761 30.4914 69.7309 30.7207 69.7941 30.9814C69.8573 31.2421 69.8247 31.5168 69.7024 31.7555C69.7691 31.535 69.7633 31.299 69.6858 31.082C69.6083 30.8651 69.4633 30.6788 69.272 30.5504L54.8539 20.2641C54.6358 20.1079 54.4811 19.8786 54.4179 19.6179C54.3547 19.3572 54.3872 19.0825 54.5096 18.8438Z" fill="#FFB546"/>
<path fill-rule="evenodd" clip-rule="evenodd" d="M7.68316 12.474C6.93081 13.1021 6.02452 13.5181 5.05778 13.6791C4.11479 13.9437 3.11716 13.9437 2.17417 13.6791C2.01653 13.6375 1.87493 13.5497 1.76757 13.427C1.6602 13.3043 1.59196 13.1523 1.57163 12.9905C1.53236 12.6011 1.56149 12.2078 1.6577 11.8285C2.00201 10.7525 2.94887 10.0639 4.24004 9.80562C5.53121 9.54739 7.46797 9.97778 7.98443 11.6133C8.03171 11.7702 8.02801 11.938 7.97388 12.0927C7.91975 12.2473 7.81796 12.3809 7.68316 12.474Z" fill="#E6E6E6"/>
<path fill-rule="evenodd" clip-rule="evenodd" d="M7.68316 12.474C6.93081 13.1021 6.02452 13.5181 5.05778 13.6791C4.11479 13.9437 3.11716 13.9437 2.17417 13.6791C2.01653 13.6375 1.87493 13.5497 1.76757 13.427C1.6602 13.3043 1.59196 13.1523 1.57163 12.9905C1.53236 12.6011 1.56149 12.2078 1.6577 11.8285C4.15396 13.55 7.68316 12.474 7.68316 12.474Z" fill="#CCCCCC"/>
<path opacity="0.5" d="M5.05771 11.0537C5.91342 11.0537 6.60711 10.8225 6.60711 10.5373C6.60711 10.252 5.91342 10.0208 5.05771 10.0208C4.20199 10.0208 3.5083 10.252 3.5083 10.5373C3.5083 10.8225 4.20199 11.0537 5.05771 11.0537Z" fill="#E6E6E6"/>
<defs>
<linearGradient id="paint0_linear_2_486" x1="12.8036" y1="26.818" x2="66.4872" y2="15.4072" gradientUnits="userSpaceOnUse">
<stop stop-color="#FF7A0C"/>
<stop offset="1" stop-color="#FFAA3C"/>
</linearGradient>
</defs>
</svg>
