<svg width="48" height="42" viewBox="0 0 48 42" fill="none" xmlns="http://www.w3.org/2000/svg">
<path d="M47.5255 20.7848C47.5329 24.9062 46.317 28.9371 44.0319 32.367C41.7468 35.797 38.4952 38.4716 34.6889 40.0522C30.8826 41.6328 26.6929 42.0484 22.6503 41.2461C18.6077 40.4439 14.8941 38.46 11.9798 35.5457C9.06552 32.6314 7.08162 28.9178 6.27938 24.8752C5.47715 20.8326 5.89266 16.6429 7.47328 12.8366C9.0539 9.03032 11.7285 5.77872 15.1584 3.4936C18.5884 1.20848 22.6193 -0.00737235 26.7407 3.3633e-05C32.2532 3.3633e-05 37.5399 2.18985 41.4378 6.08775C45.3356 9.98564 47.5255 15.2723 47.5255 20.7848Z" fill="#4A9CFF"/>
<g style="mix-blend-mode:multiply">
<path opacity="0.5" d="M5.73111 35.952C3.25302 33.811 1.46569 30.983 0.595311 27.8259C-0.275069 24.6688 -0.189385 21.3245 0.841488 18.2161C1.87236 15.1076 3.80208 12.3749 6.38653 10.3635C8.97097 8.35217 12.094 7.15264 15.3604 6.91671C18.6267 6.68078 21.8897 7.41904 24.7364 9.03809C27.5831 10.6571 29.8855 13.0842 31.3524 16.0122C32.8193 18.9402 33.3847 22.2375 32.9771 25.4869C32.5694 28.7364 31.2071 31.7918 29.0624 34.2668C26.1902 37.5813 22.1199 39.6205 17.7454 39.9365C13.3709 40.2524 9.04987 38.8194 5.73111 35.952Z" fill="url(#paint0_linear_2_481)"/>
<path opacity="0.509804" d="M6.14313 35.9895C3.65077 33.8896 1.83707 31.0979 0.931353 27.9672C0.0256391 24.8366 0.0685764 21.5077 1.05478 18.4014C2.04099 15.2952 3.92615 12.5512 6.47187 10.5164C9.01759 8.48154 12.1096 7.24729 15.3567 6.96971C18.6039 6.69213 21.8605 7.38368 24.7147 8.95691C27.5688 10.5301 29.8923 12.9144 31.3914 15.8081C32.8905 18.7019 33.4979 21.9752 33.1367 25.2142C32.7755 28.4531 31.4619 31.5122 29.3621 34.0046C27.9679 35.6596 26.2613 37.0237 24.3399 38.0191C22.4185 39.0145 20.3198 39.6216 18.1637 39.8059C16.0076 39.9903 13.8363 39.7481 11.7738 39.0933C9.71134 38.4384 7.79803 37.3838 6.14313 35.9895Z" fill="url(#paint1_linear_2_481)"/>
<path opacity="0.519608" d="M6.55495 36.0269C4.04396 33.9712 2.19916 31.2169 1.25394 28.1125C0.308729 25.008 0.305596 21.6929 1.24494 18.5867C2.18428 15.4805 4.02385 12.7227 6.53095 10.6622C9.03806 8.60178 12.1 7.33128 15.3294 7.01149C18.5587 6.6917 21.8104 7.33699 24.6729 8.8657C27.5355 10.3944 29.8802 12.7379 31.4105 15.5995C32.9408 18.4612 33.588 21.7125 33.27 24.942C32.952 28.1716 31.6832 31.2342 29.6241 33.7425C26.8662 37.1021 22.8876 39.2297 18.5622 39.658C14.2368 40.0863 9.9182 38.7804 6.55495 36.0269Z" fill="url(#paint2_linear_2_481)"/>
<path opacity="0.529412" d="M6.96704 36.0644C4.44379 34.0499 2.57445 31.3325 1.59531 28.2557C0.616166 25.179 0.571197 21.881 1.46607 18.7787C2.36095 15.6764 4.15547 12.9091 6.62285 10.8265C9.09023 8.74389 12.1197 7.43959 15.3282 7.07843C18.5367 6.71727 21.7803 7.31549 24.649 8.79744C27.5176 10.2794 29.8824 12.5786 31.4445 15.4043C33.0067 18.23 33.696 21.4555 33.4253 24.6729C33.1547 27.8904 31.9362 30.9553 29.9239 33.4804C27.2176 36.8604 23.2821 39.0302 18.9792 39.5145C14.6764 39.9988 10.357 38.7582 6.96704 36.0644Z" fill="url(#paint3_linear_2_481)"/>
<path opacity="0.539216" d="M7.37889 36.0644C4.84698 34.0872 2.95779 31.404 1.94988 28.3538C0.941959 25.3036 0.860527 22.023 1.7159 18.9265C2.57128 15.8301 4.32511 13.0565 6.75584 10.9561C9.18656 8.85579 12.1852 7.52286 15.373 7.12569C18.5608 6.72852 21.7948 7.28492 24.6666 8.72463C27.5384 10.1643 29.9191 12.4228 31.5081 15.2147C33.0971 18.0067 33.8232 21.2069 33.5945 24.4112C33.3659 27.6155 32.1927 30.6802 30.2234 33.2182C28.9123 34.9078 27.2807 36.3221 25.422 37.38C23.5633 38.4378 21.5141 39.1185 19.3919 39.3829C17.2697 39.6473 15.1162 39.4903 13.0547 38.9208C10.9933 38.3514 9.06447 37.3807 7.37889 36.0644Z" fill="url(#paint4_linear_2_481)"/>
<path opacity="0.54902" d="M7.79099 36.1018C5.23048 34.1684 3.30105 31.5189 2.24691 28.4886C1.19276 25.4582 1.06124 22.1833 1.86902 19.0782C2.67681 15.9731 4.3876 13.1774 6.78484 11.0449C9.18207 8.91246 12.158 7.53906 15.3361 7.09853C18.5141 6.65801 21.7515 7.17016 24.6384 8.57018C27.5252 9.9702 29.9319 12.1951 31.5539 14.9635C33.1758 17.7318 33.94 20.919 33.7499 24.1218C33.5597 27.3246 32.4237 30.3991 30.4857 32.956C27.8909 36.3794 24.0439 38.6333 19.789 39.2231C15.5341 39.8129 11.2191 38.6903 7.79099 36.1018Z" fill="url(#paint5_linear_2_481)"/>
<path opacity="0.558824" d="M8.20299 36.1393C5.63322 34.2469 3.68209 31.6352 2.59619 28.6343C1.51029 25.6334 1.33834 22.3779 2.1021 19.2793C2.86586 16.1807 4.53107 13.378 6.88722 11.2255C9.24336 9.07294 12.1847 7.66718 15.3396 7.18585C18.4944 6.70451 21.7211 7.1692 24.612 8.52119C27.5028 9.87317 29.928 12.0518 31.581 14.7817C33.234 17.5116 34.0407 20.6702 33.8991 23.8584C33.7575 27.0466 32.6739 30.1213 30.7853 32.6939C29.5329 34.4082 27.954 35.858 26.1392 36.9598C24.3244 38.0616 22.3096 38.7937 20.2108 39.1139C18.112 39.4341 15.9706 39.3361 13.9099 38.8256C11.8491 38.3151 9.90961 37.4022 8.20299 36.1393Z" fill="url(#paint6_linear_2_481)"/>
<path opacity="0.568627" d="M8.61496 36.1767C6.03699 34.3252 4.06522 31.7515 2.94846 28.7804C1.83169 25.8094 1.61998 22.5741 2.34003 19.4829C3.06009 16.3916 4.67966 13.5829 6.99435 11.4112C9.30905 9.23946 12.2151 7.80199 15.3459 7.28019C18.4768 6.75839 21.692 7.17563 24.5859 8.47927C27.4799 9.78291 29.9228 11.9145 31.6065 14.6051C33.2902 17.2958 34.1392 20.4248 34.0464 23.5975C33.9535 26.7701 32.9231 29.8442 31.085 32.4317C29.859 34.1575 28.3042 35.624 26.5097 36.7469C24.7152 37.8699 22.7165 38.6271 20.6284 38.9751C18.5404 39.3231 16.4041 39.255 14.3425 38.7748C12.2808 38.2946 10.3343 37.4116 8.61496 36.1767Z" fill="url(#paint7_linear_2_481)"/>
<path opacity="0.578431" d="M9.02664 36.2142C6.42328 34.4069 4.41412 31.8684 3.25307 28.9195C2.09202 25.9707 1.83119 22.7438 2.50357 19.6467C3.17595 16.5497 4.75135 13.7215 7.03066 11.5195C9.30998 9.31755 12.1909 7.84071 15.3093 7.27563C18.4277 6.71055 21.6437 7.08259 24.5507 8.34473C27.4577 9.60687 29.9254 11.7025 31.6417 14.3667C33.3581 17.0309 34.2461 20.1441 34.1937 23.3128C34.1412 26.4816 33.1505 29.5637 31.3468 32.1696C30.1478 33.9019 28.6191 35.3808 26.848 36.5218C25.0769 37.6628 23.0982 38.4435 21.0252 38.8191C18.9522 39.1948 16.8254 39.1581 14.7666 38.7111C12.7078 38.2641 10.7573 37.4156 9.02664 36.2142Z" fill="url(#paint8_linear_2_481)"/>
<path opacity="0.588235" d="M9.43849 36.2516C6.81613 34.485 4.77636 31.9806 3.57697 29.055C2.37758 26.1294 2.07241 22.9139 2.70006 19.8149C3.3277 16.7159 4.85998 13.8726 7.10322 11.6442C9.34646 9.41584 12.2 7.90251 15.3031 7.2955C18.4062 6.68848 21.6196 7.01503 24.5371 8.23386C27.4547 9.45269 29.9454 11.5091 31.6945 14.1432C33.4437 16.7772 34.3727 19.8707 34.3641 23.0326C34.3555 26.1945 33.4097 29.2829 31.6464 31.9074C29.2662 35.4145 25.5967 37.8389 21.437 38.6526C17.2774 39.4663 12.9647 38.6033 9.43849 36.2516Z" fill="url(#paint9_linear_2_481)"/>
<path opacity="0.598039" d="M9.85063 36.2891C7.2051 34.5671 5.12984 32.0991 3.88748 29.1973C2.64512 26.2955 2.29149 23.0904 2.87136 19.9875C3.45123 16.8847 4.93851 14.0236 7.14501 11.7663C9.35152 9.50902 12.178 7.95704 15.2669 7.30676C18.3558 6.65647 21.5681 6.9371 24.4974 8.11315C27.4267 9.2892 29.9413 11.3078 31.723 13.9135C33.5047 16.5192 34.4733 19.5948 34.5064 22.7512C34.5394 25.9076 33.6354 29.0029 31.9086 31.6453C29.5968 35.1831 25.9757 37.6591 21.8402 38.5297C17.7046 39.4004 13.3926 38.5945 9.85063 36.2891Z" fill="url(#paint10_linear_2_481)"/>
<path opacity="0.607843" d="M10.2626 36.3265C7.60021 34.6453 5.49636 32.2122 4.21716 29.335C2.93796 26.4578 2.54087 23.2658 3.0762 20.1629C3.61153 17.06 5.05521 14.1856 7.22454 11.9034C9.39387 9.62117 12.1914 8.03366 15.2632 7.34172C18.3349 6.64979 21.5429 6.88452 24.4813 8.01622C27.4196 9.14792 29.9562 11.1257 31.7702 13.6994C33.5843 16.2731 34.5941 19.3271 34.6721 22.4748C34.7501 25.6226 33.8926 28.7228 32.2082 31.3831C29.9519 34.9469 26.3732 37.4692 22.2583 38.3961C18.1435 39.323 13.829 38.5786 10.2626 36.3265Z" fill="url(#paint11_linear_2_481)"/>
<path opacity="0.617647" d="M10.6744 36.364C7.99635 34.7234 5.86492 32.3255 4.54971 29.4735C3.23451 26.6215 2.7946 23.4435 3.28559 20.3415C3.77659 17.2394 5.17643 14.3527 7.30813 12.0463C9.43983 9.73985 12.2076 8.11738 15.2615 7.38404C18.3153 6.6507 21.518 6.83943 24.4645 7.92637C27.4111 9.0133 29.9692 10.9496 31.8152 13.4904C33.6613 16.0312 34.7124 19.0624 34.8357 22.2007C34.959 25.3389 34.1489 28.4432 32.5078 31.121C30.3007 34.7035 26.7647 37.2662 22.6732 38.2487C18.5817 39.2313 14.2676 38.5536 10.6744 36.364Z" fill="url(#paint12_linear_2_481)"/>
<path opacity="0.627451" d="M11.0865 36.4014C8.38864 34.8056 6.22483 32.4454 4.86892 29.6194C3.51302 26.7933 3.02596 23.6286 3.46939 20.5257C3.91283 17.4227 5.26686 14.5211 7.36004 12.1879C9.45323 9.85482 12.1915 8.19511 15.2283 7.41885C18.2652 6.6426 21.464 6.7847 24.42 7.82718C27.3761 8.86966 29.9564 10.7656 31.8344 13.2752C33.7125 15.7847 34.8039 18.795 34.9704 21.925C35.1369 25.0551 34.3712 28.1642 32.77 30.8588C30.6267 34.466 27.1398 37.0755 23.0745 38.1146C19.0093 39.1537 14.6979 38.5376 11.0865 36.4014Z" fill="url(#paint13_linear_2_481)"/>
<path opacity="0.637255" d="M11.4987 36.4389C8.78732 34.8835 6.59814 32.559 5.20792 29.7593C3.81771 26.9597 3.28894 23.8106 3.68848 20.7104C4.08803 17.6103 5.39792 14.6982 7.45255 12.3425C9.50717 9.9868 12.2142 8.2933 15.2313 7.47616C18.2485 6.65903 21.4402 6.75495 24.4028 7.75181C27.3654 8.74867 29.9658 10.6017 31.8753 13.0765C33.7847 15.5513 34.9174 18.5368 35.13 21.6554C35.3427 24.774 34.6257 27.8856 33.0699 30.5967C30.9839 34.2317 27.5394 36.8892 23.4941 37.9848C19.4488 39.0804 15.134 38.5244 11.4987 36.4389Z" fill="url(#paint14_linear_2_481)"/>
<path opacity="0.647059" d="M11.9104 36.4389C9.1866 34.9236 6.97306 32.635 5.54945 29.8622C4.12585 27.0894 3.55603 23.9568 3.91202 20.8603C4.26801 17.7638 5.53384 14.8423 7.54954 12.4649C9.56524 10.0875 12.2404 8.36088 15.2369 7.50322C18.2335 6.64556 21.4171 6.69533 24.3854 7.64625C27.3537 8.59716 29.9735 10.4065 31.9139 12.8458C33.8543 15.285 35.0282 18.2447 35.2872 21.3508C35.5462 24.4569 34.8788 27.5702 33.3692 30.2971C32.3651 32.111 31.0131 33.709 29.3905 34.9997C27.768 36.2904 25.9069 37.2484 23.9137 37.8189C21.9204 38.3893 19.8343 38.5611 17.7746 38.3243C15.7149 38.0875 13.7221 37.4468 11.9104 36.4389Z" fill="url(#paint15_linear_2_481)"/>
<path opacity="0.656863" d="M12.3224 36.4764C9.58234 35.0056 7.33971 32.7556 5.87799 30.0106C4.41627 27.2657 3.80106 24.1491 4.11009 21.0546C4.41911 17.9601 5.63849 15.0267 7.61417 12.625C9.58985 10.2234 12.2332 8.46128 15.21 7.56143C18.1868 6.66158 21.3636 6.66436 24.3388 7.56943C27.3141 8.4745 29.9543 10.2412 31.9258 12.6463C33.8972 15.0515 35.1115 17.987 35.4151 21.082C35.7187 24.177 35.098 27.2926 33.6315 30.035C31.655 33.7099 28.3022 36.4515 24.308 37.6589C20.3137 38.8663 16.0037 38.4411 12.3224 36.4764Z" fill="url(#paint16_linear_2_481)"/>
<path opacity="0.666667" d="M12.7342 36.5138C9.97112 35.0843 7.69394 32.8675 6.19072 30.1438C4.6875 27.4201 4.02577 24.3118 4.28915 21.212C4.55252 18.1122 5.7292 15.1601 7.67039 12.7291C9.61158 10.298 12.2301 8.4972 15.1948 7.55437C18.1594 6.61154 21.3371 6.56904 24.3259 7.43224C27.3148 8.29543 29.9805 10.0256 31.986 12.4038C33.9916 14.7821 35.2467 17.7016 35.5929 20.7933C35.9391 23.885 35.3607 27.0099 33.9309 29.7728C32.9854 31.6106 31.6861 33.2436 30.1077 34.5778C28.5293 35.9121 26.7029 36.9214 24.7333 37.5477C22.7637 38.1741 20.6897 38.4052 18.6306 38.2278C16.5714 38.0503 14.5676 37.4679 12.7342 36.5138Z" fill="url(#paint17_linear_2_481)"/>
<path opacity="0.676471" d="M13.146 36.5512C10.3689 35.1661 8.06493 32.9885 6.52536 30.294C4.98579 27.5994 4.27977 24.5088 4.49661 21.4131C4.71345 18.3173 5.84338 15.3553 7.74354 12.9017C9.6437 10.448 12.2288 8.61296 15.1718 7.62845C18.1149 6.64393 21.2838 6.55421 24.2779 7.37063C27.2719 8.18704 29.9566 9.87293 31.9926 12.2151C34.0285 14.5573 35.3243 17.4506 35.7159 20.5292C36.1076 23.6077 35.5776 26.7333 34.1929 29.5106C33.2734 31.355 31.9995 33.0002 30.4441 34.3522C28.8887 35.7043 27.0822 36.7367 25.1278 37.3905C23.1734 38.0443 21.1093 38.3066 19.0534 38.1626C16.9976 38.0186 14.9902 37.4711 13.146 36.5512Z" fill="url(#paint18_linear_2_481)"/>
<path opacity="0.686275" d="M13.5581 36.5887C10.7603 35.2446 8.42392 33.101 6.84456 30.4289C5.26519 27.7568 4.5138 24.6764 4.68538 21.5772C4.85696 18.478 5.94379 15.4993 7.80846 13.018C9.67314 10.5366 12.2319 8.66391 15.1609 7.6369C18.09 6.60988 21.2579 6.47463 24.2639 7.24825C27.2698 8.02188 29.9788 9.66962 32.0482 11.9831C34.1176 14.2965 35.4544 17.1717 35.8895 20.245C36.3246 23.3182 35.8385 26.4515 34.4926 29.2485C32.6889 32.997 29.4705 35.8759 25.5449 37.2523C21.6193 38.6287 17.3078 38.39 13.5581 36.5887Z" fill="url(#paint19_linear_2_481)"/>
<path opacity="0.696078" d="M13.9701 36.6261C11.1654 35.3208 8.81032 33.2136 7.20229 30.5708C5.59427 27.9279 4.80536 24.8679 4.93518 21.777C5.065 18.6861 6.10771 15.703 7.93168 13.2043C9.75565 10.7056 12.2791 8.80339 15.1834 7.73779C18.0876 6.67219 21.2426 6.49101 24.2498 7.21713C27.2569 7.94325 29.9815 9.5441 32.0796 11.8176C34.1776 14.091 35.555 16.9352 36.0378 19.9909C36.5206 23.0465 36.0872 26.1768 34.7923 28.9863C33.9297 30.8578 32.7062 32.5405 31.1918 33.938C29.6775 35.3355 27.9021 36.4202 25.9676 37.13C24.0331 37.8398 21.9774 38.1607 19.9186 38.0742C17.8598 37.9878 15.8383 37.4956 13.9701 36.6261Z" fill="url(#paint20_linear_2_481)"/>
<path opacity="0.705882" d="M14.3823 36.6636C11.5543 35.4041 9.16332 33.3345 7.51152 30.7163C5.85973 28.0981 5.02132 25.0489 5.10228 21.9542C5.18324 18.8596 6.17992 15.8584 7.96634 13.3302C9.75277 10.8019 12.2487 8.86008 15.1386 7.75019C18.0285 6.6403 21.1826 6.41218 24.2022 7.09467C27.2217 7.77716 29.9711 9.33961 32.1028 11.5845C34.2344 13.8294 35.6526 16.6559 36.178 19.7067C36.7034 22.7575 36.3125 25.8955 35.0546 28.7242C34.219 30.6033 33.0214 32.2993 31.5301 33.7153C30.0388 35.1314 28.2832 36.2397 26.3634 36.977C24.4437 37.7143 22.3974 38.0661 20.3417 38.0123C18.2859 37.9586 16.2609 37.5003 14.3823 36.6636Z" fill="url(#paint21_linear_2_481)"/>
<path opacity="0.715686" d="M14.7941 36.701C11.9488 35.482 9.52878 33.4469 7.83992 30.8528C6.15106 28.2587 5.2692 25.2221 5.30578 22.1269C5.34236 19.0317 6.29572 16.0168 8.04541 13.4634C9.7951 10.9099 12.2626 8.93248 15.1359 7.78107C18.0092 6.62966 21.1593 6.35594 24.1881 6.99451C27.217 7.63308 29.9885 9.15528 32.1524 11.3687C34.3163 13.5821 35.7754 16.3873 36.3453 19.4298C36.9152 22.4723 36.5703 25.6155 35.3541 28.462C33.714 32.2757 30.6295 35.2841 26.7759 36.8283C22.9224 38.3725 18.6139 38.3268 14.7941 36.701Z" fill="url(#paint22_linear_2_481)"/>
<path opacity="0.72549" d="M15.2062 36.7385C12.3447 35.5597 9.89679 33.5591 8.17181 30.9896C6.44682 28.4201 5.52214 25.3969 5.51469 22.3021C5.50725 19.2072 6.41737 16.1796 8.12998 13.6018C9.84258 11.024 12.2808 9.01171 15.1367 7.81916C17.9925 6.62661 21.1378 6.30733 24.175 6.90168C27.2123 7.49602 30.0052 8.97732 32.2009 11.1584C34.3966 13.3395 35.8964 16.1224 36.511 19.1556C37.1257 22.1888 36.8274 25.3361 35.6539 28.1999C34.0619 32.0331 31.0192 35.0817 27.189 36.6811C23.3588 38.2806 19.0516 38.3012 15.2062 36.7385Z" fill="url(#paint23_linear_2_481)"/>
<path opacity="0.735294" d="M15.6179 36.7759C12.7367 35.6427 10.2563 33.6805 8.49026 31.1375C6.72424 28.5945 5.75197 25.5849 5.69637 22.4894C5.64077 19.3938 6.50437 16.3513 8.17794 13.7465C9.8515 11.1417 12.2599 9.09172 15.0985 7.85571C17.9371 6.6197 21.0786 6.25319 24.1255 6.80253C27.1724 7.35188 29.988 8.7924 32.2163 10.9419C34.4445 13.0915 35.9854 15.8535 36.6439 18.8787C37.3024 21.904 37.049 25.0565 35.9158 27.9377C34.3882 31.795 31.3951 34.8903 27.5912 36.5466C23.7874 38.2029 19.4824 38.2853 15.6179 36.7759Z" fill="url(#paint24_linear_2_481)"/>
<path opacity="0.745098" d="M16.0298 36.8134C13.1345 35.7197 10.6284 33.7923 8.82817 31.2748C7.02793 28.7574 6.01434 25.7627 5.91546 22.6694C5.81659 19.5761 6.63685 16.5228 8.27264 13.8955C9.90842 11.2682 12.2863 9.18471 15.1058 7.90836C17.9253 6.63201 21.0598 6.22006 24.1134 6.72456C27.1669 7.22907 30.0023 8.62739 32.2614 10.7428C34.5205 12.8583 36.1018 15.5959 36.8056 18.6097C37.5093 21.6236 37.3039 24.7784 36.2153 27.6756C34.745 31.5601 31.7947 34.7032 28.011 36.4161C24.2272 38.1289 19.9187 38.2718 16.0298 36.8134Z" fill="url(#paint25_linear_2_481)"/>
<path opacity="0.754902" d="M16.4419 36.8508C13.5169 35.8056 10.9679 33.9157 9.11786 31.4207C7.26777 28.9256 6.19979 25.9376 6.04921 22.8351C5.89864 19.7326 6.67225 16.6552 8.27203 13.9927C9.87181 11.3302 12.2258 9.20243 15.0358 7.87883C17.8458 6.55523 20.9855 6.09539 24.057 6.55754C27.1286 7.0197 29.9939 8.38306 32.29 10.4749C34.5862 12.5668 36.2098 15.2931 36.9552 18.3085C37.7007 21.3238 37.5345 24.4926 36.4777 27.4134C35.0571 31.3105 32.1548 34.4886 28.4023 36.2561C24.6499 38.0236 20.3512 38.2374 16.4419 36.8508Z" fill="url(#paint26_linear_2_481)"/>
<path opacity="0.764706" d="M16.8538 36.8508C13.9293 35.8384 11.3705 33.9818 9.50072 31.5156C7.63095 29.0495 6.53414 26.0844 6.34888 22.9951C6.16362 19.9059 6.89818 16.831 8.45983 14.159C10.0215 11.4871 12.3401 9.33801 15.1227 7.98332C17.9053 6.62864 21.027 6.12916 24.0934 6.54798C27.1597 6.96681 30.0331 8.28515 32.3505 10.3364C34.6679 12.3877 36.3253 15.0799 37.1132 18.0727C37.9011 21.0656 37.7842 24.2248 36.7772 27.1513C36.1076 29.0975 35.0607 30.8925 33.6965 32.4337C32.3323 33.9749 30.6776 35.2319 28.8271 36.1328C26.9765 37.0337 24.9665 37.5609 22.912 37.6841C20.8574 37.8073 18.7988 37.5241 16.8538 36.8508Z" fill="url(#paint27_linear_2_481)"/>
<path opacity="0.77451" d="M17.2657 36.8883C14.3178 35.918 11.7239 34.0953 9.81186 31.6507C7.89985 29.2062 6.75568 26.2496 6.52401 23.1548C6.29235 20.0599 6.98358 16.9659 8.51034 14.264C10.0371 11.562 12.3308 9.37345 15.1014 7.97506C17.872 6.57668 20.995 6.03127 24.0755 6.4078C27.1561 6.78433 30.0558 8.06589 32.408 10.0904C34.7602 12.1149 36.4593 14.7915 37.2903 17.7817C38.1213 20.7718 38.047 23.9412 37.0767 26.8891C36.4368 28.8494 35.4158 30.6639 34.0725 32.2284C32.7292 33.7929 31.0901 35.0766 29.2492 36.0057C27.4083 36.9348 25.402 37.4911 23.3455 37.6426C21.289 37.794 19.2228 37.5377 17.2657 36.8883Z" fill="url(#paint28_linear_2_481)"/>
<path opacity="0.784314" d="M17.6778 36.9257C14.7037 36.0035 12.0702 34.2192 10.111 31.799C8.15185 29.3787 6.95509 26.4314 6.67239 23.3304C6.38969 20.2294 7.03377 17.1143 8.52304 14.3797C10.0123 11.6451 12.2797 9.41404 15.0381 7.9692C17.7964 6.52435 20.9215 5.93073 24.0176 6.26354C27.1136 6.59635 30.0411 7.84061 32.4294 9.83869C34.8176 11.8368 36.559 14.4988 37.4331 17.4874C38.3071 20.4761 38.2744 23.6569 37.3391 26.627C36.0897 30.5945 33.3195 33.9056 29.6348 35.8357C25.9501 37.7658 21.6508 38.1577 17.6778 36.9257Z" fill="url(#paint29_linear_2_481)"/>
<path opacity="0.794118" d="M18.0897 36.9632C15.1067 36.0786 12.4531 34.3292 10.4645 31.9364C8.47594 29.5435 7.24172 26.6146 6.91794 23.5201C6.59415 20.4257 7.19534 17.3047 8.64552 14.552C10.0957 11.7993 12.3297 9.53856 15.065 8.05567C17.8002 6.57278 20.9137 5.9344 24.0118 6.22128C27.1099 6.50816 30.0533 7.70741 32.4697 9.66734C34.8861 11.6273 36.667 14.2598 37.5871 17.232C38.5071 20.2042 38.525 23.3825 37.6385 26.3648C36.4419 30.3561 33.7138 33.7114 30.0507 35.6973C26.3876 37.6832 22.0873 38.1384 18.0897 36.9632Z" fill="url(#paint30_linear_2_481)"/>
<path opacity="0.803922" d="M18.5017 37.0006C15.4993 36.1596 12.8136 34.4472 10.7842 32.0799C8.75493 29.7126 7.47311 26.7968 7.10083 23.701C6.72855 20.6053 7.28256 17.4687 8.69277 14.6878C10.103 11.9069 12.3061 9.60654 15.0236 8.07764C17.741 6.54874 20.8508 5.85991 23.9597 6.09827C27.0686 6.33662 30.0371 7.49144 32.4897 9.41671C34.9423 11.342 36.7691 13.9513 37.7389 16.9146C38.7087 19.878 38.7781 23.0624 37.9383 26.0652C37.3805 28.0597 36.4351 29.9247 35.1564 31.5538C33.8776 33.1829 32.2904 34.544 30.4854 35.5595C28.6805 36.575 26.6932 37.225 24.637 37.4722C22.5808 37.7195 20.496 37.5593 18.5017 37.0006Z" fill="url(#paint31_linear_2_481)"/>
<path opacity="0.813725" d="M18.9138 37.0381C15.8887 36.2443 13.1671 34.5709 11.0936 32.2296C9.02008 29.8883 7.68785 26.9844 7.26558 23.8855C6.8433 20.7866 7.34997 17.6322 8.72143 14.8214C10.0929 12.0107 12.2675 9.67 14.9699 8.09578C17.6723 6.52156 20.7811 5.78454 23.9026 5.97804C27.0241 6.17153 30.018 7.28684 32.5053 9.18277C34.9926 11.0787 36.8615 13.67 37.8753 16.6286C38.8891 19.5872 39.0023 22.7801 38.2005 25.8031C37.1279 29.8475 34.4951 33.3014 30.8796 35.4075C27.2641 37.5137 22.961 38.1 18.9138 37.0381Z" fill="url(#paint32_linear_2_481)"/>
<path opacity="0.823529" d="M19.3254 37.0755C16.2946 36.3177 13.5563 34.6786 11.4566 32.3653C9.35693 30.052 7.98996 27.1683 7.52841 24.0784C7.06686 20.9886 7.53145 17.8313 8.86348 15.0053C10.1955 12.1794 12.3352 9.81167 15.0123 8.20124C17.6894 6.59082 20.7837 5.80996 23.9043 5.95732C27.025 6.10468 30.0319 7.17365 32.5453 9.02918C35.0587 10.8847 36.9658 13.4435 38.0256 16.3824C39.0855 19.3213 39.2505 22.5083 38.4998 25.5409C37.4822 29.6105 34.8921 33.1103 31.2975 35.2727C27.7029 37.4351 23.3974 38.0834 19.3254 37.0755Z" fill="url(#paint33_linear_2_481)"/>
<path opacity="0.833333" d="M19.7373 37.113C16.6861 36.4018 13.9143 34.8017 11.7724 32.5153C9.63051 30.2288 8.21474 27.3585 7.70406 24.2674C7.19338 21.1763 7.61075 18.0032 8.9034 15.1493C10.196 12.2954 12.3059 9.88883 14.9662 8.234C17.6265 6.57916 20.7178 5.75033 23.8492 5.8523C26.9805 5.95427 30.0113 6.98247 32.5583 8.80689C35.1053 10.6313 37.0541 13.17 38.1583 16.102C39.2626 19.0339 39.4726 22.2275 38.7619 25.2788C38.2899 27.3051 37.4234 29.2186 36.2119 30.91C35.0004 32.6014 33.4675 34.0376 31.7009 35.1365C29.9342 36.2354 27.9684 36.9756 25.9157 37.3147C23.8629 37.6539 21.7635 37.5853 19.7373 37.113Z" fill="url(#paint34_linear_2_481)"/>
<path opacity="0.843137" d="M20.1495 37.1504C17.0825 36.4788 14.2834 34.913 12.1061 32.6509C9.92874 30.3889 8.47091 27.5321 7.91676 24.4417C7.36262 21.3513 7.73708 18.166 8.99281 15.2884C10.2485 12.4108 12.3292 9.97 14.9717 8.27457C17.6143 6.57914 20.7002 5.70517 23.8393 5.76311C26.9785 5.82106 30.03 6.80832 32.6082 8.60011C35.1864 10.3919 37.1755 12.9078 38.3242 15.8298C39.4729 18.7518 39.7296 21.9488 39.0617 25.0166C38.6224 27.0582 37.7837 28.9927 36.594 30.709C35.4042 32.4252 33.8869 33.8893 32.1292 35.017C30.3716 36.1447 28.4083 36.9137 26.3524 37.2798C24.2964 37.646 22.1884 37.602 20.1495 37.1504Z" fill="url(#paint35_linear_2_481)"/>
<path opacity="0.852941" d="M20.5614 37.1879C17.4796 36.5553 14.6543 35.0236 12.4425 32.7862C10.2307 30.5489 8.73156 27.7062 8.13449 24.6173C7.53741 21.5283 7.86915 18.3317 9.08783 15.4313C10.3065 12.5308 12.3575 10.0565 14.9816 8.32106C17.6057 6.58558 20.6853 5.66672 23.8314 5.68054C26.9775 5.69437 30.0489 6.64026 32.6576 8.39873C35.2664 10.1572 37.2955 12.6494 38.4887 15.5605C39.6818 18.4715 39.9855 21.6709 39.3613 24.7545C38.9459 26.8066 38.1297 28.7567 36.9594 30.4928C35.7891 32.229 34.2877 33.7172 32.5413 34.8722C30.7949 36.0272 28.8378 36.8263 26.7821 37.2236C24.7264 37.621 22.6124 37.6088 20.5614 37.1879Z" fill="url(#paint36_linear_2_481)"/>
<path opacity="0.862745" d="M20.9732 37.2253C17.8743 36.6382 15.0189 35.1456 12.7679 32.9361C10.5169 30.7267 8.9713 27.8996 8.32646 24.8121C7.68163 21.7246 7.96649 18.5153 9.145 15.5896C10.3235 12.6639 12.3428 10.1532 14.9477 8.37475C17.5526 6.59629 20.6262 5.62989 23.7802 5.59767C26.9342 5.56544 30.0269 6.46883 32.6676 8.19369C35.3083 9.91854 37.3785 12.3875 38.6166 15.2884C39.8546 18.1894 40.205 21.3923 39.6234 24.4923C38.833 28.651 36.426 32.3267 32.93 34.7135C29.434 37.1004 25.1342 38.0036 20.9732 37.2253Z" fill="url(#paint37_linear_2_481)"/>
<path opacity="0.872549" d="M21.3855 37.2253C18.2725 36.6748 15.3925 35.2138 13.1095 33.0272C10.8264 30.8405 9.24277 28.0262 8.55852 24.9398C7.87427 21.8535 8.12017 18.6335 9.26514 15.6869C10.4101 12.7402 12.4028 10.199 14.9914 8.38436C17.58 6.56972 20.6484 5.56306 23.8089 5.49155C26.9694 5.42004 30.0802 6.28691 32.7482 7.98262C35.4162 9.67833 37.5218 12.1268 38.7988 15.0187C40.0759 17.9105 40.4672 21.116 39.9232 24.2302C39.566 26.3039 38.8021 28.2865 37.6755 30.0637C36.5489 31.841 35.0818 33.3778 33.3588 34.5856C31.6357 35.7935 29.6907 36.6486 27.6358 37.1016C25.5809 37.5547 23.4567 37.5967 21.3855 37.2253Z" fill="url(#paint38_linear_2_481)"/>
<path opacity="0.882353" d="M21.797 37.2628C18.6602 36.7554 15.7443 35.3292 13.4181 33.1647C11.0918 31.0001 9.4597 28.1943 8.72807 25.1021C7.99643 22.01 8.19816 18.7703 9.30774 15.7927C10.4173 12.8152 12.3849 10.2336 14.9617 8.3743C17.5385 6.51502 20.6088 5.46161 23.7843 5.34726C26.9598 5.23292 30.0979 6.06278 32.8018 7.7319C35.5056 9.40103 37.6538 11.8345 38.9746 14.7245C40.2955 17.6145 40.7297 20.8313 40.2224 23.968C39.8949 26.0552 39.157 28.0567 38.0515 29.857C36.946 31.6573 35.4947 33.2207 33.7815 34.4569C32.0682 35.693 30.1271 36.5775 28.07 37.0591C26.013 37.5407 23.8809 37.6099 21.797 37.2628Z" fill="url(#paint39_linear_2_481)"/>
<path opacity="0.892157" d="M22.2093 37.3002C19.0584 36.8369 16.1156 35.4497 13.7531 33.3141C11.3906 31.1784 9.71434 28.3901 8.93636 25.3019C8.15838 22.2136 8.31358 18.964 9.38236 15.9639C10.4511 12.9638 12.3855 10.348 14.9408 8.44723C17.4961 6.54645 20.5577 5.44603 23.7384 5.28513C26.9191 5.12422 30.0761 5.91006 32.8102 7.54326C35.5443 9.17647 37.7327 11.5837 39.0988 14.4606C40.4649 17.3375 40.9472 20.5549 40.4849 23.7059C40.1825 25.8007 39.4692 27.8152 38.3859 29.6335C37.3026 31.4518 35.8707 33.0381 34.1724 34.3014C32.4742 35.5646 30.5431 36.4798 28.4901 36.9945C26.4371 37.5091 24.3026 37.613 22.2093 37.3002Z" fill="url(#paint40_linear_2_481)"/>
<path opacity="0.901961" d="M22.6209 37.3377C19.4482 36.9168 16.4716 35.5644 14.0677 33.4515C11.6638 31.3386 9.94063 28.5601 9.11613 25.4677C8.29162 22.3752 8.4029 19.1077 9.43582 16.0784C10.4687 13.0492 12.3769 10.3944 14.9189 8.44987C17.4609 6.50534 20.5226 5.35847 23.7166 5.15435C26.9106 4.95022 30.0933 5.69801 32.8622 7.30311C35.6311 8.90822 37.8617 11.2985 39.2719 14.1716C40.682 17.0447 41.2083 20.2715 40.7842 23.4438C40.5075 25.5502 39.8177 27.5814 38.7543 29.4207C37.691 31.26 36.2749 32.8712 34.5874 34.1621C32.9 35.4529 30.9743 36.3979 28.9208 36.9428C26.8673 37.4878 24.7264 37.622 22.6209 37.3377Z" fill="url(#paint41_linear_2_481)"/>
<path opacity="0.911765" d="M23.0331 37.3751C19.8369 37.0034 16.8229 35.6913 14.3731 33.6051C11.9233 31.519 10.1478 28.7526 9.27163 25.6564C8.39545 22.5603 8.458 19.2737 9.45134 16.2131C10.4447 13.1525 12.3241 10.4557 14.8516 8.46422C17.379 6.47276 20.4407 5.2763 23.6487 5.02644C26.8567 4.77658 30.0667 5.48456 32.872 7.06069C35.6773 8.63681 37.9516 11.0101 39.4069 13.88C40.8621 16.7499 41.4328 19.9871 41.0465 23.1816C40.8005 25.2983 40.1387 27.3456 39.0992 29.2058C38.0597 31.0661 36.663 32.7026 34.9892 34.0215C33.3153 35.3403 31.3975 36.3155 29.3457 36.8911C27.2939 37.4666 25.1486 37.6311 23.0331 37.3751Z" fill="url(#paint42_linear_2_481)"/>
<path opacity="0.921569" d="M23.4448 37.4126C20.24 37.0763 17.207 35.7971 14.7293 33.7368C12.2516 31.6766 10.4406 28.9278 9.52526 25.8381C8.60996 22.7485 8.6315 19.4568 9.58716 16.3794C10.5428 13.302 12.3897 10.5772 14.8942 8.54952C17.3986 6.52186 20.4481 5.28249 23.657 4.98815C26.8659 4.69382 30.09 5.35776 32.9215 6.89598C35.7531 8.4342 38.0648 10.7776 39.5643 13.6298C41.0639 16.482 41.6839 19.7148 41.3459 22.9194C40.8929 27.2147 38.7527 31.1543 35.3959 33.8721C32.039 36.5899 27.7403 37.8634 23.4448 37.4126Z" fill="url(#paint43_linear_2_481)"/>
<path opacity="0.931373" d="M23.8569 37.45C20.633 37.1548 17.5692 35.9101 15.0528 33.8733C12.5365 31.8365 10.6807 29.0992 9.72036 26.0076C8.75998 22.916 8.73809 19.609 9.65746 16.5049C10.5768 13.4009 12.3962 10.6392 14.8853 8.5693C17.3745 6.49938 20.4216 5.21419 23.6412 4.87632C26.8609 4.53844 30.1085 5.16305 32.9731 6.67113C35.8377 8.17922 38.1907 10.503 39.7344 13.3486C41.2782 16.1942 41.9433 19.4337 41.6456 22.6573C41.2467 26.9772 39.1489 30.962 35.8133 33.7359C32.4776 36.5097 28.1771 37.8457 23.8569 37.45Z" fill="url(#paint44_linear_2_481)"/>
<path opacity="0.941176" d="M24.2688 37.4875C21.0244 37.2401 17.9263 36.0356 15.3669 34.0264C12.8076 32.0173 10.9019 29.2938 9.89126 26.201C8.88062 23.1081 8.81049 19.7849 9.6897 16.6521C10.5689 13.5194 12.3579 10.718 14.8302 8.60257C17.3026 6.48719 20.347 5.15299 23.578 4.76891C26.8091 4.38483 30.0815 4.96815 32.9808 6.44499C35.8801 7.92184 38.276 10.2258 39.8651 13.0651C41.4543 15.9045 42.1651 19.1515 41.9077 22.3951C41.742 24.5449 41.1542 26.6409 40.1777 28.5632C39.2013 30.4855 37.8555 32.1965 36.2172 33.5982C34.5789 35 32.6804 36.065 30.6301 36.7323C28.5799 37.3997 26.4183 37.6563 24.2688 37.4875Z" fill="url(#paint45_linear_2_481)"/>
<path opacity="0.95098" d="M24.6811 37.5249C21.4304 37.311 18.3161 36.1383 15.7316 34.1551C13.1472 32.1719 11.2086 29.4671 10.1608 26.3825C9.11297 23.2979 9.00297 19.972 9.8447 16.8249C10.6864 13.6778 12.4421 10.8509 14.8899 8.70123C17.3377 6.55159 20.3677 5.17573 23.5971 4.74749C26.8265 4.31926 30.1104 4.85787 33.0338 6.29528C35.9573 7.73268 38.389 10.0044 40.0218 12.8233C41.6547 15.6422 42.4153 18.8819 42.2076 22.133C42.0695 24.2952 41.5064 26.4089 40.5504 28.3532C39.5944 30.2974 38.2644 32.0341 36.6365 33.4638C35.0085 34.8934 33.1146 35.988 31.0632 36.6849C29.0117 37.3817 26.843 37.6672 24.6811 37.5249Z" fill="url(#paint46_linear_2_481)"/>
<path opacity="0.960784" d="M25.0926 37.5624C21.8158 37.3952 18.6622 36.2602 16.0304 34.3009C13.3987 32.3415 11.407 29.6458 10.3072 26.5546C9.20742 23.4634 9.04889 20.1155 9.8517 16.9342C10.6545 13.7529 12.3826 10.8811 14.8175 8.68185C17.2523 6.48262 20.2846 5.05474 23.531 4.57875C26.7773 4.10276 30.0918 4.60004 33.0556 6.00771C36.0193 7.41538 38.4991 9.67023 40.1813 12.4872C41.8636 15.3041 42.6729 18.5566 42.5068 21.8334C42.3965 24.0097 41.8585 26.143 40.9236 28.1114C39.9887 30.0798 38.6752 31.8447 37.058 33.3053C35.4409 34.766 33.5519 35.8937 31.4988 36.6241C29.4458 37.3546 27.2689 37.6734 25.0926 37.5624Z" fill="url(#paint47_linear_2_481)"/>
<path opacity="0.970588" d="M25.5047 37.5998C22.2103 37.479 19.0257 36.3837 16.3538 34.4526C13.6819 32.5215 11.6427 29.8414 10.4943 26.7512C9.34588 23.661 9.1398 20.2996 9.9021 17.0922C10.6644 13.8849 12.3608 10.9757 14.7768 8.73265C17.1928 6.48961 20.2198 5.01352 23.4748 4.4911C26.7298 3.96869 30.0667 4.42342 33.0633 5.79778C36.0598 7.17213 38.5814 9.40436 40.3091 12.2121C42.0368 15.0198 42.8929 18.2769 42.7692 21.5712C42.6034 25.9855 40.6918 30.1534 37.4545 33.1589C34.2173 36.1644 29.9191 37.7618 25.5047 37.5998Z" fill="url(#paint48_linear_2_481)"/>
<path opacity="0.980392" d="M25.9165 37.6373C22.6071 37.5548 19.3964 36.493 16.6904 34.586C13.9843 32.6791 11.9044 30.0126 10.7137 26.9237C9.52292 23.8348 9.27476 20.4622 10.0005 17.2323C10.7263 14.0024 12.3934 11.0602 14.7911 8.77763C17.1888 6.49508 20.2095 4.97469 23.4712 4.40868C26.7329 3.84267 30.0892 4.25644 33.1158 5.5977C36.1424 6.93896 38.7033 9.14747 40.4749 11.944C42.2464 14.7406 43.149 17.9996 43.0686 21.3091C43.0152 23.5076 42.5291 25.6741 41.638 27.6847C40.747 29.6953 39.4685 31.5107 37.8757 33.027C36.2828 34.5434 34.4068 35.731 32.3548 36.522C30.3028 37.3131 28.115 37.692 25.9165 37.6373Z" fill="url(#paint49_linear_2_481)"/>
<path opacity="0.990196" d="M26.3286 37.6373C23.0033 37.5925 19.766 36.5628 17.0259 34.6782C14.2859 32.7937 12.1662 30.139 10.9349 27.0497C9.70352 23.9605 9.41585 20.5756 10.1082 17.3229C10.8006 14.0702 12.4419 11.0958 14.8247 8.77591C17.2074 6.456 20.2246 4.89473 23.4946 4.28951C26.7647 3.68429 30.1407 4.0623 33.1959 5.37575C36.2511 6.68919 38.8483 8.87908 40.659 11.6685C42.4696 14.4579 43.4125 17.7216 43.3684 21.0469C43.344 23.2566 42.8833 25.4397 42.0128 27.4709C41.1423 29.502 39.8791 31.3412 38.2957 32.8828C36.7124 34.4243 34.8401 35.6379 32.7865 36.4538C30.7328 37.2698 28.5382 37.6719 26.3286 37.6373Z" fill="url(#paint50_linear_2_481)"/>
<path d="M43.6305 20.7848C43.6305 24.1253 42.6399 27.3908 40.784 30.1683C38.9281 32.9459 36.2903 35.1107 33.204 36.3891C30.1178 37.6674 26.7218 38.0019 23.4455 37.3502C20.1691 36.6985 17.1596 35.0899 14.7975 32.7278C12.4354 30.3657 10.8268 27.3562 10.1751 24.0799C9.52343 20.8035 9.85789 17.4075 11.1363 14.3213C12.4146 11.235 14.5794 8.5972 17.357 6.74131C20.1345 4.88542 23.4 3.89484 26.7405 3.89484C31.22 3.89484 35.516 5.67431 38.6835 8.84179C41.851 12.0093 43.6305 16.3053 43.6305 20.7848Z" fill="#ACB1BC"/>
</g>
<path d="M47.5255 20.7848C47.5329 24.9062 46.317 28.9371 44.0319 32.367C41.7468 35.797 38.4952 38.4716 34.6889 40.0522C30.8826 41.6328 26.6929 42.0484 22.6503 41.2461C18.6077 40.4439 14.8941 38.46 11.9798 35.5457C9.06552 32.6314 7.08162 28.9178 6.27938 24.8752C5.47715 20.8326 5.89266 16.6429 7.47328 12.8366C9.0539 9.03032 11.7285 5.77872 15.1584 3.4936C18.5884 1.20848 22.6193 -0.00737235 26.7407 3.3633e-05C32.2532 3.3633e-05 37.5399 2.18985 41.4378 6.08775C45.3356 9.98564 47.5255 15.2723 47.5255 20.7848Z" fill="url(#paint51_linear_2_481)"/>
<path d="M43.6307 20.7848C43.6307 24.1253 42.6401 27.3908 40.7843 30.1683C38.9284 32.9459 36.2905 35.1107 33.2043 36.3891C30.1181 37.6674 26.722 38.0019 23.4457 37.3502C20.1694 36.6985 17.1599 35.0899 14.7978 32.7278C12.4357 30.3657 10.8271 27.3562 10.1754 24.0799C9.52368 20.8035 9.85814 17.4075 11.1365 14.3213C12.4149 11.235 14.5797 8.5972 17.3572 6.74131C20.1347 4.88542 23.4003 3.89484 26.7408 3.89484C31.2203 3.89484 35.5163 5.67431 38.6838 8.84179C41.8512 12.0093 43.6307 16.3053 43.6307 20.7848Z" fill="url(#paint52_linear_2_481)"/>
<path d="M41.9077 20.7848C41.9077 23.7846 41.0182 26.717 39.3516 29.2112C37.685 31.7055 35.3162 33.6495 32.5447 34.7975C29.7733 35.9455 26.7237 36.2458 23.7815 35.6606C20.8394 35.0753 18.1368 33.6308 16.0156 31.5096C13.8945 29.3885 12.4499 26.6859 11.8647 23.7437C11.2795 20.8016 11.5798 17.752 12.7278 14.9805C13.8758 12.2091 15.8198 9.84026 18.314 8.17367C20.8083 6.50707 23.7407 5.61752 26.7405 5.61752C30.7631 5.61752 34.6209 7.2155 37.4654 10.0599C40.3098 12.9043 41.9077 16.7622 41.9077 20.7848Z" fill="url(#paint53_linear_2_481)"/>
<defs>
<linearGradient id="paint0_linear_2_481" x1="34.3046" y1="9.16519" x2="12.477" y2="34.3" gradientUnits="userSpaceOnUse">
<stop stop-color="#183B59"/>
<stop offset="1" stop-color="white" stop-opacity="0"/>
</linearGradient>
<linearGradient id="paint1_linear_2_481" x1="30.0968" y1="10.7371" x2="8.839" y2="35.9815" gradientUnits="userSpaceOnUse">
<stop stop-color="#1B3D5B"/>
<stop offset="1" stop-color="#FDFDFE" stop-opacity="0.02"/>
</linearGradient>
<linearGradient id="paint2_linear_2_481" x1="29.4252" y1="6.52773" x2="8.75047" y2="32.1084" gradientUnits="userSpaceOnUse">
<stop stop-color="#1E405D"/>
<stop offset="1" stop-color="#FCFCFC" stop-opacity="0.04"/>
</linearGradient>
<linearGradient id="paint3_linear_2_481" x1="28.8008" y1="12.8545" x2="8.567" y2="38.5081" gradientUnits="userSpaceOnUse">
<stop stop-color="#21425F"/>
<stop offset="1" stop-color="#FAFAFB" stop-opacity="0.06"/>
</linearGradient>
<linearGradient id="paint4_linear_2_481" x1="34.1803" y1="9.5544" x2="14.4152" y2="35.6593" gradientUnits="userSpaceOnUse">
<stop stop-color="#244461"/>
<stop offset="1" stop-color="#F8F9FA" stop-opacity="0.08"/>
</linearGradient>
<linearGradient id="paint5_linear_2_481" x1="26.0844" y1="10.8616" x2="7.10525" y2="37.0804" gradientUnits="userSpaceOnUse">
<stop stop-color="#274763"/>
<stop offset="1" stop-color="#F7F7F8" stop-opacity="0.1"/>
</linearGradient>
<linearGradient id="paint6_linear_2_481" x1="28.9566" y1="6.19922" x2="10.6237" y2="32.9016" gradientUnits="userSpaceOnUse">
<stop stop-color="#294965"/>
<stop offset="1" stop-color="#F5F6F7" stop-opacity="0.12"/>
</linearGradient>
<linearGradient id="paint7_linear_2_481" x1="27.4773" y1="13.0498" x2="9.73129" y2="39.8753" gradientUnits="userSpaceOnUse">
<stop stop-color="#2C4B67"/>
<stop offset="1" stop-color="#F4F4F6" stop-opacity="0.14"/>
</linearGradient>
<linearGradient id="paint8_linear_2_481" x1="26.6673" y1="8.77415" x2="9.7603" y2="36.0424" gradientUnits="userSpaceOnUse">
<stop stop-color="#2F4E69"/>
<stop offset="1" stop-color="#F2F3F4" stop-opacity="0.16"/>
</linearGradient>
<linearGradient id="paint9_linear_2_481" x1="26.1735" y1="9.91684" x2="10.0458" y2="37.516" gradientUnits="userSpaceOnUse">
<stop stop-color="#32506A"/>
<stop offset="1" stop-color="#F0F1F3" stop-opacity="0.18"/>
</linearGradient>
<linearGradient id="paint10_linear_2_481" x1="28.0311" y1="5.74289" x2="12.8128" y2="33.8736" gradientUnits="userSpaceOnUse">
<stop stop-color="#35526C"/>
<stop offset="1" stop-color="#EFF0F2" stop-opacity="0.2"/>
</linearGradient>
<linearGradient id="paint11_linear_2_481" x1="21.4091" y1="10.0689" x2="7.19029" y2="38.3398" gradientUnits="userSpaceOnUse">
<stop stop-color="#38546E"/>
<stop offset="1" stop-color="#EDEEF1" stop-opacity="0.22"/>
</linearGradient>
<linearGradient id="paint12_linear_2_481" x1="32.254" y1="10.7854" x2="18.7815" y2="39.7265" gradientUnits="userSpaceOnUse">
<stop stop-color="#3B5770"/>
<stop offset="1" stop-color="#EBEDEF" stop-opacity="0.24"/>
</linearGradient>
<linearGradient id="paint13_linear_2_481" x1="26.1434" y1="7.78673" x2="14.0145" y2="37.0686" gradientUnits="userSpaceOnUse">
<stop stop-color="#3E5972"/>
<stop offset="1" stop-color="#EAEBEE" stop-opacity="0.25"/>
</linearGradient>
<linearGradient id="paint14_linear_2_481" x1="19.2228" y1="9.3798" x2="8.43494" y2="38.8591" gradientUnits="userSpaceOnUse">
<stop stop-color="#415B74"/>
<stop offset="1" stop-color="#E8EAED" stop-opacity="0.27"/>
</linearGradient>
<linearGradient id="paint15_linear_2_481" x1="25.3808" y1="7.02381" x2="15.884" y2="37.1438" gradientUnits="userSpaceOnUse">
<stop stop-color="#445E76"/>
<stop offset="1" stop-color="#E7E8EB" stop-opacity="0.29"/>
</linearGradient>
<linearGradient id="paint16_linear_2_481" x1="30.0249" y1="5.73926" x2="21.9753" y2="36.4227" gradientUnits="userSpaceOnUse">
<stop stop-color="#466078"/>
<stop offset="1" stop-color="#E5E7EA" stop-opacity="0.31"/>
</linearGradient>
<linearGradient id="paint17_linear_2_481" x1="16.4182" y1="9.17064" x2="10.1475" y2="39.7193" gradientUnits="userSpaceOnUse">
<stop stop-color="#49627A"/>
<stop offset="1" stop-color="#E3E5E9" stop-opacity="0.33"/>
</linearGradient>
<linearGradient id="paint18_linear_2_481" x1="23.4858" y1="4.67483" x2="19.0356" y2="35.8266" gradientUnits="userSpaceOnUse">
<stop stop-color="#4C657C"/>
<stop offset="1" stop-color="#E2E3E7" stop-opacity="0.35"/>
</linearGradient>
<linearGradient id="paint19_linear_2_481" x1="28.8245" y1="4.0748" x2="26.2852" y2="35.6357" gradientUnits="userSpaceOnUse">
<stop stop-color="#4F677E"/>
<stop offset="1" stop-color="#E0E2E6" stop-opacity="0.37"/>
</linearGradient>
<linearGradient id="paint20_linear_2_481" x1="22.1587" y1="6.99836" x2="21.7204" y2="38.3932" gradientUnits="userSpaceOnUse">
<stop stop-color="#526980"/>
<stop offset="1" stop-color="#DEE0E5" stop-opacity="0.39"/>
</linearGradient>
<linearGradient id="paint21_linear_2_481" x1="28.1912" y1="4.38955" x2="30.0691" y2="35.998" gradientUnits="userSpaceOnUse">
<stop stop-color="#556C82"/>
<stop offset="1" stop-color="#DDDFE3" stop-opacity="0.41"/>
</linearGradient>
<linearGradient id="paint22_linear_2_481" x1="19.2689" y1="4.6242" x2="23.602" y2="35.6782" gradientUnits="userSpaceOnUse">
<stop stop-color="#586E84"/>
<stop offset="1" stop-color="#DBDDE2" stop-opacity="0.43"/>
</linearGradient>
<linearGradient id="paint23_linear_2_481" x1="9.44584" y1="9.36112" x2="16.0939" y2="39.5983" gradientUnits="userSpaceOnUse">
<stop stop-color="#5B7086"/>
<stop offset="1" stop-color="#DADCE1" stop-opacity="0.45"/>
</linearGradient>
<linearGradient id="paint24_linear_2_481" x1="19.0066" y1="6.56473" x2="28.2932" y2="36.5648" gradientUnits="userSpaceOnUse">
<stop stop-color="#5E7388"/>
<stop offset="1" stop-color="#D8DADF" stop-opacity="0.47"/>
</linearGradient>
<linearGradient id="paint25_linear_2_481" x1="23.2618" y1="5.43568" x2="35.1669" y2="34.7544" gradientUnits="userSpaceOnUse">
<stop stop-color="#61758A"/>
<stop offset="1" stop-color="#D6D9DE" stop-opacity="0.49"/>
</linearGradient>
<linearGradient id="paint26_linear_2_481" x1="22.1585" y1="6.27043" x2="36.5315" y2="34.4791" gradientUnits="userSpaceOnUse">
<stop stop-color="#63778B"/>
<stop offset="1" stop-color="#D5D7DD" stop-opacity="0.51"/>
</linearGradient>
<linearGradient id="paint27_linear_2_481" x1="15.8269" y1="7.97757" x2="32.4472" y2="34.6792" gradientUnits="userSpaceOnUse">
<stop stop-color="#66798D"/>
<stop offset="1" stop-color="#D3D6DC" stop-opacity="0.53"/>
</linearGradient>
<linearGradient id="paint28_linear_2_481" x1="4.89319" y1="10.6015" x2="23.4404" y2="35.4845" gradientUnits="userSpaceOnUse">
<stop stop-color="#697C8F"/>
<stop offset="1" stop-color="#D1D4DA" stop-opacity="0.55"/>
</linearGradient>
<linearGradient id="paint29_linear_2_481" x1="6.18541" y1="10.9896" x2="26.7502" y2="34.398" gradientUnits="userSpaceOnUse">
<stop stop-color="#6C7E91"/>
<stop offset="1" stop-color="#D0D3D9" stop-opacity="0.57"/>
</linearGradient>
<linearGradient id="paint30_linear_2_481" x1="11.2211" y1="7.99764" x2="33.8361" y2="29.9059" gradientUnits="userSpaceOnUse">
<stop stop-color="#6F8093"/>
<stop offset="1" stop-color="#CED1D8" stop-opacity="0.59"/>
</linearGradient>
<linearGradient id="paint31_linear_2_481" x1="14.0821" y1="16.1833" x2="38.0976" y2="36.7681" gradientUnits="userSpaceOnUse">
<stop stop-color="#728395"/>
<stop offset="1" stop-color="#CDD0D6" stop-opacity="0.61"/>
</linearGradient>
<linearGradient id="paint32_linear_2_481" x1="5.48451" y1="14.4462" x2="30.7075" y2="33.0316" gradientUnits="userSpaceOnUse">
<stop stop-color="#758597"/>
<stop offset="1" stop-color="#CBCED5" stop-opacity="0.63"/>
</linearGradient>
<linearGradient id="paint33_linear_2_481" x1="16.8534" y1="12.7875" x2="43.7469" y2="30.0762" gradientUnits="userSpaceOnUse">
<stop stop-color="#788799"/>
<stop offset="1" stop-color="#C9CDD4" stop-opacity="0.65"/>
</linearGradient>
<linearGradient id="paint34_linear_2_481" x1="4.32496" y1="14.4297" x2="31.7442" y2="29.8166" gradientUnits="userSpaceOnUse">
<stop stop-color="#7B8A9B"/>
<stop offset="1" stop-color="#C8CBD2" stop-opacity="0.67"/>
</linearGradient>
<linearGradient id="paint35_linear_2_481" x1="10.5428" y1="17.961" x2="38.997" y2="32.1882" gradientUnits="userSpaceOnUse">
<stop stop-color="#7E8C9D"/>
<stop offset="1" stop-color="#C6C9D1" stop-opacity="0.69"/>
</linearGradient>
<linearGradient id="paint36_linear_2_481" x1="9.92336" y1="14.9987" x2="39.1963" y2="27.6662" gradientUnits="userSpaceOnUse">
<stop stop-color="#808E9F"/>
<stop offset="1" stop-color="#C4C8D0" stop-opacity="0.71"/>
</linearGradient>
<linearGradient id="paint37_linear_2_481" x1="5.16716" y1="16.1656" x2="34.8333" y2="27.4347" gradientUnits="userSpaceOnUse">
<stop stop-color="#8391A1"/>
<stop offset="1" stop-color="#C3C6CE" stop-opacity="0.73"/>
</linearGradient>
<linearGradient id="paint38_linear_2_481" x1="9.54612" y1="16.106" x2="39.9735" y2="26.2279" gradientUnits="userSpaceOnUse">
<stop stop-color="#8693A3"/>
<stop offset="1" stop-color="#C1C5CD" stop-opacity="0.75"/>
</linearGradient>
<linearGradient id="paint39_linear_2_481" x1="12.6089" y1="16.2583" x2="43.6625" y2="25.2802" gradientUnits="userSpaceOnUse">
<stop stop-color="#8995A5"/>
<stop offset="1" stop-color="#C0C3CC" stop-opacity="0.76"/>
</linearGradient>
<linearGradient id="paint40_linear_2_481" x1="6.02754" y1="17.4219" x2="37.1227" y2="25.2902" gradientUnits="userSpaceOnUse">
<stop stop-color="#8C98A7"/>
<stop offset="1" stop-color="#BEC2CA" stop-opacity="0.78"/>
</linearGradient>
<linearGradient id="paint41_linear_2_481" x1="12.8821" y1="18.2849" x2="44.6917" y2="25.3018" gradientUnits="userSpaceOnUse">
<stop stop-color="#8F9AA9"/>
<stop offset="1" stop-color="#BCC0C9" stop-opacity="0.8"/>
</linearGradient>
<linearGradient id="paint42_linear_2_481" x1="8.7113" y1="18.582" x2="40.5982" y2="24.607" gradientUnits="userSpaceOnUse">
<stop stop-color="#929CAB"/>
<stop offset="1" stop-color="#BBBFC8" stop-opacity="0.82"/>
</linearGradient>
<linearGradient id="paint43_linear_2_481" x1="9.1995" y1="18.7006" x2="41.3903" y2="23.8567" gradientUnits="userSpaceOnUse">
<stop stop-color="#959EAC"/>
<stop offset="1" stop-color="#B9BDC7" stop-opacity="0.84"/>
</linearGradient>
<linearGradient id="paint44_linear_2_481" x1="9.27215" y1="18.6012" x2="41.7155" y2="22.93" gradientUnits="userSpaceOnUse">
<stop stop-color="#98A1AE"/>
<stop offset="1" stop-color="#B7BCC5" stop-opacity="0.86"/>
</linearGradient>
<linearGradient id="paint45_linear_2_481" x1="9.10456" y1="19.3189" x2="41.7554" y2="22.9236" gradientUnits="userSpaceOnUse">
<stop stop-color="#9BA3B0"/>
<stop offset="1" stop-color="#B6BAC4" stop-opacity="0.88"/>
</linearGradient>
<linearGradient id="paint46_linear_2_481" x1="8.67788" y1="20.0014" x2="41.5091" y2="22.9315" gradientUnits="userSpaceOnUse">
<stop stop-color="#9DA5B2"/>
<stop offset="1" stop-color="#B4B9C3" stop-opacity="0.9"/>
</linearGradient>
<linearGradient id="paint47_linear_2_481" x1="9.31498" y1="20.3023" x2="42.3754" y2="22.5823" gradientUnits="userSpaceOnUse">
<stop stop-color="#A0A8B4"/>
<stop offset="1" stop-color="#B3B7C1" stop-opacity="0.92"/>
</linearGradient>
<linearGradient id="paint48_linear_2_481" x1="7.4993" y1="19.8451" x2="40.6187" y2="21.4649" gradientUnits="userSpaceOnUse">
<stop stop-color="#A3AAB6"/>
<stop offset="1" stop-color="#B1B6C0" stop-opacity="0.94"/>
</linearGradient>
<linearGradient id="paint49_linear_2_481" x1="12.1053" y1="20.6622" x2="45.7241" y2="21.7352" gradientUnits="userSpaceOnUse">
<stop stop-color="#A6ACB8"/>
<stop offset="1" stop-color="#AFB4BF" stop-opacity="0.96"/>
</linearGradient>
<linearGradient id="paint50_linear_2_481" x1="10.8173" y1="20.8864" x2="44.5169" y2="21.4158" gradientUnits="userSpaceOnUse">
<stop stop-color="#A9AFBA"/>
<stop offset="1" stop-color="#AEB3BD" stop-opacity="0.98"/>
</linearGradient>
<linearGradient id="paint51_linear_2_481" x1="5.93725" y1="20.7923" x2="47.5405" y2="20.7923" gradientUnits="userSpaceOnUse">
<stop stop-color="#FF790B"/>
<stop offset="1" stop-color="#FFB546"/>
</linearGradient>
<linearGradient id="paint52_linear_2_481" x1="9.84335" y1="20.7923" x2="43.6345" y2="20.7923" gradientUnits="userSpaceOnUse">
<stop stop-color="#DCDDDE"/>
<stop offset="1" stop-color="white"/>
</linearGradient>
<linearGradient id="paint53_linear_2_481" x1="11.5583" y1="20.7923" x2="41.919" y2="20.7923" gradientUnits="userSpaceOnUse">
<stop stop-color="white"/>
<stop offset="1" stop-color="#DCDDDE"/>
</linearGradient>
</defs>
</svg>
